<svg width="790" height="550" viewBox="0 0 790 550" fill="none" xmlns="http://www.w3.org/2000/svg">
<path d="M53.4472 56.8944C54.7988 56.8944 55.8945 55.7988 55.8945 54.4472C55.8945 53.0956 54.7988 52 53.4472 52C52.0957 52 51 53.0956 51 54.4472C51 55.7988 52.0957 56.8944 53.4472 56.8944Z" fill="#512DA8" fill-opacity="0.25"/>
<path d="M75.4578 56.8944C76.8093 56.8944 77.905 55.7988 77.905 54.4472C77.905 53.0956 76.8093 52 75.4578 52C74.1062 52 73.0106 53.0956 73.0106 54.4472C73.0106 55.7988 74.1062 56.8944 75.4578 56.8944Z" fill="#512DA8" fill-opacity="0.25"/>
<path d="M97.4683 56.8944C98.8199 56.8944 99.9156 55.7988 99.9156 54.4472C99.9156 53.0956 98.8199 52 97.4683 52C96.1168 52 95.0211 53.0956 95.0211 54.4472C95.0211 55.7988 96.1168 56.8944 97.4683 56.8944Z" fill="#512DA8" fill-opacity="0.25"/>
<path d="M121.926 54.4472C121.926 55.7939 120.826 56.8944 119.479 56.8944C118.132 56.8944 117.032 55.7939 117.032 54.4472C117.032 53.1005 118.132 52 119.479 52C120.826 52 121.926 53.1005 121.926 54.4472Z" fill="#512DA8" fill-opacity="0.25"/>
<path d="M143.937 54.4472C143.937 55.7939 142.836 56.8944 141.489 56.8944C140.143 56.8944 139.042 55.7939 139.042 54.4472C139.042 53.1005 140.143 52 141.489 52C142.836 52 143.937 53.1005 143.937 54.4472Z" fill="#512DA8" fill-opacity="0.25"/>
<path d="M163.5 56.8944C164.852 56.8944 165.947 55.7988 165.947 54.4472C165.947 53.0956 164.852 52 163.5 52C162.148 52 161.053 53.0956 161.053 54.4472C161.053 55.7988 162.148 56.8944 163.5 56.8944Z" fill="#512DA8" fill-opacity="0.25"/>
<path d="M185.511 56.8944C186.862 56.8944 187.958 55.7988 187.958 54.4472C187.958 53.0956 186.862 52 185.511 52C184.159 52 183.063 53.0956 183.063 54.4472C183.063 55.7988 184.159 56.8944 185.511 56.8944Z" fill="#512DA8" fill-opacity="0.25"/>
<path d="M207.521 56.8944C208.873 56.8944 209.968 55.7988 209.968 54.4472C209.968 53.0956 208.873 52 207.521 52C206.17 52 205.074 53.0956 205.074 54.4472C205.074 55.7988 206.17 56.8944 207.521 56.8944Z" fill="#512DA8" fill-opacity="0.25"/>
<path d="M229.532 56.8944C230.883 56.8944 231.979 55.7988 231.979 54.4472C231.979 53.0956 230.883 52 229.532 52C228.18 52 227.084 53.0956 227.084 54.4472C227.084 55.7988 228.18 56.8944 229.532 56.8944Z" fill="#512DA8" fill-opacity="0.25"/>
<path d="M251.542 56.8944C252.894 56.8944 253.989 55.7988 253.989 54.4472C253.989 53.0956 252.894 52 251.542 52C250.191 52 249.095 53.0956 249.095 54.4472C249.095 55.7988 250.191 56.8944 251.542 56.8944Z" fill="#512DA8" fill-opacity="0.25"/>
<path d="M273.553 56.8944C274.904 56.8944 276 55.7988 276 54.4472C276 53.0956 274.904 52 273.553 52C272.201 52 271.106 53.0956 271.106 54.4472C271.106 55.7988 272.201 56.8944 273.553 56.8944Z" fill="#512DA8" fill-opacity="0.25"/>
<path d="M53.4472 76.4578C54.7988 76.4578 55.8945 75.3621 55.8945 74.0106C55.8945 72.659 54.7988 71.5634 53.4472 71.5634C52.0957 71.5634 51 72.659 51 74.0106C51 75.3621 52.0957 76.4578 53.4472 76.4578Z" fill="#512DA8" fill-opacity="0.25"/>
<path d="M75.4578 76.4578C76.8093 76.4578 77.905 75.3621 77.905 74.0106C77.905 72.659 76.8093 71.5634 75.4578 71.5634C74.1062 71.5634 73.0106 72.659 73.0106 74.0106C73.0106 75.3621 74.1062 76.4578 75.4578 76.4578Z" fill="#512DA8" fill-opacity="0.25"/>
<path d="M97.4683 76.4578C98.8199 76.4578 99.9156 75.3621 99.9156 74.0106C99.9156 72.659 98.8199 71.5634 97.4683 71.5634C96.1168 71.5634 95.0211 72.659 95.0211 74.0106C95.0211 75.3621 96.1168 76.4578 97.4683 76.4578Z" fill="#512DA8" fill-opacity="0.25"/>
<path d="M121.926 74.0106C121.926 75.3573 120.826 76.4578 119.479 76.4578C118.132 76.4578 117.032 75.3573 117.032 74.0106C117.032 72.6639 118.132 71.5634 119.479 71.5634C120.826 71.5634 121.926 72.6639 121.926 74.0106Z" fill="#512DA8" fill-opacity="0.25"/>
<path d="M143.937 74.0106C143.937 75.3573 142.836 76.4578 141.489 76.4578C140.143 76.4578 139.042 75.3573 139.042 74.0106C139.042 72.6639 140.143 71.5634 141.489 71.5634C142.836 71.5634 143.937 72.6639 143.937 74.0106Z" fill="#512DA8" fill-opacity="0.25"/>
<path d="M163.5 76.4578C164.852 76.4578 165.947 75.3621 165.947 74.0106C165.947 72.659 164.852 71.5634 163.5 71.5634C162.148 71.5634 161.053 72.659 161.053 74.0106C161.053 75.3621 162.148 76.4578 163.5 76.4578Z" fill="#512DA8" fill-opacity="0.25"/>
<path d="M185.511 76.4578C186.862 76.4578 187.958 75.3621 187.958 74.0106C187.958 72.659 186.862 71.5634 185.511 71.5634C184.159 71.5634 183.063 72.659 183.063 74.0106C183.063 75.3621 184.159 76.4578 185.511 76.4578Z" fill="#512DA8" fill-opacity="0.25"/>
<path d="M207.521 76.4578C208.873 76.4578 209.968 75.3621 209.968 74.0106C209.968 72.659 208.873 71.5634 207.521 71.5634C206.17 71.5634 205.074 72.659 205.074 74.0106C205.074 75.3621 206.17 76.4578 207.521 76.4578Z" fill="#512DA8" fill-opacity="0.25"/>
<path d="M229.532 76.4578C230.883 76.4578 231.979 75.3621 231.979 74.0106C231.979 72.659 230.883 71.5634 229.532 71.5634C228.18 71.5634 227.084 72.659 227.084 74.0106C227.084 75.3621 228.18 76.4578 229.532 76.4578Z" fill="#512DA8" fill-opacity="0.25"/>
<path d="M251.542 76.4578C252.894 76.4578 253.989 75.3621 253.989 74.0106C253.989 72.659 252.894 71.5634 251.542 71.5634C250.191 71.5634 249.095 72.659 249.095 74.0106C249.095 75.3621 250.191 76.4578 251.542 76.4578Z" fill="#512DA8" fill-opacity="0.25"/>
<path d="M273.553 76.4578C274.904 76.4578 276 75.3621 276 74.0106C276 72.659 274.904 71.5634 273.553 71.5634C272.201 71.5634 271.106 72.659 271.106 74.0106C271.106 75.3621 272.201 76.4578 273.553 76.4578Z" fill="#512DA8" fill-opacity="0.25"/>
<path d="M53.4472 96.0212C54.7988 96.0212 55.8945 94.9255 55.8945 93.5739C55.8945 92.2224 54.7988 91.1267 53.4472 91.1267C52.0957 91.1267 51 92.2224 51 93.5739C51 94.9255 52.0957 96.0212 53.4472 96.0212Z" fill="#512DA8" fill-opacity="0.25"/>
<path d="M75.4578 96.0212C76.8093 96.0212 77.905 94.9255 77.905 93.5739C77.905 92.2224 76.8093 91.1267 75.4578 91.1267C74.1062 91.1267 73.0106 92.2224 73.0106 93.5739C73.0106 94.9255 74.1062 96.0212 75.4578 96.0212Z" fill="#512DA8" fill-opacity="0.25"/>
<path d="M97.4683 96.0212C98.8199 96.0212 99.9156 94.9255 99.9156 93.5739C99.9156 92.2224 98.8199 91.1267 97.4683 91.1267C96.1168 91.1267 95.0211 92.2224 95.0211 93.5739C95.0211 94.9255 96.1168 96.0212 97.4683 96.0212Z" fill="#512DA8" fill-opacity="0.25"/>
<path d="M121.926 93.5739C121.926 94.9206 120.826 96.0212 119.479 96.0212C118.132 96.0212 117.032 94.9206 117.032 93.5739C117.032 92.2272 118.132 91.1267 119.479 91.1267C120.826 91.1267 121.926 92.2272 121.926 93.5739Z" fill="#512DA8" fill-opacity="0.25"/>
<path d="M143.937 93.5739C143.937 94.9206 142.836 96.0212 141.489 96.0212C140.143 96.0212 139.042 94.9206 139.042 93.5739C139.042 92.2272 140.143 91.1267 141.489 91.1267C142.836 91.1267 143.937 92.2272 143.937 93.5739Z" fill="#512DA8" fill-opacity="0.25"/>
<path d="M163.5 96.0212C164.852 96.0212 165.947 94.9255 165.947 93.5739C165.947 92.2224 164.852 91.1267 163.5 91.1267C162.148 91.1267 161.053 92.2224 161.053 93.5739C161.053 94.9255 162.148 96.0212 163.5 96.0212Z" fill="#512DA8" fill-opacity="0.25"/>
<path d="M185.511 96.0212C186.862 96.0212 187.958 94.9255 187.958 93.5739C187.958 92.2224 186.862 91.1267 185.511 91.1267C184.159 91.1267 183.063 92.2224 183.063 93.5739C183.063 94.9255 184.159 96.0212 185.511 96.0212Z" fill="#512DA8" fill-opacity="0.25"/>
<path d="M207.521 96.0212C208.873 96.0212 209.968 94.9255 209.968 93.5739C209.968 92.2224 208.873 91.1267 207.521 91.1267C206.17 91.1267 205.074 92.2224 205.074 93.5739C205.074 94.9255 206.17 96.0212 207.521 96.0212Z" fill="#512DA8" fill-opacity="0.25"/>
<path d="M229.532 96.0212C230.883 96.0212 231.979 94.9255 231.979 93.5739C231.979 92.2224 230.883 91.1267 229.532 91.1267C228.18 91.1267 227.084 92.2224 227.084 93.5739C227.084 94.9255 228.18 96.0212 229.532 96.0212Z" fill="#512DA8" fill-opacity="0.25"/>
<path d="M251.542 96.0212C252.894 96.0212 253.989 94.9255 253.989 93.5739C253.989 92.2224 252.894 91.1267 251.542 91.1267C250.191 91.1267 249.095 92.2224 249.095 93.5739C249.095 94.9255 250.191 96.0212 251.542 96.0212Z" fill="#512DA8" fill-opacity="0.25"/>
<path d="M273.553 96.0212C274.904 96.0212 276 94.9255 276 93.5739C276 92.2224 274.904 91.1267 273.553 91.1267C272.201 91.1267 271.106 92.2224 271.106 93.5739C271.106 94.9255 272.201 96.0212 273.553 96.0212Z" fill="#512DA8" fill-opacity="0.25"/>
<path d="M55.8945 113.137C55.8945 114.484 54.7939 115.584 53.4472 115.584C52.1005 115.584 51 114.484 51 113.137C51 111.791 52.1005 110.69 53.4472 110.69C54.7939 110.69 55.8945 111.791 55.8945 113.137Z" fill="#512DA8" fill-opacity="0.25"/>
<path d="M77.905 113.137C77.905 114.484 76.8045 115.584 75.4578 115.584C74.1111 115.584 73.0106 114.484 73.0106 113.137C73.0106 111.791 74.1111 110.69 75.4578 110.69C76.8045 110.69 77.905 111.791 77.905 113.137Z" fill="#512DA8" fill-opacity="0.25"/>
<path d="M99.9156 113.137C99.9156 114.484 98.815 115.584 97.4683 115.584C96.1216 115.584 95.0211 114.484 95.0211 113.137C95.0211 111.791 96.1216 110.69 97.4683 110.69C98.815 110.69 99.9156 111.791 99.9156 113.137Z" fill="#512DA8" fill-opacity="0.25"/>
<path d="M121.926 113.137C121.926 114.484 120.826 115.584 119.479 115.584C118.132 115.584 117.032 114.484 117.032 113.137C117.032 111.791 118.132 110.69 119.479 110.69C120.826 110.69 121.926 111.791 121.926 113.137Z" fill="#512DA8" fill-opacity="0.25"/>
<path d="M143.937 113.137C143.937 114.484 142.836 115.584 141.489 115.584C140.143 115.584 139.042 114.484 139.042 113.137C139.042 111.791 140.143 110.69 141.489 110.69C142.836 110.69 143.937 111.791 143.937 113.137Z" fill="#512DA8" fill-opacity="0.25"/>
<path d="M165.947 113.137C165.947 114.484 164.847 115.584 163.5 115.584C162.153 115.584 161.053 114.484 161.053 113.137C161.053 111.791 162.153 110.69 163.5 110.69C164.847 110.69 165.947 111.791 165.947 113.137Z" fill="#512DA8" fill-opacity="0.25"/>
<path d="M187.958 113.137C187.958 114.484 186.857 115.584 185.511 115.584C184.164 115.584 183.063 114.484 183.063 113.137C183.063 111.791 184.164 110.69 185.511 110.69C186.857 110.69 187.958 111.791 187.958 113.137Z" fill="#512DA8" fill-opacity="0.25"/>
<path d="M209.968 113.137C209.968 114.484 208.868 115.584 207.521 115.584C206.174 115.584 205.074 114.484 205.074 113.137C205.074 111.791 206.174 110.69 207.521 110.69C208.868 110.69 209.968 111.791 209.968 113.137Z" fill="#512DA8" fill-opacity="0.25"/>
<path d="M231.979 113.137C231.979 114.484 230.878 115.584 229.532 115.584C228.185 115.584 227.084 114.484 227.084 113.137C227.084 111.791 228.185 110.69 229.532 110.69C230.878 110.69 231.979 111.791 231.979 113.137Z" fill="#512DA8" fill-opacity="0.25"/>
<path d="M253.989 113.137C253.989 114.484 252.889 115.584 251.542 115.584C250.196 115.584 249.095 114.484 249.095 113.137C249.095 111.791 250.196 110.69 251.542 110.69C252.889 110.69 253.989 111.791 253.989 113.137Z" fill="#512DA8" fill-opacity="0.25"/>
<path d="M276 113.137C276 114.484 274.899 115.584 273.553 115.584C272.206 115.584 271.106 114.484 271.106 113.137C271.106 111.791 272.206 110.69 273.553 110.69C274.899 110.69 276 111.791 276 113.137Z" fill="#512DA8" fill-opacity="0.25"/>
<path d="M55.8945 132.701C55.8945 134.047 54.7939 135.148 53.4472 135.148C52.1005 135.148 51 134.047 51 132.701C51 131.354 52.1005 130.253 53.4472 130.253C54.7939 130.253 55.8945 131.354 55.8945 132.701Z" fill="#512DA8" fill-opacity="0.25"/>
<path d="M77.905 132.701C77.905 134.047 76.8045 135.148 75.4578 135.148C74.1111 135.148 73.0106 134.047 73.0106 132.701C73.0106 131.354 74.1111 130.253 75.4578 130.253C76.8045 130.253 77.905 131.354 77.905 132.701Z" fill="#512DA8" fill-opacity="0.25"/>
<path d="M99.9156 132.701C99.9156 134.047 98.815 135.148 97.4683 135.148C96.1216 135.148 95.0211 134.047 95.0211 132.701C95.0211 131.354 96.1216 130.253 97.4683 130.253C98.815 130.253 99.9156 131.354 99.9156 132.701Z" fill="#512DA8" fill-opacity="0.25"/>
<path d="M121.926 132.701C121.926 134.047 120.826 135.148 119.479 135.148C118.132 135.148 117.032 134.047 117.032 132.701C117.032 131.354 118.132 130.253 119.479 130.253C120.826 130.253 121.926 131.354 121.926 132.701Z" fill="#512DA8" fill-opacity="0.25"/>
<path d="M143.937 132.701C143.937 134.047 142.836 135.148 141.489 135.148C140.143 135.148 139.042 134.047 139.042 132.701C139.042 131.354 140.143 130.253 141.489 130.253C142.836 130.253 143.937 131.354 143.937 132.701Z" fill="#512DA8" fill-opacity="0.25"/>
<path d="M165.947 132.701C165.947 134.047 164.847 135.148 163.5 135.148C162.153 135.148 161.053 134.047 161.053 132.701C161.053 131.354 162.153 130.253 163.5 130.253C164.847 130.253 165.947 131.354 165.947 132.701Z" fill="#512DA8" fill-opacity="0.25"/>
<path d="M187.958 132.701C187.958 134.047 186.857 135.148 185.511 135.148C184.164 135.148 183.063 134.047 183.063 132.701C183.063 131.354 184.164 130.253 185.511 130.253C186.857 130.253 187.958 131.354 187.958 132.701Z" fill="#512DA8" fill-opacity="0.25"/>
<path d="M209.968 132.701C209.968 134.047 208.868 135.148 207.521 135.148C206.174 135.148 205.074 134.047 205.074 132.701C205.074 131.354 206.174 130.253 207.521 130.253C208.868 130.253 209.968 131.354 209.968 132.701Z" fill="#512DA8" fill-opacity="0.25"/>
<path d="M231.979 132.701C231.979 134.047 230.878 135.148 229.532 135.148C228.185 135.148 227.084 134.047 227.084 132.701C227.084 131.354 228.185 130.253 229.532 130.253C230.878 130.253 231.979 131.354 231.979 132.701Z" fill="#512DA8" fill-opacity="0.25"/>
<path d="M253.989 132.701C253.989 134.047 252.889 135.148 251.542 135.148C250.196 135.148 249.095 134.047 249.095 132.701C249.095 131.354 250.196 130.253 251.542 130.253C252.889 130.253 253.989 131.354 253.989 132.701Z" fill="#512DA8" fill-opacity="0.25"/>
<path d="M276 132.701C276 134.047 274.899 135.148 273.553 135.148C272.206 135.148 271.106 134.047 271.106 132.701C271.106 131.354 272.206 130.253 273.553 130.253C274.899 130.253 276 131.354 276 132.701Z" fill="#512DA8" fill-opacity="0.25"/>
<path d="M55.8945 152.264C55.8945 153.611 54.7939 154.711 53.4472 154.711C52.1005 154.711 51 153.611 51 152.264C51 150.917 52.1005 149.817 53.4472 149.817C54.7939 149.817 55.8945 150.917 55.8945 152.264Z" fill="#512DA8" fill-opacity="0.25"/>
<path d="M77.905 152.264C77.905 153.611 76.8045 154.711 75.4578 154.711C74.1111 154.711 73.0106 153.611 73.0106 152.264C73.0106 150.917 74.1111 149.817 75.4578 149.817C76.8045 149.817 77.905 150.917 77.905 152.264Z" fill="#512DA8" fill-opacity="0.25"/>
<path d="M99.9156 152.264C99.9156 153.611 98.815 154.711 97.4683 154.711C96.1216 154.711 95.0211 153.611 95.0211 152.264C95.0211 150.917 96.1216 149.817 97.4683 149.817C98.815 149.817 99.9156 150.917 99.9156 152.264Z" fill="#512DA8" fill-opacity="0.25"/>
<path d="M121.926 152.264C121.926 153.611 120.826 154.711 119.479 154.711C118.132 154.711 117.032 153.611 117.032 152.264C117.032 150.917 118.132 149.817 119.479 149.817C120.826 149.817 121.926 150.917 121.926 152.264Z" fill="#512DA8" fill-opacity="0.25"/>
<path d="M143.937 152.264C143.937 153.611 142.836 154.711 141.489 154.711C140.143 154.711 139.042 153.611 139.042 152.264C139.042 150.917 140.143 149.817 141.489 149.817C142.836 149.817 143.937 150.917 143.937 152.264Z" fill="#512DA8" fill-opacity="0.25"/>
<path d="M165.947 152.264C165.947 153.611 164.847 154.711 163.5 154.711C162.153 154.711 161.053 153.611 161.053 152.264C161.053 150.917 162.153 149.817 163.5 149.817C164.847 149.817 165.947 150.917 165.947 152.264Z" fill="#512DA8" fill-opacity="0.25"/>
<path d="M187.958 152.264C187.958 153.611 186.857 154.711 185.511 154.711C184.164 154.711 183.063 153.611 183.063 152.264C183.063 150.917 184.164 149.817 185.511 149.817C186.857 149.817 187.958 150.917 187.958 152.264Z" fill="#512DA8" fill-opacity="0.25"/>
<path d="M209.968 152.264C209.968 153.611 208.868 154.711 207.521 154.711C206.174 154.711 205.074 153.611 205.074 152.264C205.074 150.917 206.174 149.817 207.521 149.817C208.868 149.817 209.968 150.917 209.968 152.264Z" fill="#512DA8" fill-opacity="0.25"/>
<path d="M231.979 152.264C231.979 153.611 230.878 154.711 229.532 154.711C228.185 154.711 227.084 153.611 227.084 152.264C227.084 150.917 228.185 149.817 229.532 149.817C230.878 149.817 231.979 150.917 231.979 152.264Z" fill="#512DA8" fill-opacity="0.25"/>
<path d="M253.989 152.264C253.989 153.611 252.889 154.711 251.542 154.711C250.196 154.711 249.095 153.611 249.095 152.264C249.095 150.917 250.196 149.817 251.542 149.817C252.889 149.817 253.989 150.917 253.989 152.264Z" fill="#512DA8" fill-opacity="0.25"/>
<path d="M276 152.264C276 153.611 274.899 154.711 273.553 154.711C272.206 154.711 271.106 153.611 271.106 152.264C271.106 150.917 272.206 149.817 273.553 149.817C274.899 149.817 276 150.917 276 152.264Z" fill="#512DA8" fill-opacity="0.25"/>
<path d="M53.4472 174.274C54.7988 174.274 55.8945 173.179 55.8945 171.827C55.8945 170.476 54.7988 169.38 53.4472 169.38C52.0957 169.38 51 170.476 51 171.827C51 173.179 52.0957 174.274 53.4472 174.274Z" fill="#512DA8" fill-opacity="0.25"/>
<path d="M75.4578 174.274C76.8093 174.274 77.905 173.179 77.905 171.827C77.905 170.476 76.8093 169.38 75.4578 169.38C74.1062 169.38 73.0106 170.476 73.0106 171.827C73.0106 173.179 74.1062 174.274 75.4578 174.274Z" fill="#512DA8" fill-opacity="0.25"/>
<path d="M97.4683 174.274C98.8199 174.274 99.9156 173.179 99.9156 171.827C99.9156 170.476 98.8199 169.38 97.4683 169.38C96.1168 169.38 95.0211 170.476 95.0211 171.827C95.0211 173.179 96.1168 174.274 97.4683 174.274Z" fill="#512DA8" fill-opacity="0.25"/>
<path d="M121.926 171.827C121.926 173.174 120.826 174.274 119.479 174.274C118.132 174.274 117.032 173.174 117.032 171.827C117.032 170.48 118.132 169.38 119.479 169.38C120.826 169.394 121.926 170.48 121.926 171.827Z" fill="#512DA8" fill-opacity="0.25"/>
<path d="M143.937 171.827C143.937 173.174 142.836 174.274 141.489 174.274C140.143 174.274 139.042 173.174 139.042 171.827C139.042 170.48 140.143 169.38 141.489 169.38C142.836 169.394 143.937 170.48 143.937 171.827Z" fill="#512DA8" fill-opacity="0.25"/>
<path d="M163.5 174.274C164.852 174.274 165.947 173.179 165.947 171.827C165.947 170.476 164.852 169.38 163.5 169.38C162.148 169.38 161.053 170.476 161.053 171.827C161.053 173.179 162.148 174.274 163.5 174.274Z" fill="#512DA8" fill-opacity="0.25"/>
<path d="M185.511 174.274C186.862 174.274 187.958 173.179 187.958 171.827C187.958 170.476 186.862 169.38 185.511 169.38C184.159 169.38 183.063 170.476 183.063 171.827C183.063 173.179 184.159 174.274 185.511 174.274Z" fill="#512DA8" fill-opacity="0.25"/>
<path d="M207.521 174.274C208.873 174.274 209.968 173.179 209.968 171.827C209.968 170.476 208.873 169.38 207.521 169.38C206.17 169.38 205.074 170.476 205.074 171.827C205.074 173.179 206.17 174.274 207.521 174.274Z" fill="#512DA8" fill-opacity="0.25"/>
<path d="M229.532 174.274C230.883 174.274 231.979 173.179 231.979 171.827C231.979 170.476 230.883 169.38 229.532 169.38C228.18 169.38 227.084 170.476 227.084 171.827C227.084 173.179 228.18 174.274 229.532 174.274Z" fill="#512DA8" fill-opacity="0.25"/>
<path d="M251.542 174.274C252.894 174.274 253.989 173.179 253.989 171.827C253.989 170.476 252.894 169.38 251.542 169.38C250.191 169.38 249.095 170.476 249.095 171.827C249.095 173.179 250.191 174.274 251.542 174.274Z" fill="#512DA8" fill-opacity="0.25"/>
<path d="M273.553 174.274C274.904 174.274 276 173.179 276 171.827C276 170.476 274.904 169.38 273.553 169.38C272.201 169.38 271.106 170.476 271.106 171.827C271.106 173.179 272.201 174.274 273.553 174.274Z" fill="#512DA8" fill-opacity="0.25"/>
<path d="M55.8945 191.405C55.8945 192.752 54.7939 193.852 53.4472 193.852C52.1005 193.852 51 192.752 51 191.405C51 190.058 52.1005 188.958 53.4472 188.958C54.7939 188.958 55.8945 190.044 55.8945 191.405Z" fill="#512DA8" fill-opacity="0.25"/>
<path d="M77.905 191.405C77.905 192.752 76.8045 193.852 75.4578 193.852C74.1111 193.852 73.0106 192.752 73.0106 191.405C73.0106 190.058 74.1111 188.958 75.4578 188.958C76.8045 188.958 77.905 190.044 77.905 191.405Z" fill="#512DA8" fill-opacity="0.25"/>
<path d="M99.9156 191.405C99.9156 192.752 98.815 193.852 97.4683 193.852C96.1216 193.852 95.0211 192.752 95.0211 191.405C95.0211 190.058 96.1216 188.958 97.4683 188.958C98.815 188.958 99.9156 190.044 99.9156 191.405Z" fill="#512DA8" fill-opacity="0.25"/>
<path d="M121.926 191.405C121.926 192.752 120.826 193.852 119.479 193.852C118.132 193.852 117.032 192.752 117.032 191.405C117.032 190.058 118.132 188.958 119.479 188.958C120.826 188.958 121.926 190.044 121.926 191.405Z" fill="#512DA8" fill-opacity="0.25"/>
<path d="M143.937 191.405C143.937 192.752 142.836 193.852 141.489 193.852C140.143 193.852 139.042 192.752 139.042 191.405C139.042 190.058 140.143 188.958 141.489 188.958C142.836 188.958 143.937 190.044 143.937 191.405Z" fill="#512DA8" fill-opacity="0.25"/>
<path d="M165.947 191.405C165.947 192.752 164.847 193.852 163.5 193.852C162.153 193.852 161.053 192.752 161.053 191.405C161.053 190.058 162.153 188.958 163.5 188.958C164.847 188.958 165.947 190.044 165.947 191.405Z" fill="#512DA8" fill-opacity="0.25"/>
<path d="M187.958 191.405C187.958 192.752 186.857 193.852 185.511 193.852C184.164 193.852 183.063 192.752 183.063 191.405C183.063 190.058 184.164 188.958 185.511 188.958C186.857 188.958 187.958 190.044 187.958 191.405Z" fill="#512DA8" fill-opacity="0.25"/>
<path d="M209.968 191.405C209.968 192.752 208.868 193.852 207.521 193.852C206.174 193.852 205.074 192.752 205.074 191.405C205.074 190.058 206.174 188.958 207.521 188.958C208.868 188.958 209.968 190.044 209.968 191.405Z" fill="#512DA8" fill-opacity="0.25"/>
<path d="M231.979 191.405C231.979 192.752 230.878 193.852 229.532 193.852C228.185 193.852 227.084 192.752 227.084 191.405C227.084 190.058 228.185 188.958 229.532 188.958C230.878 188.958 231.979 190.044 231.979 191.405Z" fill="#512DA8" fill-opacity="0.25"/>
<path d="M253.989 191.405C253.989 192.752 252.889 193.852 251.542 193.852C250.196 193.852 249.095 192.752 249.095 191.405C249.095 190.058 250.196 188.958 251.542 188.958C252.889 188.958 253.989 190.044 253.989 191.405Z" fill="#512DA8" fill-opacity="0.25"/>
<path d="M276 191.405C276 192.752 274.899 193.852 273.553 193.852C272.206 193.852 271.106 192.752 271.106 191.405C271.106 190.058 272.206 188.958 273.553 188.958C274.899 188.958 276 190.044 276 191.405Z" fill="#512DA8" fill-opacity="0.25"/>
<path d="M55.8945 210.968C55.8945 212.315 54.7939 213.416 53.4472 213.416C52.1005 213.416 51 212.315 51 210.968C51 209.622 52.1005 208.521 53.4472 208.521C54.7939 208.521 55.8945 209.607 55.8945 210.968Z" fill="#512DA8" fill-opacity="0.25"/>
<path d="M77.905 210.968C77.905 212.315 76.8045 213.416 75.4578 213.416C74.1111 213.416 73.0106 212.315 73.0106 210.968C73.0106 209.622 74.1111 208.521 75.4578 208.521C76.8045 208.521 77.905 209.607 77.905 210.968Z" fill="#512DA8" fill-opacity="0.25"/>
<path d="M99.9156 210.968C99.9156 212.315 98.815 213.416 97.4683 213.416C96.1216 213.416 95.0211 212.315 95.0211 210.968C95.0211 209.622 96.1216 208.521 97.4683 208.521C98.815 208.521 99.9156 209.607 99.9156 210.968Z" fill="#512DA8" fill-opacity="0.25"/>
<path d="M121.926 210.968C121.926 212.315 120.826 213.416 119.479 213.416C118.132 213.416 117.032 212.315 117.032 210.968C117.032 209.622 118.132 208.521 119.479 208.521C120.826 208.521 121.926 209.607 121.926 210.968Z" fill="#512DA8" fill-opacity="0.25"/>
<path d="M143.937 210.968C143.937 212.315 142.836 213.416 141.489 213.416C140.143 213.416 139.042 212.315 139.042 210.968C139.042 209.622 140.143 208.521 141.489 208.521C142.836 208.521 143.937 209.607 143.937 210.968Z" fill="#512DA8" fill-opacity="0.25"/>
<path d="M165.947 210.968C165.947 212.315 164.847 213.416 163.5 213.416C162.153 213.416 161.053 212.315 161.053 210.968C161.053 209.622 162.153 208.521 163.5 208.521C164.847 208.521 165.947 209.607 165.947 210.968Z" fill="#512DA8" fill-opacity="0.25"/>
<path d="M187.958 210.968C187.958 212.315 186.857 213.416 185.511 213.416C184.164 213.416 183.063 212.315 183.063 210.968C183.063 209.622 184.164 208.521 185.511 208.521C186.857 208.521 187.958 209.607 187.958 210.968Z" fill="#512DA8" fill-opacity="0.25"/>
<path d="M209.968 210.968C209.968 212.315 208.868 213.416 207.521 213.416C206.174 213.416 205.074 212.315 205.074 210.968C205.074 209.622 206.174 208.521 207.521 208.521C208.868 208.521 209.968 209.607 209.968 210.968Z" fill="#512DA8" fill-opacity="0.25"/>
<path d="M231.979 210.968C231.979 212.315 230.878 213.416 229.532 213.416C228.185 213.416 227.084 212.315 227.084 210.968C227.084 209.622 228.185 208.521 229.532 208.521C230.878 208.521 231.979 209.607 231.979 210.968Z" fill="#512DA8" fill-opacity="0.25"/>
<path d="M253.989 210.968C253.989 212.315 252.889 213.416 251.542 213.416C250.196 213.416 249.095 212.315 249.095 210.968C249.095 209.622 250.196 208.521 251.542 208.521C252.889 208.521 253.989 209.607 253.989 210.968Z" fill="#512DA8" fill-opacity="0.25"/>
<path d="M276 210.968C276 212.315 274.899 213.416 273.553 213.416C272.206 213.416 271.106 212.315 271.106 210.968C271.106 209.622 272.206 208.521 273.553 208.521C274.899 208.521 276 209.607 276 210.968Z" fill="#512DA8" fill-opacity="0.25"/>
<path d="M55.8945 230.532C55.8945 231.878 54.7939 232.979 53.4472 232.979C52.1005 232.979 51 231.878 51 230.532C51 229.185 52.1005 228.084 53.4472 228.084C54.7939 228.084 55.8945 229.185 55.8945 230.532Z" fill="#512DA8" fill-opacity="0.25"/>
<path d="M77.905 230.532C77.905 231.878 76.8045 232.979 75.4578 232.979C74.1111 232.979 73.0106 231.878 73.0106 230.532C73.0106 229.185 74.1111 228.084 75.4578 228.084C76.8045 228.084 77.905 229.185 77.905 230.532Z" fill="#512DA8" fill-opacity="0.25"/>
<path d="M99.9156 230.532C99.9156 231.878 98.815 232.979 97.4683 232.979C96.1216 232.979 95.0211 231.878 95.0211 230.532C95.0211 229.185 96.1216 228.084 97.4683 228.084C98.815 228.084 99.9156 229.185 99.9156 230.532Z" fill="#512DA8" fill-opacity="0.25"/>
<path d="M121.926 230.532C121.926 231.878 120.826 232.979 119.479 232.979C118.132 232.979 117.032 231.878 117.032 230.532C117.032 229.185 118.132 228.084 119.479 228.084C120.826 228.084 121.926 229.185 121.926 230.532Z" fill="#512DA8" fill-opacity="0.25"/>
<path d="M143.937 230.532C143.937 231.878 142.836 232.979 141.489 232.979C140.143 232.979 139.042 231.878 139.042 230.532C139.042 229.185 140.143 228.084 141.489 228.084C142.836 228.084 143.937 229.185 143.937 230.532Z" fill="#512DA8" fill-opacity="0.25"/>
<path d="M165.947 230.532C165.947 231.878 164.847 232.979 163.5 232.979C162.153 232.979 161.053 231.878 161.053 230.532C161.053 229.185 162.153 228.084 163.5 228.084C164.847 228.084 165.947 229.185 165.947 230.532Z" fill="#512DA8" fill-opacity="0.25"/>
<path d="M187.958 230.532C187.958 231.878 186.857 232.979 185.511 232.979C184.164 232.979 183.063 231.878 183.063 230.532C183.063 229.185 184.164 228.084 185.511 228.084C186.857 228.084 187.958 229.185 187.958 230.532Z" fill="#512DA8" fill-opacity="0.25"/>
<path d="M209.968 230.532C209.968 231.878 208.868 232.979 207.521 232.979C206.174 232.979 205.074 231.878 205.074 230.532C205.074 229.185 206.174 228.084 207.521 228.084C208.868 228.084 209.968 229.185 209.968 230.532Z" fill="#512DA8" fill-opacity="0.25"/>
<path d="M231.979 230.532C231.979 231.878 230.878 232.979 229.532 232.979C228.185 232.979 227.084 231.878 227.084 230.532C227.084 229.185 228.185 228.084 229.532 228.084C230.878 228.084 231.979 229.185 231.979 230.532Z" fill="#512DA8" fill-opacity="0.25"/>
<path d="M253.989 230.532C253.989 231.878 252.889 232.979 251.542 232.979C250.196 232.979 249.095 231.878 249.095 230.532C249.095 229.185 250.196 228.084 251.542 228.084C252.889 228.084 253.989 229.185 253.989 230.532Z" fill="#512DA8" fill-opacity="0.25"/>
<path d="M276 230.532C276 231.878 274.899 232.979 273.553 232.979C272.206 232.979 271.106 231.878 271.106 230.532C271.106 229.185 272.206 228.084 273.553 228.084C274.899 228.084 276 229.185 276 230.532Z" fill="#512DA8" fill-opacity="0.25"/>
<path d="M53.4472 252.542C54.7988 252.542 55.8945 251.447 55.8945 250.095C55.8945 248.743 54.7988 247.648 53.4472 247.648C52.0957 247.648 51 248.743 51 250.095C51 251.447 52.0957 252.542 53.4472 252.542Z" fill="#512DA8" fill-opacity="0.25"/>
<path d="M75.4578 252.542C76.8093 252.542 77.905 251.447 77.905 250.095C77.905 248.743 76.8093 247.648 75.4578 247.648C74.1062 247.648 73.0106 248.743 73.0106 250.095C73.0106 251.447 74.1062 252.542 75.4578 252.542Z" fill="#512DA8" fill-opacity="0.25"/>
<path d="M97.4683 252.542C98.8199 252.542 99.9156 251.447 99.9156 250.095C99.9156 248.743 98.8199 247.648 97.4683 247.648C96.1168 247.648 95.0211 248.743 95.0211 250.095C95.0211 251.447 96.1168 252.542 97.4683 252.542Z" fill="#512DA8" fill-opacity="0.25"/>
<path d="M121.926 250.095C121.926 251.442 120.826 252.542 119.479 252.542C118.132 252.542 117.032 251.442 117.032 250.095C117.032 248.748 118.132 247.648 119.479 247.648C120.826 247.648 121.926 248.748 121.926 250.095Z" fill="#512DA8" fill-opacity="0.25"/>
<path d="M143.937 250.095C143.937 251.442 142.836 252.542 141.489 252.542C140.143 252.542 139.042 251.442 139.042 250.095C139.042 248.748 140.143 247.648 141.489 247.648C142.836 247.648 143.937 248.748 143.937 250.095Z" fill="#512DA8" fill-opacity="0.25"/>
<path d="M163.5 252.542C164.852 252.542 165.947 251.447 165.947 250.095C165.947 248.743 164.852 247.648 163.5 247.648C162.148 247.648 161.053 248.743 161.053 250.095C161.053 251.447 162.148 252.542 163.5 252.542Z" fill="#512DA8" fill-opacity="0.25"/>
<path d="M185.511 252.542C186.862 252.542 187.958 251.447 187.958 250.095C187.958 248.743 186.862 247.648 185.511 247.648C184.159 247.648 183.063 248.743 183.063 250.095C183.063 251.447 184.159 252.542 185.511 252.542Z" fill="#512DA8" fill-opacity="0.25"/>
<path d="M207.521 252.542C208.873 252.542 209.968 251.447 209.968 250.095C209.968 248.743 208.873 247.648 207.521 247.648C206.17 247.648 205.074 248.743 205.074 250.095C205.074 251.447 206.17 252.542 207.521 252.542Z" fill="#512DA8" fill-opacity="0.25"/>
<path d="M229.532 252.542C230.883 252.542 231.979 251.447 231.979 250.095C231.979 248.743 230.883 247.648 229.532 247.648C228.18 247.648 227.084 248.743 227.084 250.095C227.084 251.447 228.18 252.542 229.532 252.542Z" fill="#512DA8" fill-opacity="0.25"/>
<path d="M251.542 252.542C252.894 252.542 253.989 251.447 253.989 250.095C253.989 248.743 252.894 247.648 251.542 247.648C250.191 247.648 249.095 248.743 249.095 250.095C249.095 251.447 250.191 252.542 251.542 252.542Z" fill="#512DA8" fill-opacity="0.25"/>
<path d="M273.553 252.542C274.904 252.542 276 251.447 276 250.095C276 248.743 274.904 247.648 273.553 247.648C272.201 247.648 271.106 248.743 271.106 250.095C271.106 251.447 272.201 252.542 273.553 252.542Z" fill="#512DA8" fill-opacity="0.25"/>
<path d="M55.8945 269.658C55.8945 271.005 54.7939 272.106 53.4472 272.106C52.1005 272.106 51 271.005 51 269.658C51 268.312 52.1005 267.211 53.4472 267.211C54.7939 267.211 55.8945 268.312 55.8945 269.658Z" fill="#512DA8" fill-opacity="0.25"/>
<path d="M77.905 269.658C77.905 271.005 76.8045 272.106 75.4578 272.106C74.1111 272.106 73.0106 271.005 73.0106 269.658C73.0106 268.312 74.1111 267.211 75.4578 267.211C76.8045 267.211 77.905 268.312 77.905 269.658Z" fill="#512DA8" fill-opacity="0.25"/>
<path d="M99.9156 269.658C99.9156 271.005 98.815 272.106 97.4683 272.106C96.1216 272.106 95.0211 271.005 95.0211 269.658C95.0211 268.312 96.1216 267.211 97.4683 267.211C98.815 267.211 99.9156 268.312 99.9156 269.658Z" fill="#512DA8" fill-opacity="0.25"/>
<path d="M121.926 269.658C121.926 271.005 120.826 272.106 119.479 272.106C118.132 272.106 117.032 271.005 117.032 269.658C117.032 268.312 118.132 267.211 119.479 267.211C120.826 267.211 121.926 268.312 121.926 269.658Z" fill="#512DA8" fill-opacity="0.25"/>
<path d="M143.937 269.658C143.937 271.005 142.836 272.106 141.489 272.106C140.143 272.106 139.042 271.005 139.042 269.658C139.042 268.312 140.143 267.211 141.489 267.211C142.836 267.211 143.937 268.312 143.937 269.658Z" fill="#512DA8" fill-opacity="0.25"/>
<path d="M165.947 269.658C165.947 271.005 164.847 272.106 163.5 272.106C162.153 272.106 161.053 271.005 161.053 269.658C161.053 268.312 162.153 267.211 163.5 267.211C164.847 267.211 165.947 268.312 165.947 269.658Z" fill="#512DA8" fill-opacity="0.25"/>
<path d="M187.958 269.658C187.958 271.005 186.857 272.106 185.511 272.106C184.164 272.106 183.063 271.005 183.063 269.658C183.063 268.312 184.164 267.211 185.511 267.211C186.857 267.211 187.958 268.312 187.958 269.658Z" fill="#512DA8" fill-opacity="0.25"/>
<path d="M209.968 269.658C209.968 271.005 208.868 272.106 207.521 272.106C206.174 272.106 205.074 271.005 205.074 269.658C205.074 268.312 206.174 267.211 207.521 267.211C208.868 267.211 209.968 268.312 209.968 269.658Z" fill="#512DA8" fill-opacity="0.25"/>
<path d="M231.979 269.658C231.979 271.005 230.878 272.106 229.532 272.106C228.185 272.106 227.084 271.005 227.084 269.658C227.084 268.312 228.185 267.211 229.532 267.211C230.878 267.211 231.979 268.312 231.979 269.658Z" fill="#512DA8" fill-opacity="0.25"/>
<path d="M253.989 269.658C253.989 271.005 252.889 272.106 251.542 272.106C250.196 272.106 249.095 271.005 249.095 269.658C249.095 268.312 250.196 267.211 251.542 267.211C252.889 267.211 253.989 268.312 253.989 269.658Z" fill="#512DA8" fill-opacity="0.25"/>
<path d="M276 269.658C276 271.005 274.899 272.106 273.553 272.106C272.206 272.106 271.106 271.005 271.106 269.658C271.106 268.312 272.206 267.211 273.553 267.211C274.899 267.211 276 268.312 276 269.658Z" fill="#512DA8" fill-opacity="0.25"/>
<path d="M300.188 308.101C323.136 267.734 366.908 236.739 413.246 239.725C379.066 276.894 359.135 324.954 356.979 375.404C356.218 394.863 357.398 416.586 344.478 431.156C336.439 440.223 324.151 444.614 312.069 445.535C299.986 446.456 287.907 444.273 275.986 442.099L273.094 442.987C271.993 396.566 277.24 348.469 300.188 308.101Z" fill="#F0F0F0"/>
<path d="M413.315 240.697C379.049 257.192 349.831 284.742 331.895 318.34C328.017 325.604 324.716 333.31 323.276 341.458C321.835 349.61 322.841 357.369 325.625 365.112C328.171 372.19 331.594 379.135 332.375 386.708C333.197 394.691 330.26 402.155 324.973 408.079C318.504 415.327 309.816 419.818 301.168 423.915C291.566 428.464 281.52 433.037 274.719 441.527C273.895 442.555 272.347 441.216 273.17 440.189C285.003 425.418 305.257 422.642 319.303 410.743C325.857 405.191 330.777 397.63 330.467 388.771C330.195 381.024 326.671 373.859 324.032 366.715C321.261 359.213 319.879 351.67 320.873 343.672C321.889 335.491 324.896 327.64 328.572 320.308C336.86 303.775 348.202 288.596 361.195 275.474C376.128 260.391 393.532 247.974 412.652 238.76C413.835 238.19 414.49 240.131 413.315 240.697Z" fill="white"/>
<path d="M337.149 307.112C331.896 303.271 328.179 297.687 326.663 291.359C325.146 285.031 325.928 278.369 328.87 272.564C329.469 271.392 331.319 272.268 330.719 273.442C327.97 278.842 327.242 285.048 328.666 290.938C330.091 296.828 333.573 302.015 338.486 305.562C339.553 306.335 338.209 307.879 337.149 307.112Z" fill="white"/>
<path d="M323.862 361.693C337.025 359.769 348.98 352.956 357.342 342.61C358.169 341.584 359.718 342.922 358.891 343.947C350.169 354.697 337.714 361.762 324.012 363.734C322.706 363.921 322.563 361.879 323.862 361.693Z" fill="white"/>
<path d="M377.139 262.91C378.862 264.819 381.032 266.271 383.455 267.135C385.878 267.999 388.477 268.247 391.019 267.858C392.322 267.654 392.464 269.697 391.169 269.899C388.358 270.316 385.488 270.038 382.809 269.09C380.131 268.141 377.725 266.551 375.802 264.459C375.604 264.277 375.483 264.026 375.464 263.758C375.444 263.49 375.527 263.224 375.696 263.016C375.874 262.811 376.126 262.686 376.396 262.666C376.666 262.646 376.933 262.734 377.139 262.91Z" fill="white"/>
<path d="M505.443 367.069C504.633 367.219 503.823 367.369 503.005 367.535C492.125 369.61 481.431 372.566 471.029 376.374C470.22 376.655 469.405 376.953 468.606 377.257C443.643 386.697 420.651 400.689 400.796 418.523C392.902 425.627 385.56 433.32 378.833 441.538C369.544 452.887 360.375 465.932 348.237 473.332C346.979 474.118 345.674 474.826 344.329 475.451L274.401 446.446C274.276 446.3 274.142 446.17 274.016 446.024L271.171 444.994C271.488 444.546 271.827 444.088 272.144 443.64C272.327 443.379 272.526 443.125 272.709 442.864C272.836 442.692 272.963 442.521 273.068 442.359C273.11 442.301 273.153 442.244 273.188 442.203C273.293 442.041 273.408 441.901 273.506 441.755C275.392 439.19 277.3 436.634 279.229 434.087C279.236 434.071 279.236 434.071 279.258 434.062C294.006 414.692 310.5 396.384 329.249 381.161C329.813 380.703 330.383 380.229 330.98 379.784C339.469 372.969 348.501 366.86 357.985 361.516C363.188 358.607 368.535 355.963 374.005 353.595C388.151 347.502 403.168 343.672 418.504 342.246C449.077 339.407 480.217 346.377 503.666 365.584C504.265 366.075 504.85 366.561 505.443 367.069Z" fill="#F0F0F0"/>
<path d="M504.917 367.891C467.626 360.431 427.711 364.837 393.162 380.865C385.692 384.33 378.416 388.495 372.361 394.134C366.303 399.775 362.434 406.576 359.996 414.434C357.767 421.618 356.319 429.225 352.382 435.741C348.233 442.61 341.394 446.802 333.606 448.348C324.077 450.241 314.436 448.596 305.065 446.661C294.659 444.512 283.885 442.114 273.343 444.798C272.066 445.123 271.636 443.123 272.911 442.798C291.252 438.128 309.096 448.106 327.475 447.062C336.05 446.575 344.531 443.5 349.617 436.24C354.065 429.891 355.565 422.048 357.759 414.755C360.063 407.097 363.5 400.243 369.109 394.455C374.847 388.535 381.975 384.076 389.323 380.435C405.895 372.224 424.09 366.933 442.365 364.279C463.369 361.227 484.74 361.791 505.554 365.946C506.842 366.203 506.197 368.147 504.917 367.891Z" fill="white"/>
<path d="M404.117 375.062C402.235 368.833 402.629 362.137 405.228 356.171C407.828 350.206 412.463 345.358 418.306 342.494C419.491 341.919 420.441 343.732 419.255 344.308C413.808 346.965 409.491 351.481 407.082 357.041C404.673 362.602 404.331 368.84 406.117 374.631C406.504 375.889 404.501 376.314 404.117 375.062Z" fill="white"/>
<path d="M360.647 410.643C372.314 417.032 385.962 418.789 398.867 415.563C400.146 415.242 400.576 417.243 399.299 417.564C385.863 420.896 371.665 419.038 359.537 412.363C358.382 411.726 359.497 410.009 360.647 410.643Z" fill="white"/>
<path d="M462.66 363.847C462.886 366.409 463.744 368.875 465.159 371.023C466.573 373.171 468.499 374.934 470.763 376.154C471.926 376.776 470.809 378.492 469.654 377.874C467.158 376.515 465.034 374.565 463.466 372.195C461.898 369.825 460.935 367.107 460.659 364.278C460.611 364.014 460.665 363.741 460.811 363.515C460.957 363.289 461.183 363.127 461.444 363.062C461.709 363.007 461.985 363.058 462.213 363.204C462.441 363.351 462.601 363.582 462.66 363.847Z" fill="white"/>
<path d="M372.236 414.921C362.443 367.569 350.202 351.782 350.202 351.782L345.525 348.156L339.901 343.787L339.928 343.226L338.594 342.772L338.281 342.529L337.768 342.135L337.685 342.223L337.511 342.404L312.062 333.754L279.776 322.787L264.825 303.354C262.39 300.189 259.255 297.631 255.666 295.881C252.077 294.13 248.132 293.234 244.139 293.264L196.392 293.617C189.936 293.665 183.731 296.126 178.998 300.517L147.614 329.627L98.7126 352.982L98.63 352.9L98.1165 353.266L90.5608 356.879L90.8726 358.502L86.1961 361.877C86.1961 361.877 73.9547 376.566 64.1615 420.626C61.6702 431.837 60.4439 455.886 60.0013 485.521C59.9791 487.02 60.2551 488.508 60.8133 489.9C61.3715 491.291 62.2008 492.558 63.2529 493.626C64.305 494.694 65.5589 495.543 66.9418 496.122C68.3247 496.701 69.8089 497 71.3082 497H332.501L365.101 497C366.599 496.999 368.083 496.701 369.465 496.122C370.847 495.544 372.1 494.697 373.152 493.63C374.204 492.563 375.033 491.298 375.592 489.908C376.151 488.518 376.429 487.03 376.408 485.532C375.976 453.285 374.75 427.079 372.236 414.921Z" fill="#3F3D56"/>
<path d="M405.748 93.2943C395.586 93.2943 385.841 97.3311 378.655 104.517C371.469 111.702 367.433 121.448 367.433 131.61C367.433 141.772 371.469 151.518 378.655 158.703C385.841 165.889 395.586 169.926 405.748 169.926H691.291C701.453 169.926 711.198 165.889 718.384 158.703C725.569 151.518 729.606 141.772 729.606 131.61C729.606 121.448 725.569 111.702 718.384 104.517C711.198 97.3311 701.453 93.2943 691.291 93.2943H405.748Z" fill="#E5E5E5"/>
<path d="M405.748 101.049C397.643 101.049 389.87 104.268 384.138 110C378.407 115.731 375.187 123.505 375.187 131.61C375.187 139.715 378.407 147.489 384.138 153.22C389.87 158.951 397.643 162.171 405.748 162.171H691.291C699.396 162.171 707.169 158.951 712.901 153.22C718.632 147.489 721.852 139.715 721.852 131.61C721.852 123.505 718.632 115.731 712.901 110C707.169 104.268 699.396 101.049 691.291 101.049H405.748Z" fill="white"/>
<path d="M227.763 275.326C262.311 275.326 290.317 247.32 290.317 212.773C290.317 178.225 262.311 150.219 227.763 150.219C193.216 150.219 165.21 178.225 165.21 212.773C165.21 247.32 193.216 275.326 227.763 275.326Z" fill="#9E616A"/>
<path d="M211.761 272.263C211.494 271.675 211.227 271.085 210.961 270.492C211.064 270.495 211.165 270.51 211.268 270.513L211.761 272.263Z" fill="#2F2E41"/>
<path d="M163.47 153.064C166.634 150.54 170.332 148.218 174.377 148.348C178.422 148.479 182.524 152.132 181.686 156.091C189.115 142.936 200.941 132.819 215.088 127.514C229.234 122.21 244.797 122.057 259.045 127.084C269.098 130.631 278.957 137.727 281.266 148.134C281.859 150.806 281.987 153.736 283.655 155.905C285.758 158.64 289.782 159.259 293.096 158.297C293.129 158.287 293.162 158.278 293.195 158.268C293.755 158.076 294.359 158.058 294.93 158.214C295.5 158.37 296.011 158.693 296.395 159.143C296.78 159.592 297.021 160.147 297.087 160.734C297.153 161.322 297.041 161.916 296.766 162.44L293.922 167.745C297.507 168.544 301.233 168.465 304.782 167.514C305.371 167.359 305.994 167.391 306.565 167.604C307.136 167.818 307.627 168.203 307.97 168.706C308.314 169.209 308.493 169.807 308.484 170.416C308.474 171.025 308.277 171.617 307.918 172.109C298.538 184.987 282.867 193.303 266.876 193.205C255.51 193.136 244.028 189.219 232.966 191.833C228.687 192.844 224.689 194.8 221.264 197.558C217.84 200.316 215.076 203.806 213.176 207.771C211.276 211.737 210.288 216.077 210.284 220.474C210.281 224.871 211.262 229.213 213.155 233.182C209.757 229.465 203.188 230.345 199.712 233.989C196.236 237.634 195.336 243.073 195.686 248.097C196.222 255.781 199.233 263.021 202.406 270.068C175.797 269.23 150.629 250.564 142.157 225.318C133.65 199.965 142.566 169.74 163.47 153.064Z" fill="#2F2E41"/>
<path opacity="0.2" d="M121.569 400.625L139.114 496.083L149.641 497L121.569 400.625Z" fill="black"/>
<path opacity="0.2" d="M314.829 393.426L297.284 496.014L286.757 497L314.829 393.426Z" fill="black"/>
<path d="M178.435 120.938C175.071 122.342 171.561 120.803 170.088 117.277C168.594 113.698 169.99 110.065 173.408 108.637C176.826 107.21 180.274 108.753 181.792 112.39C183.288 115.973 181.907 119.488 178.435 120.938ZM171.991 101.592L169.316 102.709C168.648 102.985 167.9 103 167.222 102.751C166.543 102.502 165.983 102.007 165.651 101.365L165.519 101.106C162.641 95.9157 162.311 89.6076 164.545 82.3667C166.614 75.8713 167.473 71.3031 165.745 67.1646C163.747 62.3797 159.48 60.8808 154.039 63.0521C151.929 63.9332 151.258 63.9192 149.597 65.5665C149.236 65.9292 148.805 66.2154 148.331 66.4082C147.857 66.6009 147.349 66.6961 146.837 66.6882C146.342 66.6824 145.854 66.577 145.4 66.3783C144.947 66.1796 144.539 65.8916 144.199 65.5316C143.545 64.8379 143.179 63.9218 143.174 62.9683C143.169 62.0149 143.526 61.0951 144.173 60.3948C146.965 57.4729 150.331 55.1614 154.061 53.606C165.75 48.7247 171.635 55.9312 174.328 62.3804C176.962 68.6884 175.48 74.5411 173.1 82.121C171.105 88.4195 171.221 93.0866 173.487 97.7271C173.651 98.0779 173.742 98.4582 173.755 98.8451C173.768 99.2319 173.702 99.6175 173.563 99.9785C173.423 100.339 173.212 100.668 172.941 100.946C172.671 101.223 172.348 101.443 171.991 101.592Z" fill="#0288D1"/>
<path d="M468.821 149.884H412.008C411.828 149.885 411.649 149.851 411.482 149.782C411.315 149.714 411.163 149.614 411.035 149.486C410.907 149.359 410.805 149.208 410.736 149.041C410.666 148.875 410.631 148.696 410.631 148.515C410.631 148.335 410.666 148.156 410.736 147.99C410.805 147.823 410.907 147.672 411.035 147.544C411.163 147.417 411.315 147.317 411.482 147.248C411.649 147.18 411.828 147.146 412.008 147.147H468.821C469.182 147.149 469.528 147.295 469.782 147.551C470.037 147.807 470.18 148.154 470.18 148.515C470.18 148.877 470.037 149.223 469.782 149.48C469.528 149.736 469.182 149.881 468.821 149.884Z" fill="#0288D1"/>
<path d="M540.891 150.34H484.078C483.898 150.341 483.719 150.307 483.552 150.238C483.385 150.17 483.233 150.07 483.105 149.942C482.977 149.815 482.875 149.664 482.806 149.497C482.736 149.331 482.701 149.152 482.701 148.972C482.701 148.791 482.736 148.612 482.806 148.446C482.875 148.279 482.977 148.128 483.105 148.001C483.233 147.873 483.385 147.773 483.552 147.705C483.719 147.636 483.898 147.602 484.078 147.603H540.891C541.071 147.602 541.25 147.636 541.417 147.705C541.584 147.773 541.736 147.873 541.864 148.001C541.992 148.128 542.094 148.279 542.163 148.446C542.233 148.612 542.268 148.791 542.268 148.972C542.268 149.152 542.233 149.331 542.163 149.497C542.094 149.664 541.992 149.815 541.864 149.942C541.736 150.07 541.584 150.17 541.417 150.238C541.25 150.307 541.071 150.341 540.891 150.34Z" fill="#0288D1"/>
<path d="M612.961 150.796H556.148C555.787 150.794 555.441 150.648 555.187 150.392C554.932 150.136 554.789 149.789 554.789 149.428C554.789 149.066 554.932 148.72 555.187 148.463C555.441 148.207 555.787 148.062 556.148 148.059H612.961C613.141 148.058 613.32 148.092 613.487 148.161C613.654 148.229 613.806 148.33 613.934 148.457C614.062 148.584 614.164 148.735 614.233 148.902C614.303 149.068 614.338 149.247 614.338 149.428C614.338 149.608 614.303 149.787 614.233 149.953C614.164 150.12 614.062 150.271 613.934 150.399C613.806 150.526 613.654 150.626 613.487 150.695C613.32 150.763 613.141 150.797 612.961 150.796Z" fill="#0288D1"/>
<path d="M685.03 151.252H628.218C627.857 151.25 627.511 151.104 627.256 150.848C627.002 150.592 626.859 150.245 626.859 149.884C626.859 149.522 627.002 149.176 627.256 148.919C627.511 148.663 627.857 148.518 628.218 148.515H685.03C685.392 148.518 685.737 148.663 685.992 148.919C686.247 149.176 686.389 149.522 686.389 149.884C686.389 150.245 686.247 150.592 685.992 150.848C685.737 151.104 685.392 151.25 685.03 151.252Z" fill="#0288D1"/>
<path d="M440.29 137.29C446.121 137.29 450.849 132.563 450.849 126.731C450.849 120.9 446.121 116.172 440.29 116.172C434.458 116.172 429.731 120.9 429.731 126.731C429.731 132.563 434.458 137.29 440.29 137.29Z" fill="#0288D1"/>
<path d="M512.795 137.29C518.626 137.29 523.354 132.563 523.354 126.731C523.354 120.9 518.626 116.172 512.795 116.172C506.963 116.172 502.236 120.9 502.236 126.731C502.236 132.563 506.963 137.29 512.795 137.29Z" fill="#0288D1"/>
<path d="M585.3 137.29C591.132 137.29 595.859 132.563 595.859 126.731C595.859 120.9 591.132 116.172 585.3 116.172C579.468 116.172 574.741 120.9 574.741 126.731C574.741 132.563 579.468 137.29 585.3 137.29Z" fill="#0288D1"/>
<path d="M657.805 137.29C663.637 137.29 668.364 132.563 668.364 126.731C668.364 120.9 663.637 116.172 657.805 116.172C651.974 116.172 647.246 120.9 647.246 126.731C647.246 132.563 651.974 137.29 657.805 137.29Z" fill="#0288D1"/>
<path d="M376.5 496.5H61V319.5" stroke="#3F3D56" stroke-width="4"/>
</svg>
