<svg width="790" height="550" viewBox="0 0 790 550" fill="none" xmlns="http://www.w3.org/2000/svg">
<path d="M78.4472 64.8944C79.7988 64.8944 80.8945 63.7988 80.8945 62.4472C80.8945 61.0956 79.7988 60 78.4472 60C77.0957 60 76 61.0956 76 62.4472C76 63.7988 77.0957 64.8944 78.4472 64.8944Z" fill="#512DA8" fill-opacity="0.25"/>
<path d="M100.458 64.8944C101.809 64.8944 102.905 63.7988 102.905 62.4472C102.905 61.0956 101.809 60 100.458 60C99.1062 60 98.0106 61.0956 98.0106 62.4472C98.0106 63.7988 99.1062 64.8944 100.458 64.8944Z" fill="#512DA8" fill-opacity="0.25"/>
<path d="M122.468 64.8944C123.82 64.8944 124.916 63.7988 124.916 62.4472C124.916 61.0956 123.82 60 122.468 60C121.117 60 120.021 61.0956 120.021 62.4472C120.021 63.7988 121.117 64.8944 122.468 64.8944Z" fill="#512DA8" fill-opacity="0.25"/>
<path d="M146.926 62.4472C146.926 63.7939 145.826 64.8944 144.479 64.8944C143.132 64.8944 142.032 63.7939 142.032 62.4472C142.032 61.1005 143.132 60 144.479 60C145.826 60 146.926 61.1005 146.926 62.4472Z" fill="#512DA8" fill-opacity="0.25"/>
<path d="M168.937 62.4472C168.937 63.7939 167.836 64.8944 166.489 64.8944C165.143 64.8944 164.042 63.7939 164.042 62.4472C164.042 61.1005 165.143 60 166.489 60C167.836 60 168.937 61.1005 168.937 62.4472Z" fill="#512DA8" fill-opacity="0.25"/>
<path d="M188.5 64.8944C189.852 64.8944 190.947 63.7988 190.947 62.4472C190.947 61.0956 189.852 60 188.5 60C187.148 60 186.053 61.0956 186.053 62.4472C186.053 63.7988 187.148 64.8944 188.5 64.8944Z" fill="#512DA8" fill-opacity="0.25"/>
<path d="M210.511 64.8944C211.862 64.8944 212.958 63.7988 212.958 62.4472C212.958 61.0956 211.862 60 210.511 60C209.159 60 208.063 61.0956 208.063 62.4472C208.063 63.7988 209.159 64.8944 210.511 64.8944Z" fill="#512DA8" fill-opacity="0.25"/>
<path d="M232.521 64.8944C233.873 64.8944 234.968 63.7988 234.968 62.4472C234.968 61.0956 233.873 60 232.521 60C231.17 60 230.074 61.0956 230.074 62.4472C230.074 63.7988 231.17 64.8944 232.521 64.8944Z" fill="#512DA8" fill-opacity="0.25"/>
<path d="M254.532 64.8944C255.883 64.8944 256.979 63.7988 256.979 62.4472C256.979 61.0956 255.883 60 254.532 60C253.18 60 252.084 61.0956 252.084 62.4472C252.084 63.7988 253.18 64.8944 254.532 64.8944Z" fill="#512DA8" fill-opacity="0.25"/>
<path d="M276.542 64.8944C277.894 64.8944 278.989 63.7988 278.989 62.4472C278.989 61.0956 277.894 60 276.542 60C275.191 60 274.095 61.0956 274.095 62.4472C274.095 63.7988 275.191 64.8944 276.542 64.8944Z" fill="#512DA8" fill-opacity="0.25"/>
<path d="M298.553 64.8944C299.904 64.8944 301 63.7988 301 62.4472C301 61.0956 299.904 60 298.553 60C297.201 60 296.106 61.0956 296.106 62.4472C296.106 63.7988 297.201 64.8944 298.553 64.8944Z" fill="#512DA8" fill-opacity="0.25"/>
<path d="M78.4472 84.4578C79.7988 84.4578 80.8945 83.3621 80.8945 82.0106C80.8945 80.659 79.7988 79.5634 78.4472 79.5634C77.0957 79.5634 76 80.659 76 82.0106C76 83.3621 77.0957 84.4578 78.4472 84.4578Z" fill="#512DA8" fill-opacity="0.25"/>
<path d="M100.458 84.4578C101.809 84.4578 102.905 83.3621 102.905 82.0106C102.905 80.659 101.809 79.5634 100.458 79.5634C99.1062 79.5634 98.0106 80.659 98.0106 82.0106C98.0106 83.3621 99.1062 84.4578 100.458 84.4578Z" fill="#512DA8" fill-opacity="0.25"/>
<path d="M122.468 84.4578C123.82 84.4578 124.916 83.3621 124.916 82.0106C124.916 80.659 123.82 79.5634 122.468 79.5634C121.117 79.5634 120.021 80.659 120.021 82.0106C120.021 83.3621 121.117 84.4578 122.468 84.4578Z" fill="#512DA8" fill-opacity="0.25"/>
<path d="M146.926 82.0106C146.926 83.3573 145.826 84.4578 144.479 84.4578C143.132 84.4578 142.032 83.3573 142.032 82.0106C142.032 80.6639 143.132 79.5634 144.479 79.5634C145.826 79.5634 146.926 80.6639 146.926 82.0106Z" fill="#512DA8" fill-opacity="0.25"/>
<path d="M168.937 82.0106C168.937 83.3573 167.836 84.4578 166.489 84.4578C165.143 84.4578 164.042 83.3573 164.042 82.0106C164.042 80.6639 165.143 79.5634 166.489 79.5634C167.836 79.5634 168.937 80.6639 168.937 82.0106Z" fill="#512DA8" fill-opacity="0.25"/>
<path d="M188.5 84.4578C189.852 84.4578 190.947 83.3621 190.947 82.0106C190.947 80.659 189.852 79.5634 188.5 79.5634C187.148 79.5634 186.053 80.659 186.053 82.0106C186.053 83.3621 187.148 84.4578 188.5 84.4578Z" fill="#512DA8" fill-opacity="0.25"/>
<path d="M210.511 84.4578C211.862 84.4578 212.958 83.3621 212.958 82.0106C212.958 80.659 211.862 79.5634 210.511 79.5634C209.159 79.5634 208.063 80.659 208.063 82.0106C208.063 83.3621 209.159 84.4578 210.511 84.4578Z" fill="#512DA8" fill-opacity="0.25"/>
<path d="M232.521 84.4578C233.873 84.4578 234.968 83.3621 234.968 82.0106C234.968 80.659 233.873 79.5634 232.521 79.5634C231.17 79.5634 230.074 80.659 230.074 82.0106C230.074 83.3621 231.17 84.4578 232.521 84.4578Z" fill="#512DA8" fill-opacity="0.25"/>
<path d="M254.532 84.4578C255.883 84.4578 256.979 83.3621 256.979 82.0106C256.979 80.659 255.883 79.5634 254.532 79.5634C253.18 79.5634 252.084 80.659 252.084 82.0106C252.084 83.3621 253.18 84.4578 254.532 84.4578Z" fill="#512DA8" fill-opacity="0.25"/>
<path d="M276.542 84.4578C277.894 84.4578 278.989 83.3621 278.989 82.0106C278.989 80.659 277.894 79.5634 276.542 79.5634C275.191 79.5634 274.095 80.659 274.095 82.0106C274.095 83.3621 275.191 84.4578 276.542 84.4578Z" fill="#512DA8" fill-opacity="0.25"/>
<path d="M298.553 84.4578C299.904 84.4578 301 83.3621 301 82.0106C301 80.659 299.904 79.5634 298.553 79.5634C297.201 79.5634 296.106 80.659 296.106 82.0106C296.106 83.3621 297.201 84.4578 298.553 84.4578Z" fill="#512DA8" fill-opacity="0.25"/>
<path d="M78.4472 104.021C79.7988 104.021 80.8945 102.926 80.8945 101.574C80.8945 100.222 79.7988 99.1267 78.4472 99.1267C77.0957 99.1267 76 100.222 76 101.574C76 102.926 77.0957 104.021 78.4472 104.021Z" fill="#512DA8" fill-opacity="0.25"/>
<path d="M100.458 104.021C101.809 104.021 102.905 102.926 102.905 101.574C102.905 100.222 101.809 99.1267 100.458 99.1267C99.1062 99.1267 98.0106 100.222 98.0106 101.574C98.0106 102.926 99.1062 104.021 100.458 104.021Z" fill="#512DA8" fill-opacity="0.25"/>
<path d="M122.468 104.021C123.82 104.021 124.916 102.926 124.916 101.574C124.916 100.222 123.82 99.1267 122.468 99.1267C121.117 99.1267 120.021 100.222 120.021 101.574C120.021 102.926 121.117 104.021 122.468 104.021Z" fill="#512DA8" fill-opacity="0.25"/>
<path d="M146.926 101.574C146.926 102.921 145.826 104.021 144.479 104.021C143.132 104.021 142.032 102.921 142.032 101.574C142.032 100.227 143.132 99.1267 144.479 99.1267C145.826 99.1267 146.926 100.227 146.926 101.574Z" fill="#512DA8" fill-opacity="0.25"/>
<path d="M168.937 101.574C168.937 102.921 167.836 104.021 166.489 104.021C165.143 104.021 164.042 102.921 164.042 101.574C164.042 100.227 165.143 99.1267 166.489 99.1267C167.836 99.1267 168.937 100.227 168.937 101.574Z" fill="#512DA8" fill-opacity="0.25"/>
<path d="M188.5 104.021C189.852 104.021 190.947 102.926 190.947 101.574C190.947 100.222 189.852 99.1267 188.5 99.1267C187.148 99.1267 186.053 100.222 186.053 101.574C186.053 102.926 187.148 104.021 188.5 104.021Z" fill="#512DA8" fill-opacity="0.25"/>
<path d="M210.511 104.021C211.862 104.021 212.958 102.926 212.958 101.574C212.958 100.222 211.862 99.1267 210.511 99.1267C209.159 99.1267 208.063 100.222 208.063 101.574C208.063 102.926 209.159 104.021 210.511 104.021Z" fill="#512DA8" fill-opacity="0.25"/>
<path d="M232.521 104.021C233.873 104.021 234.968 102.926 234.968 101.574C234.968 100.222 233.873 99.1267 232.521 99.1267C231.17 99.1267 230.074 100.222 230.074 101.574C230.074 102.926 231.17 104.021 232.521 104.021Z" fill="#512DA8" fill-opacity="0.25"/>
<path d="M254.532 104.021C255.883 104.021 256.979 102.926 256.979 101.574C256.979 100.222 255.883 99.1267 254.532 99.1267C253.18 99.1267 252.084 100.222 252.084 101.574C252.084 102.926 253.18 104.021 254.532 104.021Z" fill="#512DA8" fill-opacity="0.25"/>
<path d="M276.542 104.021C277.894 104.021 278.989 102.926 278.989 101.574C278.989 100.222 277.894 99.1267 276.542 99.1267C275.191 99.1267 274.095 100.222 274.095 101.574C274.095 102.926 275.191 104.021 276.542 104.021Z" fill="#512DA8" fill-opacity="0.25"/>
<path d="M298.553 104.021C299.904 104.021 301 102.926 301 101.574C301 100.222 299.904 99.1267 298.553 99.1267C297.201 99.1267 296.106 100.222 296.106 101.574C296.106 102.926 297.201 104.021 298.553 104.021Z" fill="#512DA8" fill-opacity="0.25"/>
<path d="M80.8945 121.137C80.8945 122.484 79.7939 123.584 78.4472 123.584C77.1005 123.584 76 122.484 76 121.137C76 119.791 77.1005 118.69 78.4472 118.69C79.7939 118.69 80.8945 119.791 80.8945 121.137Z" fill="#512DA8" fill-opacity="0.25"/>
<path d="M102.905 121.137C102.905 122.484 101.804 123.584 100.458 123.584C99.1111 123.584 98.0106 122.484 98.0106 121.137C98.0106 119.791 99.1111 118.69 100.458 118.69C101.804 118.69 102.905 119.791 102.905 121.137Z" fill="#512DA8" fill-opacity="0.25"/>
<path d="M124.916 121.137C124.916 122.484 123.815 123.584 122.468 123.584C121.122 123.584 120.021 122.484 120.021 121.137C120.021 119.791 121.122 118.69 122.468 118.69C123.815 118.69 124.916 119.791 124.916 121.137Z" fill="#512DA8" fill-opacity="0.25"/>
<path d="M146.926 121.137C146.926 122.484 145.826 123.584 144.479 123.584C143.132 123.584 142.032 122.484 142.032 121.137C142.032 119.791 143.132 118.69 144.479 118.69C145.826 118.69 146.926 119.791 146.926 121.137Z" fill="#512DA8" fill-opacity="0.25"/>
<path d="M168.937 121.137C168.937 122.484 167.836 123.584 166.489 123.584C165.143 123.584 164.042 122.484 164.042 121.137C164.042 119.791 165.143 118.69 166.489 118.69C167.836 118.69 168.937 119.791 168.937 121.137Z" fill="#512DA8" fill-opacity="0.25"/>
<path d="M190.947 121.137C190.947 122.484 189.847 123.584 188.5 123.584C187.153 123.584 186.053 122.484 186.053 121.137C186.053 119.791 187.153 118.69 188.5 118.69C189.847 118.69 190.947 119.791 190.947 121.137Z" fill="#512DA8" fill-opacity="0.25"/>
<path d="M212.958 121.137C212.958 122.484 211.857 123.584 210.511 123.584C209.164 123.584 208.063 122.484 208.063 121.137C208.063 119.791 209.164 118.69 210.511 118.69C211.857 118.69 212.958 119.791 212.958 121.137Z" fill="#512DA8" fill-opacity="0.25"/>
<path d="M234.968 121.137C234.968 122.484 233.868 123.584 232.521 123.584C231.174 123.584 230.074 122.484 230.074 121.137C230.074 119.791 231.174 118.69 232.521 118.69C233.868 118.69 234.968 119.791 234.968 121.137Z" fill="#512DA8" fill-opacity="0.25"/>
<path d="M256.979 121.137C256.979 122.484 255.878 123.584 254.532 123.584C253.185 123.584 252.084 122.484 252.084 121.137C252.084 119.791 253.185 118.69 254.532 118.69C255.878 118.69 256.979 119.791 256.979 121.137Z" fill="#512DA8" fill-opacity="0.25"/>
<path d="M278.989 121.137C278.989 122.484 277.889 123.584 276.542 123.584C275.196 123.584 274.095 122.484 274.095 121.137C274.095 119.791 275.196 118.69 276.542 118.69C277.889 118.69 278.989 119.791 278.989 121.137Z" fill="#512DA8" fill-opacity="0.25"/>
<path d="M301 121.137C301 122.484 299.899 123.584 298.553 123.584C297.206 123.584 296.106 122.484 296.106 121.137C296.106 119.791 297.206 118.69 298.553 118.69C299.899 118.69 301 119.791 301 121.137Z" fill="#512DA8" fill-opacity="0.25"/>
<path d="M80.8945 140.701C80.8945 142.047 79.7939 143.148 78.4472 143.148C77.1005 143.148 76 142.047 76 140.701C76 139.354 77.1005 138.253 78.4472 138.253C79.7939 138.253 80.8945 139.354 80.8945 140.701Z" fill="#512DA8" fill-opacity="0.25"/>
<path d="M102.905 140.701C102.905 142.047 101.804 143.148 100.458 143.148C99.1111 143.148 98.0106 142.047 98.0106 140.701C98.0106 139.354 99.1111 138.253 100.458 138.253C101.804 138.253 102.905 139.354 102.905 140.701Z" fill="#512DA8" fill-opacity="0.25"/>
<path d="M124.916 140.701C124.916 142.047 123.815 143.148 122.468 143.148C121.122 143.148 120.021 142.047 120.021 140.701C120.021 139.354 121.122 138.253 122.468 138.253C123.815 138.253 124.916 139.354 124.916 140.701Z" fill="#512DA8" fill-opacity="0.25"/>
<path d="M146.926 140.701C146.926 142.047 145.826 143.148 144.479 143.148C143.132 143.148 142.032 142.047 142.032 140.701C142.032 139.354 143.132 138.253 144.479 138.253C145.826 138.253 146.926 139.354 146.926 140.701Z" fill="#512DA8" fill-opacity="0.25"/>
<path d="M168.937 140.701C168.937 142.047 167.836 143.148 166.489 143.148C165.143 143.148 164.042 142.047 164.042 140.701C164.042 139.354 165.143 138.253 166.489 138.253C167.836 138.253 168.937 139.354 168.937 140.701Z" fill="#512DA8" fill-opacity="0.25"/>
<path d="M190.947 140.701C190.947 142.047 189.847 143.148 188.5 143.148C187.153 143.148 186.053 142.047 186.053 140.701C186.053 139.354 187.153 138.253 188.5 138.253C189.847 138.253 190.947 139.354 190.947 140.701Z" fill="#512DA8" fill-opacity="0.25"/>
<path d="M212.958 140.701C212.958 142.047 211.857 143.148 210.511 143.148C209.164 143.148 208.063 142.047 208.063 140.701C208.063 139.354 209.164 138.253 210.511 138.253C211.857 138.253 212.958 139.354 212.958 140.701Z" fill="#512DA8" fill-opacity="0.25"/>
<path d="M234.968 140.701C234.968 142.047 233.868 143.148 232.521 143.148C231.174 143.148 230.074 142.047 230.074 140.701C230.074 139.354 231.174 138.253 232.521 138.253C233.868 138.253 234.968 139.354 234.968 140.701Z" fill="#512DA8" fill-opacity="0.25"/>
<path d="M256.979 140.701C256.979 142.047 255.878 143.148 254.532 143.148C253.185 143.148 252.084 142.047 252.084 140.701C252.084 139.354 253.185 138.253 254.532 138.253C255.878 138.253 256.979 139.354 256.979 140.701Z" fill="#512DA8" fill-opacity="0.25"/>
<path d="M278.989 140.701C278.989 142.047 277.889 143.148 276.542 143.148C275.196 143.148 274.095 142.047 274.095 140.701C274.095 139.354 275.196 138.253 276.542 138.253C277.889 138.253 278.989 139.354 278.989 140.701Z" fill="#512DA8" fill-opacity="0.25"/>
<path d="M301 140.701C301 142.047 299.899 143.148 298.553 143.148C297.206 143.148 296.106 142.047 296.106 140.701C296.106 139.354 297.206 138.253 298.553 138.253C299.899 138.253 301 139.354 301 140.701Z" fill="#512DA8" fill-opacity="0.25"/>
<path d="M80.8945 160.264C80.8945 161.611 79.7939 162.711 78.4472 162.711C77.1005 162.711 76 161.611 76 160.264C76 158.917 77.1005 157.817 78.4472 157.817C79.7939 157.817 80.8945 158.917 80.8945 160.264Z" fill="#512DA8" fill-opacity="0.25"/>
<path d="M102.905 160.264C102.905 161.611 101.804 162.711 100.458 162.711C99.1111 162.711 98.0106 161.611 98.0106 160.264C98.0106 158.917 99.1111 157.817 100.458 157.817C101.804 157.817 102.905 158.917 102.905 160.264Z" fill="#512DA8" fill-opacity="0.25"/>
<path d="M124.916 160.264C124.916 161.611 123.815 162.711 122.468 162.711C121.122 162.711 120.021 161.611 120.021 160.264C120.021 158.917 121.122 157.817 122.468 157.817C123.815 157.817 124.916 158.917 124.916 160.264Z" fill="#512DA8" fill-opacity="0.25"/>
<path d="M146.926 160.264C146.926 161.611 145.826 162.711 144.479 162.711C143.132 162.711 142.032 161.611 142.032 160.264C142.032 158.917 143.132 157.817 144.479 157.817C145.826 157.817 146.926 158.917 146.926 160.264Z" fill="#512DA8" fill-opacity="0.25"/>
<path d="M168.937 160.264C168.937 161.611 167.836 162.711 166.489 162.711C165.143 162.711 164.042 161.611 164.042 160.264C164.042 158.917 165.143 157.817 166.489 157.817C167.836 157.817 168.937 158.917 168.937 160.264Z" fill="#512DA8" fill-opacity="0.25"/>
<path d="M190.947 160.264C190.947 161.611 189.847 162.711 188.5 162.711C187.153 162.711 186.053 161.611 186.053 160.264C186.053 158.917 187.153 157.817 188.5 157.817C189.847 157.817 190.947 158.917 190.947 160.264Z" fill="#512DA8" fill-opacity="0.25"/>
<path d="M212.958 160.264C212.958 161.611 211.857 162.711 210.511 162.711C209.164 162.711 208.063 161.611 208.063 160.264C208.063 158.917 209.164 157.817 210.511 157.817C211.857 157.817 212.958 158.917 212.958 160.264Z" fill="#512DA8" fill-opacity="0.25"/>
<path d="M234.968 160.264C234.968 161.611 233.868 162.711 232.521 162.711C231.174 162.711 230.074 161.611 230.074 160.264C230.074 158.917 231.174 157.817 232.521 157.817C233.868 157.817 234.968 158.917 234.968 160.264Z" fill="#512DA8" fill-opacity="0.25"/>
<path d="M256.979 160.264C256.979 161.611 255.878 162.711 254.532 162.711C253.185 162.711 252.084 161.611 252.084 160.264C252.084 158.917 253.185 157.817 254.532 157.817C255.878 157.817 256.979 158.917 256.979 160.264Z" fill="#512DA8" fill-opacity="0.25"/>
<path d="M278.989 160.264C278.989 161.611 277.889 162.711 276.542 162.711C275.196 162.711 274.095 161.611 274.095 160.264C274.095 158.917 275.196 157.817 276.542 157.817C277.889 157.817 278.989 158.917 278.989 160.264Z" fill="#512DA8" fill-opacity="0.25"/>
<path d="M301 160.264C301 161.611 299.899 162.711 298.553 162.711C297.206 162.711 296.106 161.611 296.106 160.264C296.106 158.917 297.206 157.817 298.553 157.817C299.899 157.817 301 158.917 301 160.264Z" fill="#512DA8" fill-opacity="0.25"/>
<path d="M78.4472 182.274C79.7988 182.274 80.8945 181.179 80.8945 179.827C80.8945 178.476 79.7988 177.38 78.4472 177.38C77.0957 177.38 76 178.476 76 179.827C76 181.179 77.0957 182.274 78.4472 182.274Z" fill="#512DA8" fill-opacity="0.25"/>
<path d="M100.458 182.274C101.809 182.274 102.905 181.179 102.905 179.827C102.905 178.476 101.809 177.38 100.458 177.38C99.1062 177.38 98.0106 178.476 98.0106 179.827C98.0106 181.179 99.1062 182.274 100.458 182.274Z" fill="#512DA8" fill-opacity="0.25"/>
<path d="M122.468 182.274C123.82 182.274 124.916 181.179 124.916 179.827C124.916 178.476 123.82 177.38 122.468 177.38C121.117 177.38 120.021 178.476 120.021 179.827C120.021 181.179 121.117 182.274 122.468 182.274Z" fill="#512DA8" fill-opacity="0.25"/>
<path d="M146.926 179.827C146.926 181.174 145.826 182.274 144.479 182.274C143.132 182.274 142.032 181.174 142.032 179.827C142.032 178.48 143.132 177.38 144.479 177.38C145.826 177.394 146.926 178.48 146.926 179.827Z" fill="#512DA8" fill-opacity="0.25"/>
<path d="M168.937 179.827C168.937 181.174 167.836 182.274 166.489 182.274C165.143 182.274 164.042 181.174 164.042 179.827C164.042 178.48 165.143 177.38 166.489 177.38C167.836 177.394 168.937 178.48 168.937 179.827Z" fill="#512DA8" fill-opacity="0.25"/>
<path d="M188.5 182.274C189.852 182.274 190.947 181.179 190.947 179.827C190.947 178.476 189.852 177.38 188.5 177.38C187.148 177.38 186.053 178.476 186.053 179.827C186.053 181.179 187.148 182.274 188.5 182.274Z" fill="#512DA8" fill-opacity="0.25"/>
<path d="M210.511 182.274C211.862 182.274 212.958 181.179 212.958 179.827C212.958 178.476 211.862 177.38 210.511 177.38C209.159 177.38 208.063 178.476 208.063 179.827C208.063 181.179 209.159 182.274 210.511 182.274Z" fill="#512DA8" fill-opacity="0.25"/>
<path d="M232.521 182.274C233.873 182.274 234.968 181.179 234.968 179.827C234.968 178.476 233.873 177.38 232.521 177.38C231.17 177.38 230.074 178.476 230.074 179.827C230.074 181.179 231.17 182.274 232.521 182.274Z" fill="#512DA8" fill-opacity="0.25"/>
<path d="M254.532 182.274C255.883 182.274 256.979 181.179 256.979 179.827C256.979 178.476 255.883 177.38 254.532 177.38C253.18 177.38 252.084 178.476 252.084 179.827C252.084 181.179 253.18 182.274 254.532 182.274Z" fill="#512DA8" fill-opacity="0.25"/>
<path d="M276.542 182.274C277.894 182.274 278.989 181.179 278.989 179.827C278.989 178.476 277.894 177.38 276.542 177.38C275.191 177.38 274.095 178.476 274.095 179.827C274.095 181.179 275.191 182.274 276.542 182.274Z" fill="#512DA8" fill-opacity="0.25"/>
<path d="M298.553 182.274C299.904 182.274 301 181.179 301 179.827C301 178.476 299.904 177.38 298.553 177.38C297.201 177.38 296.106 178.476 296.106 179.827C296.106 181.179 297.201 182.274 298.553 182.274Z" fill="#512DA8" fill-opacity="0.25"/>
<path d="M80.8945 199.405C80.8945 200.752 79.7939 201.852 78.4472 201.852C77.1005 201.852 76 200.752 76 199.405C76 198.058 77.1005 196.958 78.4472 196.958C79.7939 196.958 80.8945 198.044 80.8945 199.405Z" fill="#512DA8" fill-opacity="0.25"/>
<path d="M102.905 199.405C102.905 200.752 101.804 201.852 100.458 201.852C99.1111 201.852 98.0106 200.752 98.0106 199.405C98.0106 198.058 99.1111 196.958 100.458 196.958C101.804 196.958 102.905 198.044 102.905 199.405Z" fill="#512DA8" fill-opacity="0.25"/>
<path d="M124.916 199.405C124.916 200.752 123.815 201.852 122.468 201.852C121.122 201.852 120.021 200.752 120.021 199.405C120.021 198.058 121.122 196.958 122.468 196.958C123.815 196.958 124.916 198.044 124.916 199.405Z" fill="#512DA8" fill-opacity="0.25"/>
<path d="M146.926 199.405C146.926 200.752 145.826 201.852 144.479 201.852C143.132 201.852 142.032 200.752 142.032 199.405C142.032 198.058 143.132 196.958 144.479 196.958C145.826 196.958 146.926 198.044 146.926 199.405Z" fill="#512DA8" fill-opacity="0.25"/>
<path d="M168.937 199.405C168.937 200.752 167.836 201.852 166.489 201.852C165.143 201.852 164.042 200.752 164.042 199.405C164.042 198.058 165.143 196.958 166.489 196.958C167.836 196.958 168.937 198.044 168.937 199.405Z" fill="#512DA8" fill-opacity="0.25"/>
<path d="M190.947 199.405C190.947 200.752 189.847 201.852 188.5 201.852C187.153 201.852 186.053 200.752 186.053 199.405C186.053 198.058 187.153 196.958 188.5 196.958C189.847 196.958 190.947 198.044 190.947 199.405Z" fill="#512DA8" fill-opacity="0.25"/>
<path d="M212.958 199.405C212.958 200.752 211.857 201.852 210.511 201.852C209.164 201.852 208.063 200.752 208.063 199.405C208.063 198.058 209.164 196.958 210.511 196.958C211.857 196.958 212.958 198.044 212.958 199.405Z" fill="#512DA8" fill-opacity="0.25"/>
<path d="M234.968 199.405C234.968 200.752 233.868 201.852 232.521 201.852C231.174 201.852 230.074 200.752 230.074 199.405C230.074 198.058 231.174 196.958 232.521 196.958C233.868 196.958 234.968 198.044 234.968 199.405Z" fill="#512DA8" fill-opacity="0.25"/>
<path d="M256.979 199.405C256.979 200.752 255.878 201.852 254.532 201.852C253.185 201.852 252.084 200.752 252.084 199.405C252.084 198.058 253.185 196.958 254.532 196.958C255.878 196.958 256.979 198.044 256.979 199.405Z" fill="#512DA8" fill-opacity="0.25"/>
<path d="M278.989 199.405C278.989 200.752 277.889 201.852 276.542 201.852C275.196 201.852 274.095 200.752 274.095 199.405C274.095 198.058 275.196 196.958 276.542 196.958C277.889 196.958 278.989 198.044 278.989 199.405Z" fill="#512DA8" fill-opacity="0.25"/>
<path d="M301 199.405C301 200.752 299.899 201.852 298.553 201.852C297.206 201.852 296.106 200.752 296.106 199.405C296.106 198.058 297.206 196.958 298.553 196.958C299.899 196.958 301 198.044 301 199.405Z" fill="#512DA8" fill-opacity="0.25"/>
<path d="M80.8945 218.968C80.8945 220.315 79.7939 221.416 78.4472 221.416C77.1005 221.416 76 220.315 76 218.968C76 217.622 77.1005 216.521 78.4472 216.521C79.7939 216.521 80.8945 217.607 80.8945 218.968Z" fill="#512DA8" fill-opacity="0.25"/>
<path d="M102.905 218.968C102.905 220.315 101.804 221.416 100.458 221.416C99.1111 221.416 98.0106 220.315 98.0106 218.968C98.0106 217.622 99.1111 216.521 100.458 216.521C101.804 216.521 102.905 217.607 102.905 218.968Z" fill="#512DA8" fill-opacity="0.25"/>
<path d="M124.916 218.968C124.916 220.315 123.815 221.416 122.468 221.416C121.122 221.416 120.021 220.315 120.021 218.968C120.021 217.622 121.122 216.521 122.468 216.521C123.815 216.521 124.916 217.607 124.916 218.968Z" fill="#512DA8" fill-opacity="0.25"/>
<path d="M146.926 218.968C146.926 220.315 145.826 221.416 144.479 221.416C143.132 221.416 142.032 220.315 142.032 218.968C142.032 217.622 143.132 216.521 144.479 216.521C145.826 216.521 146.926 217.607 146.926 218.968Z" fill="#512DA8" fill-opacity="0.25"/>
<path d="M168.937 218.968C168.937 220.315 167.836 221.416 166.489 221.416C165.143 221.416 164.042 220.315 164.042 218.968C164.042 217.622 165.143 216.521 166.489 216.521C167.836 216.521 168.937 217.607 168.937 218.968Z" fill="#512DA8" fill-opacity="0.25"/>
<path d="M190.947 218.968C190.947 220.315 189.847 221.416 188.5 221.416C187.153 221.416 186.053 220.315 186.053 218.968C186.053 217.622 187.153 216.521 188.5 216.521C189.847 216.521 190.947 217.607 190.947 218.968Z" fill="#512DA8" fill-opacity="0.25"/>
<path d="M212.958 218.968C212.958 220.315 211.857 221.416 210.511 221.416C209.164 221.416 208.063 220.315 208.063 218.968C208.063 217.622 209.164 216.521 210.511 216.521C211.857 216.521 212.958 217.607 212.958 218.968Z" fill="#512DA8" fill-opacity="0.25"/>
<path d="M234.968 218.968C234.968 220.315 233.868 221.416 232.521 221.416C231.174 221.416 230.074 220.315 230.074 218.968C230.074 217.622 231.174 216.521 232.521 216.521C233.868 216.521 234.968 217.607 234.968 218.968Z" fill="#512DA8" fill-opacity="0.25"/>
<path d="M256.979 218.968C256.979 220.315 255.878 221.416 254.532 221.416C253.185 221.416 252.084 220.315 252.084 218.968C252.084 217.622 253.185 216.521 254.532 216.521C255.878 216.521 256.979 217.607 256.979 218.968Z" fill="#512DA8" fill-opacity="0.25"/>
<path d="M278.989 218.968C278.989 220.315 277.889 221.416 276.542 221.416C275.196 221.416 274.095 220.315 274.095 218.968C274.095 217.622 275.196 216.521 276.542 216.521C277.889 216.521 278.989 217.607 278.989 218.968Z" fill="#512DA8" fill-opacity="0.25"/>
<path d="M301 218.968C301 220.315 299.899 221.416 298.553 221.416C297.206 221.416 296.106 220.315 296.106 218.968C296.106 217.622 297.206 216.521 298.553 216.521C299.899 216.521 301 217.607 301 218.968Z" fill="#512DA8" fill-opacity="0.25"/>
<path d="M80.8945 238.532C80.8945 239.878 79.7939 240.979 78.4472 240.979C77.1005 240.979 76 239.878 76 238.532C76 237.185 77.1005 236.084 78.4472 236.084C79.7939 236.084 80.8945 237.185 80.8945 238.532Z" fill="#512DA8" fill-opacity="0.25"/>
<path d="M102.905 238.532C102.905 239.878 101.804 240.979 100.458 240.979C99.1111 240.979 98.0106 239.878 98.0106 238.532C98.0106 237.185 99.1111 236.084 100.458 236.084C101.804 236.084 102.905 237.185 102.905 238.532Z" fill="#512DA8" fill-opacity="0.25"/>
<path d="M124.916 238.532C124.916 239.878 123.815 240.979 122.468 240.979C121.122 240.979 120.021 239.878 120.021 238.532C120.021 237.185 121.122 236.084 122.468 236.084C123.815 236.084 124.916 237.185 124.916 238.532Z" fill="#512DA8" fill-opacity="0.25"/>
<path d="M146.926 238.532C146.926 239.878 145.826 240.979 144.479 240.979C143.132 240.979 142.032 239.878 142.032 238.532C142.032 237.185 143.132 236.084 144.479 236.084C145.826 236.084 146.926 237.185 146.926 238.532Z" fill="#512DA8" fill-opacity="0.25"/>
<path d="M168.937 238.532C168.937 239.878 167.836 240.979 166.489 240.979C165.143 240.979 164.042 239.878 164.042 238.532C164.042 237.185 165.143 236.084 166.489 236.084C167.836 236.084 168.937 237.185 168.937 238.532Z" fill="#512DA8" fill-opacity="0.25"/>
<path d="M190.947 238.532C190.947 239.878 189.847 240.979 188.5 240.979C187.153 240.979 186.053 239.878 186.053 238.532C186.053 237.185 187.153 236.084 188.5 236.084C189.847 236.084 190.947 237.185 190.947 238.532Z" fill="#512DA8" fill-opacity="0.25"/>
<path d="M212.958 238.532C212.958 239.878 211.857 240.979 210.511 240.979C209.164 240.979 208.063 239.878 208.063 238.532C208.063 237.185 209.164 236.084 210.511 236.084C211.857 236.084 212.958 237.185 212.958 238.532Z" fill="#512DA8" fill-opacity="0.25"/>
<path d="M234.968 238.532C234.968 239.878 233.868 240.979 232.521 240.979C231.174 240.979 230.074 239.878 230.074 238.532C230.074 237.185 231.174 236.084 232.521 236.084C233.868 236.084 234.968 237.185 234.968 238.532Z" fill="#512DA8" fill-opacity="0.25"/>
<path d="M256.979 238.532C256.979 239.878 255.878 240.979 254.532 240.979C253.185 240.979 252.084 239.878 252.084 238.532C252.084 237.185 253.185 236.084 254.532 236.084C255.878 236.084 256.979 237.185 256.979 238.532Z" fill="#512DA8" fill-opacity="0.25"/>
<path d="M278.989 238.532C278.989 239.878 277.889 240.979 276.542 240.979C275.196 240.979 274.095 239.878 274.095 238.532C274.095 237.185 275.196 236.084 276.542 236.084C277.889 236.084 278.989 237.185 278.989 238.532Z" fill="#512DA8" fill-opacity="0.25"/>
<path d="M301 238.532C301 239.878 299.899 240.979 298.553 240.979C297.206 240.979 296.106 239.878 296.106 238.532C296.106 237.185 297.206 236.084 298.553 236.084C299.899 236.084 301 237.185 301 238.532Z" fill="#512DA8" fill-opacity="0.25"/>
<path d="M78.4472 260.542C79.7988 260.542 80.8945 259.447 80.8945 258.095C80.8945 256.743 79.7988 255.648 78.4472 255.648C77.0957 255.648 76 256.743 76 258.095C76 259.447 77.0957 260.542 78.4472 260.542Z" fill="#512DA8" fill-opacity="0.25"/>
<path d="M100.458 260.542C101.809 260.542 102.905 259.447 102.905 258.095C102.905 256.743 101.809 255.648 100.458 255.648C99.1062 255.648 98.0106 256.743 98.0106 258.095C98.0106 259.447 99.1062 260.542 100.458 260.542Z" fill="#512DA8" fill-opacity="0.25"/>
<path d="M122.468 260.542C123.82 260.542 124.916 259.447 124.916 258.095C124.916 256.743 123.82 255.648 122.468 255.648C121.117 255.648 120.021 256.743 120.021 258.095C120.021 259.447 121.117 260.542 122.468 260.542Z" fill="#512DA8" fill-opacity="0.25"/>
<path d="M146.926 258.095C146.926 259.442 145.826 260.542 144.479 260.542C143.132 260.542 142.032 259.442 142.032 258.095C142.032 256.748 143.132 255.648 144.479 255.648C145.826 255.648 146.926 256.748 146.926 258.095Z" fill="#512DA8" fill-opacity="0.25"/>
<path d="M168.937 258.095C168.937 259.442 167.836 260.542 166.489 260.542C165.143 260.542 164.042 259.442 164.042 258.095C164.042 256.748 165.143 255.648 166.489 255.648C167.836 255.648 168.937 256.748 168.937 258.095Z" fill="#512DA8" fill-opacity="0.25"/>
<path d="M188.5 260.542C189.852 260.542 190.947 259.447 190.947 258.095C190.947 256.743 189.852 255.648 188.5 255.648C187.148 255.648 186.053 256.743 186.053 258.095C186.053 259.447 187.148 260.542 188.5 260.542Z" fill="#512DA8" fill-opacity="0.25"/>
<path d="M210.511 260.542C211.862 260.542 212.958 259.447 212.958 258.095C212.958 256.743 211.862 255.648 210.511 255.648C209.159 255.648 208.063 256.743 208.063 258.095C208.063 259.447 209.159 260.542 210.511 260.542Z" fill="#512DA8" fill-opacity="0.25"/>
<path d="M232.521 260.542C233.873 260.542 234.968 259.447 234.968 258.095C234.968 256.743 233.873 255.648 232.521 255.648C231.17 255.648 230.074 256.743 230.074 258.095C230.074 259.447 231.17 260.542 232.521 260.542Z" fill="#512DA8" fill-opacity="0.25"/>
<path d="M254.532 260.542C255.883 260.542 256.979 259.447 256.979 258.095C256.979 256.743 255.883 255.648 254.532 255.648C253.18 255.648 252.084 256.743 252.084 258.095C252.084 259.447 253.18 260.542 254.532 260.542Z" fill="#512DA8" fill-opacity="0.25"/>
<path d="M276.542 260.542C277.894 260.542 278.989 259.447 278.989 258.095C278.989 256.743 277.894 255.648 276.542 255.648C275.191 255.648 274.095 256.743 274.095 258.095C274.095 259.447 275.191 260.542 276.542 260.542Z" fill="#512DA8" fill-opacity="0.25"/>
<path d="M298.553 260.542C299.904 260.542 301 259.447 301 258.095C301 256.743 299.904 255.648 298.553 255.648C297.201 255.648 296.106 256.743 296.106 258.095C296.106 259.447 297.201 260.542 298.553 260.542Z" fill="#512DA8" fill-opacity="0.25"/>
<path d="M80.8945 277.658C80.8945 279.005 79.7939 280.106 78.4472 280.106C77.1005 280.106 76 279.005 76 277.658C76 276.312 77.1005 275.211 78.4472 275.211C79.7939 275.211 80.8945 276.312 80.8945 277.658Z" fill="#512DA8" fill-opacity="0.25"/>
<path d="M102.905 277.658C102.905 279.005 101.804 280.106 100.458 280.106C99.1111 280.106 98.0106 279.005 98.0106 277.658C98.0106 276.312 99.1111 275.211 100.458 275.211C101.804 275.211 102.905 276.312 102.905 277.658Z" fill="#512DA8" fill-opacity="0.25"/>
<path d="M124.916 277.658C124.916 279.005 123.815 280.106 122.468 280.106C121.122 280.106 120.021 279.005 120.021 277.658C120.021 276.312 121.122 275.211 122.468 275.211C123.815 275.211 124.916 276.312 124.916 277.658Z" fill="#512DA8" fill-opacity="0.25"/>
<path d="M146.926 277.658C146.926 279.005 145.826 280.106 144.479 280.106C143.132 280.106 142.032 279.005 142.032 277.658C142.032 276.312 143.132 275.211 144.479 275.211C145.826 275.211 146.926 276.312 146.926 277.658Z" fill="#512DA8" fill-opacity="0.25"/>
<path d="M168.937 277.658C168.937 279.005 167.836 280.106 166.489 280.106C165.143 280.106 164.042 279.005 164.042 277.658C164.042 276.312 165.143 275.211 166.489 275.211C167.836 275.211 168.937 276.312 168.937 277.658Z" fill="#512DA8" fill-opacity="0.25"/>
<path d="M190.947 277.658C190.947 279.005 189.847 280.106 188.5 280.106C187.153 280.106 186.053 279.005 186.053 277.658C186.053 276.312 187.153 275.211 188.5 275.211C189.847 275.211 190.947 276.312 190.947 277.658Z" fill="#512DA8" fill-opacity="0.25"/>
<path d="M212.958 277.658C212.958 279.005 211.857 280.106 210.511 280.106C209.164 280.106 208.063 279.005 208.063 277.658C208.063 276.312 209.164 275.211 210.511 275.211C211.857 275.211 212.958 276.312 212.958 277.658Z" fill="#512DA8" fill-opacity="0.25"/>
<path d="M234.968 277.658C234.968 279.005 233.868 280.106 232.521 280.106C231.174 280.106 230.074 279.005 230.074 277.658C230.074 276.312 231.174 275.211 232.521 275.211C233.868 275.211 234.968 276.312 234.968 277.658Z" fill="#512DA8" fill-opacity="0.25"/>
<path d="M256.979 277.658C256.979 279.005 255.878 280.106 254.532 280.106C253.185 280.106 252.084 279.005 252.084 277.658C252.084 276.312 253.185 275.211 254.532 275.211C255.878 275.211 256.979 276.312 256.979 277.658Z" fill="#512DA8" fill-opacity="0.25"/>
<path d="M278.989 277.658C278.989 279.005 277.889 280.106 276.542 280.106C275.196 280.106 274.095 279.005 274.095 277.658C274.095 276.312 275.196 275.211 276.542 275.211C277.889 275.211 278.989 276.312 278.989 277.658Z" fill="#512DA8" fill-opacity="0.25"/>
<path d="M301 277.658C301 279.005 299.899 280.106 298.553 280.106C297.206 280.106 296.106 279.005 296.106 277.658C296.106 276.312 297.206 275.211 298.553 275.211C299.899 275.211 301 276.312 301 277.658Z" fill="#512DA8" fill-opacity="0.25"/>
<path d="M187.458 515C263.374 515 324.916 510.326 324.916 504.56C324.916 498.794 263.374 494.12 187.458 494.12C111.542 494.12 50 498.794 50 504.56C50 510.326 111.542 515 187.458 515Z" fill="#E6E6E6"/>
<path d="M155.07 141.504C178.992 131.329 208.787 137.775 237.885 142.25C238.156 136.831 241.438 130.237 238 126.457C233.823 121.864 234.208 117.039 236.721 112.186C243.149 99.7754 233.94 86.5701 224.642 75.59C222.547 73.1208 219.898 71.1806 216.912 69.9272C213.925 68.6738 210.686 68.1424 207.455 68.3763L190.232 69.6065C186.04 69.9059 182.041 71.4781 178.767 74.1128C175.494 76.7475 173.104 80.319 171.916 84.3495C167.803 89.9428 165.602 95.5206 166.988 101.069C160.828 105.279 159.793 110.361 162.561 116.089C164.908 119.696 164.883 123.207 162.454 126.621C159.264 130.973 156.821 135.826 155.224 140.981L155.07 141.504Z" fill="#2F2E41"/>
<path d="M723.553 449.952H235.996C231.66 449.952 227.502 448.23 224.436 445.164C221.37 442.098 219.648 437.94 219.648 433.604C396.387 413.064 569.805 413.064 739.901 433.604C739.901 437.94 738.179 442.098 735.113 445.164C732.047 448.23 727.889 449.952 723.553 449.952Z" fill="#2F2E41"/>
<path d="M739.901 434.566L219.648 433.604L279.943 332.15L280.232 331.669V108.076C280.232 105.362 280.766 102.674 281.804 100.167C282.843 97.6596 284.365 95.3814 286.284 93.4623C288.203 91.5433 290.481 90.021 292.989 88.9825C295.496 87.9441 298.184 87.4097 300.898 87.4099H655.766C658.48 87.4097 661.167 87.9441 663.675 88.9825C666.182 90.021 668.46 91.5433 670.379 93.4623C672.299 95.3814 673.821 97.6596 674.859 100.167C675.898 102.674 676.432 105.362 676.432 108.076V333.208L739.901 434.566Z" fill="#3F3D56"/>
<path d="M300.426 101.835C298.642 101.837 296.931 102.547 295.669 103.809C294.407 105.071 293.697 106.782 293.695 108.566V312.436C293.697 314.221 294.407 315.932 295.669 317.194C296.931 318.456 298.642 319.166 300.426 319.168H659.122C660.907 319.166 662.618 318.456 663.88 317.194C665.142 315.932 665.852 314.221 665.854 312.436V108.566C665.852 106.782 665.142 105.071 663.88 103.809C662.618 102.547 660.907 101.837 659.122 101.835H300.426Z" fill="white"/>
<path d="M301.929 346.094C301.378 346.095 300.838 346.254 300.374 346.551C299.909 346.849 299.54 347.273 299.308 347.773L280.729 388.163C280.527 388.602 280.439 389.085 280.472 389.568C280.506 390.051 280.66 390.517 280.921 390.925C281.182 391.332 281.541 391.667 281.966 391.899C282.39 392.132 282.866 392.253 283.35 392.253H674.055C674.547 392.253 675.03 392.128 675.46 391.888C675.889 391.649 676.25 391.303 676.509 390.885C676.767 390.467 676.915 389.989 676.937 389.498C676.959 389.007 676.855 388.518 676.635 388.078L656.44 347.689C656.202 347.209 655.834 346.805 655.378 346.523C654.922 346.241 654.396 346.093 653.86 346.094H301.929Z" fill="#2F2E41"/>
<path d="M478.332 98.469C480.722 98.469 482.659 96.5315 482.659 94.1416C482.659 91.7516 480.722 89.8141 478.332 89.8141C475.942 89.8141 474.004 91.7516 474.004 94.1416C474.004 96.5315 475.942 98.469 478.332 98.469Z" fill="white"/>
<path d="M439.929 399.946C439.294 399.947 438.678 400.157 438.175 400.542C437.671 400.928 437.309 401.469 437.143 402.081L432.483 419.391C432.368 419.818 432.352 420.267 432.438 420.701C432.524 421.136 432.709 421.544 432.978 421.896C433.248 422.247 433.594 422.532 433.991 422.728C434.389 422.924 434.825 423.026 435.268 423.026H523.898C524.357 423.026 524.811 422.916 525.219 422.705C525.628 422.495 525.981 422.189 526.247 421.814C526.514 421.44 526.687 421.007 526.753 420.551C526.818 420.096 526.773 419.632 526.623 419.197L520.631 401.888C520.435 401.321 520.067 400.829 519.578 400.482C519.09 400.134 518.505 399.947 517.905 399.946H439.929Z" fill="#2F2E41"/>
<path d="M676.432 328.304V332.15H279.943L280.242 331.67V328.304H676.432Z" fill="#2F2E41"/>
<path d="M665.373 169.631C702.55 169.631 732.688 139.493 732.688 102.316C732.688 65.1382 702.55 35 665.373 35C628.196 35 598.057 65.1382 598.057 102.316C598.057 139.493 628.196 169.631 665.373 169.631Z" fill="#0288D1"/>
<path d="M693.261 131.646H637.485C636.465 131.645 635.487 131.239 634.766 130.518C634.045 129.797 633.639 128.819 633.638 127.799V94.1415C633.64 93.1217 634.045 92.1439 634.766 91.4228C635.487 90.7016 636.465 90.296 637.485 90.2949H693.261C694.281 90.296 695.258 90.7016 695.98 91.4228C696.701 92.1439 697.106 93.1217 697.107 94.1415V127.799C697.106 128.819 696.701 129.797 695.98 130.518C695.258 131.239 694.281 131.645 693.261 131.646ZM637.485 94.1415V127.799H693.264L693.261 94.1415L637.485 94.1415Z" fill="white"/>
<path d="M682.683 94.1415H648.063V78.7551C648.063 67.6106 655.343 59.522 665.373 59.522C675.403 59.522 682.683 67.6106 682.683 78.7551L682.683 94.1415ZM651.91 90.2949H678.836V78.7551C678.836 69.6959 673.3 63.3687 665.373 63.3687C657.446 63.3687 651.91 69.6959 651.91 78.7551L651.91 90.2949Z" fill="white"/>
<path d="M665.373 113.855C667.497 113.855 669.219 112.133 669.219 110.009C669.219 107.884 667.497 106.162 665.373 106.162C663.248 106.162 661.526 107.884 661.526 110.009C661.526 112.133 663.248 113.855 665.373 113.855Z" fill="white"/>
<path d="M618.381 250.017H341.168C339.807 250.016 338.502 249.474 337.54 248.512C336.577 247.549 336.036 246.245 336.034 244.884V176.119C336.036 174.758 336.577 173.453 337.54 172.491C338.502 171.528 339.807 170.987 341.168 170.985H618.381C619.742 170.987 621.047 171.528 622.009 172.491C622.971 173.453 623.513 174.758 623.514 176.119V244.884C623.513 246.245 622.971 247.549 622.009 248.512C621.047 249.474 619.742 250.016 618.381 250.017ZM341.168 173.039C340.351 173.04 339.568 173.364 338.991 173.942C338.413 174.519 338.089 175.302 338.088 176.119V244.884C338.089 245.7 338.413 246.483 338.991 247.061C339.568 247.638 340.351 247.963 341.168 247.964H618.381C619.197 247.963 619.98 247.638 620.558 247.061C621.135 246.483 621.46 245.7 621.461 244.884V176.119C621.46 175.302 621.135 174.519 620.558 173.942C619.98 173.364 619.197 173.04 618.381 173.039L341.168 173.039Z" fill="#E6E6E6"/>
<path d="M384.241 228.774C395.79 228.774 405.152 219.412 405.152 207.863C405.152 196.314 395.79 186.951 384.241 186.951C372.692 186.951 363.33 196.314 363.33 207.863C363.33 219.412 372.692 228.774 384.241 228.774Z" fill="#E6E6E6"/>
<path d="M432.537 193.922C432.078 193.921 431.625 194.011 431.201 194.185C430.778 194.36 430.393 194.617 430.069 194.941C429.744 195.264 429.487 195.649 429.312 196.072C429.136 196.495 429.046 196.949 429.046 197.407C429.046 197.865 429.136 198.319 429.312 198.742C429.487 199.165 429.744 199.55 430.069 199.873C430.393 200.197 430.778 200.454 431.201 200.629C431.625 200.803 432.078 200.893 432.537 200.892H596.841C597.765 200.892 598.651 200.525 599.305 199.871C599.959 199.218 600.326 198.331 600.326 197.407C600.326 196.483 599.959 195.596 599.305 194.943C598.651 194.289 597.765 193.922 596.841 193.922H432.537Z" fill="#E6E6E6"/>
<path d="M432.536 214.833C431.612 214.833 430.726 215.2 430.072 215.854C429.418 216.508 429.051 217.394 429.051 218.319C429.051 219.243 429.418 220.129 430.072 220.783C430.726 221.437 431.612 221.804 432.536 221.804H503.237C504.161 221.804 505.048 221.437 505.701 220.783C506.355 220.129 506.722 219.243 506.722 218.319C506.722 217.394 506.355 216.508 505.701 215.854C505.048 215.2 504.161 214.833 503.237 214.833H432.536Z" fill="#E6E6E6"/>
<path d="M279.261 216.243L228.016 243.487L227.367 220.784C244.093 217.992 260.007 213.13 274.72 205.216L280.08 191.974C280.664 190.532 281.613 189.265 282.834 188.3C284.055 187.335 285.507 186.704 287.045 186.469C288.584 186.234 290.157 186.403 291.611 186.96C293.065 187.517 294.348 188.442 295.336 189.645C296.782 191.405 297.505 193.648 297.358 195.921C297.211 198.193 296.206 200.325 294.546 201.884L279.261 216.243Z" fill="#FFB8B8"/>
<path d="M154.049 373.541C153.675 372.17 153.596 370.735 153.816 369.331C154.036 367.927 154.551 366.586 155.327 365.395L166.584 348.119C169.247 344.033 173.332 341.082 178.048 339.838C182.764 338.593 187.774 339.145 192.105 341.386C187.374 349.439 188.034 356.504 193.739 362.643C184.882 366.967 176.697 372.548 169.435 379.212C168.11 380.116 166.587 380.69 164.995 380.886C163.403 381.082 161.787 380.895 160.281 380.34C158.776 379.785 157.425 378.879 156.341 377.696C155.257 376.514 154.471 375.089 154.049 373.541Z" fill="#2F2E41"/>
<path d="M281.595 350.952C279.892 353.791 277.487 356.145 274.612 357.787C271.737 359.429 268.488 360.305 265.178 360.33L190.393 360.897L187.15 342.085L220.232 332.355L192.339 310.949L222.827 275.272L278.201 326.884C281.438 329.9 283.541 333.936 284.159 338.317C284.776 342.698 283.871 347.159 281.595 350.952Z" fill="#2F2E41"/>
<path d="M178.717 479.603H161.203C145.478 371.814 129.471 263.723 176.771 223.379L232.557 232.46L225.421 279.813L194.285 315.49L178.717 479.603Z" fill="#2F2E41"/>
<path d="M194.113 504.021C192.742 504.395 191.307 504.474 189.903 504.254C188.499 504.034 187.158 503.519 185.967 502.743L166.95 500.187C162.864 497.525 159.912 493.439 158.668 488.724C157.423 484.008 157.975 478.998 160.216 474.666C168.269 479.397 175.334 478.737 181.473 473.031C185.81 481.79 192.957 481.256 199.783 488.634C200.687 489.96 201.261 491.482 201.457 493.075C201.653 494.667 201.466 496.283 200.911 497.788C200.357 499.294 199.45 500.645 198.268 501.729C197.085 502.813 195.661 503.599 194.113 504.021Z" fill="#2F2E41"/>
<path d="M220.232 151.376L187.798 143.592C193.185 132.566 193.629 120.297 191.042 107.266L213.097 106.618C213.788 122.822 215.878 137.96 220.232 151.376Z" fill="#FFB8B8"/>
<path d="M229.146 251.991C205.536 268.08 188.853 252.541 176.122 228.568C177.891 213.898 175.027 196.343 169.722 177.268C167.363 168.854 168.244 159.862 172.191 152.066C176.138 144.27 182.864 138.238 191.042 135.159L218.935 146.835C242.619 166.141 247.281 187.052 238.395 209.108L229.146 251.991Z" fill="#0288D1"/>
<path d="M161.203 167.593L135.256 181.215L181.312 208.459L187.72 224.266C188.148 225.321 188.356 226.453 188.333 227.591C188.309 228.729 188.054 229.85 187.582 230.887C187.111 231.923 186.434 232.853 185.591 233.619C184.749 234.385 183.76 234.971 182.684 235.342C181.46 235.764 180.156 235.897 178.872 235.73C177.589 235.564 176.361 235.103 175.286 234.383C174.211 233.663 173.317 232.704 172.674 231.58C172.031 230.457 171.657 229.2 171.581 227.909L170.933 216.892L112.397 197.575C110.425 196.924 108.626 195.833 107.138 194.384C105.65 192.935 104.511 191.167 103.808 189.213C102.782 186.365 102.73 183.257 103.659 180.376C104.589 177.494 106.447 175.003 108.943 173.29L156.014 140.997L161.203 167.593Z" fill="#FFB8B8"/>
<path d="M187.15 170.188C176.328 165.445 166.488 170.597 154.068 174.728L152.122 140.349C164.455 133.775 176.213 132.003 187.15 137.105L187.15 170.188Z" fill="#0288D1"/>
<path d="M200.095 123.647C211.531 123.647 220.802 114.376 220.802 102.94C220.802 91.5031 211.531 82.2321 200.095 82.2321C188.658 82.2321 179.387 91.5031 179.387 102.94C179.387 114.376 188.658 123.647 200.095 123.647Z" fill="#FFB8B8"/>
<path d="M224.868 100.327C204.365 102.335 188.743 98.9818 178.758 89.4345V81.7458H223.128L224.868 100.327Z" fill="#2F2E41"/>
</svg>
