<svg width="790" height="550" viewBox="0 0 790 550" fill="none" xmlns="http://www.w3.org/2000/svg">
<path d="M168.458 505.88C244.374 505.88 305.916 501.206 305.916 495.44C305.916 489.674 244.374 485 168.458 485C92.5421 485 31 489.674 31 495.44C31 501.206 92.5421 505.88 168.458 505.88Z" fill="#E6E6E6"/>
<path d="M53.4472 56.8944C54.7988 56.8944 55.8945 55.7988 55.8945 54.4472C55.8945 53.0956 54.7988 52 53.4472 52C52.0957 52 51 53.0956 51 54.4472C51 55.7988 52.0957 56.8944 53.4472 56.8944Z" fill="#512DA8" fill-opacity="0.25"/>
<path d="M75.4578 56.8944C76.8093 56.8944 77.905 55.7988 77.905 54.4472C77.905 53.0956 76.8093 52 75.4578 52C74.1062 52 73.0105 53.0956 73.0105 54.4472C73.0105 55.7988 74.1062 56.8944 75.4578 56.8944Z" fill="#512DA8" fill-opacity="0.25"/>
<path d="M97.4683 56.8944C98.8199 56.8944 99.9156 55.7988 99.9156 54.4472C99.9156 53.0956 98.8199 52 97.4683 52C96.1168 52 95.0211 53.0956 95.0211 54.4472C95.0211 55.7988 96.1168 56.8944 97.4683 56.8944Z" fill="#512DA8" fill-opacity="0.25"/>
<path d="M121.926 54.4472C121.926 55.7939 120.826 56.8944 119.479 56.8944C118.132 56.8944 117.032 55.7939 117.032 54.4472C117.032 53.1005 118.132 52 119.479 52C120.826 52 121.926 53.1005 121.926 54.4472Z" fill="#512DA8" fill-opacity="0.25"/>
<path d="M143.937 54.4472C143.937 55.7939 142.836 56.8944 141.489 56.8944C140.143 56.8944 139.042 55.7939 139.042 54.4472C139.042 53.1005 140.143 52 141.489 52C142.836 52 143.937 53.1005 143.937 54.4472Z" fill="#512DA8" fill-opacity="0.25"/>
<path d="M163.5 56.8944C164.852 56.8944 165.947 55.7988 165.947 54.4472C165.947 53.0956 164.852 52 163.5 52C162.148 52 161.053 53.0956 161.053 54.4472C161.053 55.7988 162.148 56.8944 163.5 56.8944Z" fill="#512DA8" fill-opacity="0.25"/>
<path d="M185.511 56.8944C186.862 56.8944 187.958 55.7988 187.958 54.4472C187.958 53.0956 186.862 52 185.511 52C184.159 52 183.063 53.0956 183.063 54.4472C183.063 55.7988 184.159 56.8944 185.511 56.8944Z" fill="#512DA8" fill-opacity="0.25"/>
<path d="M207.521 56.8944C208.873 56.8944 209.968 55.7988 209.968 54.4472C209.968 53.0956 208.873 52 207.521 52C206.17 52 205.074 53.0956 205.074 54.4472C205.074 55.7988 206.17 56.8944 207.521 56.8944Z" fill="#512DA8" fill-opacity="0.25"/>
<path d="M229.532 56.8944C230.883 56.8944 231.979 55.7988 231.979 54.4472C231.979 53.0956 230.883 52 229.532 52C228.18 52 227.084 53.0956 227.084 54.4472C227.084 55.7988 228.18 56.8944 229.532 56.8944Z" fill="#512DA8" fill-opacity="0.25"/>
<path d="M251.542 56.8944C252.894 56.8944 253.989 55.7988 253.989 54.4472C253.989 53.0956 252.894 52 251.542 52C250.191 52 249.095 53.0956 249.095 54.4472C249.095 55.7988 250.191 56.8944 251.542 56.8944Z" fill="#512DA8" fill-opacity="0.25"/>
<path d="M273.553 56.8944C274.904 56.8944 276 55.7988 276 54.4472C276 53.0956 274.904 52 273.553 52C272.201 52 271.106 53.0956 271.106 54.4472C271.106 55.7988 272.201 56.8944 273.553 56.8944Z" fill="#512DA8" fill-opacity="0.25"/>
<path d="M53.4472 76.4578C54.7988 76.4578 55.8945 75.3621 55.8945 74.0106C55.8945 72.659 54.7988 71.5634 53.4472 71.5634C52.0957 71.5634 51 72.659 51 74.0106C51 75.3621 52.0957 76.4578 53.4472 76.4578Z" fill="#512DA8" fill-opacity="0.25"/>
<path d="M75.4578 76.4578C76.8093 76.4578 77.905 75.3621 77.905 74.0106C77.905 72.659 76.8093 71.5634 75.4578 71.5634C74.1062 71.5634 73.0105 72.659 73.0105 74.0106C73.0105 75.3621 74.1062 76.4578 75.4578 76.4578Z" fill="#512DA8" fill-opacity="0.25"/>
<path d="M97.4683 76.4578C98.8199 76.4578 99.9156 75.3621 99.9156 74.0106C99.9156 72.659 98.8199 71.5634 97.4683 71.5634C96.1168 71.5634 95.0211 72.659 95.0211 74.0106C95.0211 75.3621 96.1168 76.4578 97.4683 76.4578Z" fill="#512DA8" fill-opacity="0.25"/>
<path d="M121.926 74.0106C121.926 75.3573 120.826 76.4578 119.479 76.4578C118.132 76.4578 117.032 75.3573 117.032 74.0106C117.032 72.6639 118.132 71.5634 119.479 71.5634C120.826 71.5634 121.926 72.6639 121.926 74.0106Z" fill="#512DA8" fill-opacity="0.25"/>
<path d="M143.937 74.0106C143.937 75.3573 142.836 76.4578 141.489 76.4578C140.143 76.4578 139.042 75.3573 139.042 74.0106C139.042 72.6639 140.143 71.5634 141.489 71.5634C142.836 71.5634 143.937 72.6639 143.937 74.0106Z" fill="#512DA8" fill-opacity="0.25"/>
<path d="M163.5 76.4578C164.852 76.4578 165.947 75.3621 165.947 74.0106C165.947 72.659 164.852 71.5634 163.5 71.5634C162.148 71.5634 161.053 72.659 161.053 74.0106C161.053 75.3621 162.148 76.4578 163.5 76.4578Z" fill="#512DA8" fill-opacity="0.25"/>
<path d="M185.511 76.4578C186.862 76.4578 187.958 75.3621 187.958 74.0106C187.958 72.659 186.862 71.5634 185.511 71.5634C184.159 71.5634 183.063 72.659 183.063 74.0106C183.063 75.3621 184.159 76.4578 185.511 76.4578Z" fill="#512DA8" fill-opacity="0.25"/>
<path d="M207.521 76.4578C208.873 76.4578 209.968 75.3621 209.968 74.0106C209.968 72.659 208.873 71.5634 207.521 71.5634C206.17 71.5634 205.074 72.659 205.074 74.0106C205.074 75.3621 206.17 76.4578 207.521 76.4578Z" fill="#512DA8" fill-opacity="0.25"/>
<path d="M229.532 76.4578C230.883 76.4578 231.979 75.3621 231.979 74.0106C231.979 72.659 230.883 71.5634 229.532 71.5634C228.18 71.5634 227.084 72.659 227.084 74.0106C227.084 75.3621 228.18 76.4578 229.532 76.4578Z" fill="#512DA8" fill-opacity="0.25"/>
<path d="M251.542 76.4578C252.894 76.4578 253.989 75.3621 253.989 74.0106C253.989 72.659 252.894 71.5634 251.542 71.5634C250.191 71.5634 249.095 72.659 249.095 74.0106C249.095 75.3621 250.191 76.4578 251.542 76.4578Z" fill="#512DA8" fill-opacity="0.25"/>
<path d="M273.553 76.4578C274.904 76.4578 276 75.3621 276 74.0106C276 72.659 274.904 71.5634 273.553 71.5634C272.201 71.5634 271.106 72.659 271.106 74.0106C271.106 75.3621 272.201 76.4578 273.553 76.4578Z" fill="#512DA8" fill-opacity="0.25"/>
<path d="M53.4472 96.0212C54.7988 96.0212 55.8945 94.9255 55.8945 93.5739C55.8945 92.2224 54.7988 91.1267 53.4472 91.1267C52.0957 91.1267 51 92.2224 51 93.5739C51 94.9255 52.0957 96.0212 53.4472 96.0212Z" fill="#512DA8" fill-opacity="0.25"/>
<path d="M75.4578 96.0212C76.8093 96.0212 77.905 94.9255 77.905 93.5739C77.905 92.2224 76.8093 91.1267 75.4578 91.1267C74.1062 91.1267 73.0105 92.2224 73.0105 93.5739C73.0105 94.9255 74.1062 96.0212 75.4578 96.0212Z" fill="#512DA8" fill-opacity="0.25"/>
<path d="M97.4683 96.0212C98.8199 96.0212 99.9156 94.9255 99.9156 93.5739C99.9156 92.2224 98.8199 91.1267 97.4683 91.1267C96.1168 91.1267 95.0211 92.2224 95.0211 93.5739C95.0211 94.9255 96.1168 96.0212 97.4683 96.0212Z" fill="#512DA8" fill-opacity="0.25"/>
<path d="M121.926 93.5739C121.926 94.9206 120.826 96.0212 119.479 96.0212C118.132 96.0212 117.032 94.9206 117.032 93.5739C117.032 92.2272 118.132 91.1267 119.479 91.1267C120.826 91.1267 121.926 92.2272 121.926 93.5739Z" fill="#512DA8" fill-opacity="0.25"/>
<path d="M143.937 93.5739C143.937 94.9206 142.836 96.0212 141.489 96.0212C140.143 96.0212 139.042 94.9206 139.042 93.5739C139.042 92.2272 140.143 91.1267 141.489 91.1267C142.836 91.1267 143.937 92.2272 143.937 93.5739Z" fill="#512DA8" fill-opacity="0.25"/>
<path d="M163.5 96.0212C164.852 96.0212 165.947 94.9255 165.947 93.5739C165.947 92.2224 164.852 91.1267 163.5 91.1267C162.148 91.1267 161.053 92.2224 161.053 93.5739C161.053 94.9255 162.148 96.0212 163.5 96.0212Z" fill="#512DA8" fill-opacity="0.25"/>
<path d="M185.511 96.0212C186.862 96.0212 187.958 94.9255 187.958 93.5739C187.958 92.2224 186.862 91.1267 185.511 91.1267C184.159 91.1267 183.063 92.2224 183.063 93.5739C183.063 94.9255 184.159 96.0212 185.511 96.0212Z" fill="#512DA8" fill-opacity="0.25"/>
<path d="M207.521 96.0212C208.873 96.0212 209.968 94.9255 209.968 93.5739C209.968 92.2224 208.873 91.1267 207.521 91.1267C206.17 91.1267 205.074 92.2224 205.074 93.5739C205.074 94.9255 206.17 96.0212 207.521 96.0212Z" fill="#512DA8" fill-opacity="0.25"/>
<path d="M229.532 96.0212C230.883 96.0212 231.979 94.9255 231.979 93.5739C231.979 92.2224 230.883 91.1267 229.532 91.1267C228.18 91.1267 227.084 92.2224 227.084 93.5739C227.084 94.9255 228.18 96.0212 229.532 96.0212Z" fill="#512DA8" fill-opacity="0.25"/>
<path d="M251.542 96.0212C252.894 96.0212 253.989 94.9255 253.989 93.5739C253.989 92.2224 252.894 91.1267 251.542 91.1267C250.191 91.1267 249.095 92.2224 249.095 93.5739C249.095 94.9255 250.191 96.0212 251.542 96.0212Z" fill="#512DA8" fill-opacity="0.25"/>
<path d="M273.553 96.0212C274.904 96.0212 276 94.9255 276 93.5739C276 92.2224 274.904 91.1267 273.553 91.1267C272.201 91.1267 271.106 92.2224 271.106 93.5739C271.106 94.9255 272.201 96.0212 273.553 96.0212Z" fill="#512DA8" fill-opacity="0.25"/>
<path d="M55.8945 113.137C55.8945 114.484 54.7939 115.584 53.4472 115.584C52.1005 115.584 51 114.484 51 113.137C51 111.791 52.1005 110.69 53.4472 110.69C54.7939 110.69 55.8945 111.791 55.8945 113.137Z" fill="#512DA8" fill-opacity="0.25"/>
<path d="M77.905 113.137C77.905 114.484 76.8045 115.584 75.4578 115.584C74.1111 115.584 73.0105 114.484 73.0105 113.137C73.0105 111.791 74.1111 110.69 75.4578 110.69C76.8045 110.69 77.905 111.791 77.905 113.137Z" fill="#512DA8" fill-opacity="0.25"/>
<path d="M99.9156 113.137C99.9156 114.484 98.815 115.584 97.4683 115.584C96.1216 115.584 95.0211 114.484 95.0211 113.137C95.0211 111.791 96.1216 110.69 97.4683 110.69C98.815 110.69 99.9156 111.791 99.9156 113.137Z" fill="#512DA8" fill-opacity="0.25"/>
<path d="M121.926 113.137C121.926 114.484 120.826 115.584 119.479 115.584C118.132 115.584 117.032 114.484 117.032 113.137C117.032 111.791 118.132 110.69 119.479 110.69C120.826 110.69 121.926 111.791 121.926 113.137Z" fill="#512DA8" fill-opacity="0.25"/>
<path d="M143.937 113.137C143.937 114.484 142.836 115.584 141.489 115.584C140.143 115.584 139.042 114.484 139.042 113.137C139.042 111.791 140.143 110.69 141.489 110.69C142.836 110.69 143.937 111.791 143.937 113.137Z" fill="#512DA8" fill-opacity="0.25"/>
<path d="M165.947 113.137C165.947 114.484 164.847 115.584 163.5 115.584C162.153 115.584 161.053 114.484 161.053 113.137C161.053 111.791 162.153 110.69 163.5 110.69C164.847 110.69 165.947 111.791 165.947 113.137Z" fill="#512DA8" fill-opacity="0.25"/>
<path d="M187.958 113.137C187.958 114.484 186.857 115.584 185.511 115.584C184.164 115.584 183.063 114.484 183.063 113.137C183.063 111.791 184.164 110.69 185.511 110.69C186.857 110.69 187.958 111.791 187.958 113.137Z" fill="#512DA8" fill-opacity="0.25"/>
<path d="M209.968 113.137C209.968 114.484 208.868 115.584 207.521 115.584C206.174 115.584 205.074 114.484 205.074 113.137C205.074 111.791 206.174 110.69 207.521 110.69C208.868 110.69 209.968 111.791 209.968 113.137Z" fill="#512DA8" fill-opacity="0.25"/>
<path d="M231.979 113.137C231.979 114.484 230.878 115.584 229.532 115.584C228.185 115.584 227.084 114.484 227.084 113.137C227.084 111.791 228.185 110.69 229.532 110.69C230.878 110.69 231.979 111.791 231.979 113.137Z" fill="#512DA8" fill-opacity="0.25"/>
<path d="M253.989 113.137C253.989 114.484 252.889 115.584 251.542 115.584C250.196 115.584 249.095 114.484 249.095 113.137C249.095 111.791 250.196 110.69 251.542 110.69C252.889 110.69 253.989 111.791 253.989 113.137Z" fill="#512DA8" fill-opacity="0.25"/>
<path d="M276 113.137C276 114.484 274.899 115.584 273.553 115.584C272.206 115.584 271.106 114.484 271.106 113.137C271.106 111.791 272.206 110.69 273.553 110.69C274.899 110.69 276 111.791 276 113.137Z" fill="#512DA8" fill-opacity="0.25"/>
<path d="M55.8945 132.701C55.8945 134.047 54.7939 135.148 53.4472 135.148C52.1005 135.148 51 134.047 51 132.701C51 131.354 52.1005 130.253 53.4472 130.253C54.7939 130.253 55.8945 131.354 55.8945 132.701Z" fill="#512DA8" fill-opacity="0.25"/>
<path d="M77.905 132.701C77.905 134.047 76.8045 135.148 75.4578 135.148C74.1111 135.148 73.0105 134.047 73.0105 132.701C73.0105 131.354 74.1111 130.253 75.4578 130.253C76.8045 130.253 77.905 131.354 77.905 132.701Z" fill="#512DA8" fill-opacity="0.25"/>
<path d="M99.9156 132.701C99.9156 134.047 98.815 135.148 97.4683 135.148C96.1216 135.148 95.0211 134.047 95.0211 132.701C95.0211 131.354 96.1216 130.253 97.4683 130.253C98.815 130.253 99.9156 131.354 99.9156 132.701Z" fill="#512DA8" fill-opacity="0.25"/>
<path d="M121.926 132.701C121.926 134.047 120.826 135.148 119.479 135.148C118.132 135.148 117.032 134.047 117.032 132.701C117.032 131.354 118.132 130.253 119.479 130.253C120.826 130.253 121.926 131.354 121.926 132.701Z" fill="#512DA8" fill-opacity="0.25"/>
<path d="M143.937 132.701C143.937 134.047 142.836 135.148 141.489 135.148C140.143 135.148 139.042 134.047 139.042 132.701C139.042 131.354 140.143 130.253 141.489 130.253C142.836 130.253 143.937 131.354 143.937 132.701Z" fill="#512DA8" fill-opacity="0.25"/>
<path d="M165.947 132.701C165.947 134.047 164.847 135.148 163.5 135.148C162.153 135.148 161.053 134.047 161.053 132.701C161.053 131.354 162.153 130.253 163.5 130.253C164.847 130.253 165.947 131.354 165.947 132.701Z" fill="#512DA8" fill-opacity="0.25"/>
<path d="M187.958 132.701C187.958 134.047 186.857 135.148 185.511 135.148C184.164 135.148 183.063 134.047 183.063 132.701C183.063 131.354 184.164 130.253 185.511 130.253C186.857 130.253 187.958 131.354 187.958 132.701Z" fill="#512DA8" fill-opacity="0.25"/>
<path d="M209.968 132.701C209.968 134.047 208.868 135.148 207.521 135.148C206.174 135.148 205.074 134.047 205.074 132.701C205.074 131.354 206.174 130.253 207.521 130.253C208.868 130.253 209.968 131.354 209.968 132.701Z" fill="#512DA8" fill-opacity="0.25"/>
<path d="M231.979 132.701C231.979 134.047 230.878 135.148 229.532 135.148C228.185 135.148 227.084 134.047 227.084 132.701C227.084 131.354 228.185 130.253 229.532 130.253C230.878 130.253 231.979 131.354 231.979 132.701Z" fill="#512DA8" fill-opacity="0.25"/>
<path d="M253.989 132.701C253.989 134.047 252.889 135.148 251.542 135.148C250.196 135.148 249.095 134.047 249.095 132.701C249.095 131.354 250.196 130.253 251.542 130.253C252.889 130.253 253.989 131.354 253.989 132.701Z" fill="#512DA8" fill-opacity="0.25"/>
<path d="M276 132.701C276 134.047 274.899 135.148 273.553 135.148C272.206 135.148 271.106 134.047 271.106 132.701C271.106 131.354 272.206 130.253 273.553 130.253C274.899 130.253 276 131.354 276 132.701Z" fill="#512DA8" fill-opacity="0.25"/>
<path d="M55.8945 152.264C55.8945 153.611 54.7939 154.711 53.4472 154.711C52.1005 154.711 51 153.611 51 152.264C51 150.917 52.1005 149.817 53.4472 149.817C54.7939 149.817 55.8945 150.917 55.8945 152.264Z" fill="#512DA8" fill-opacity="0.25"/>
<path d="M77.905 152.264C77.905 153.611 76.8045 154.711 75.4578 154.711C74.1111 154.711 73.0105 153.611 73.0105 152.264C73.0105 150.917 74.1111 149.817 75.4578 149.817C76.8045 149.817 77.905 150.917 77.905 152.264Z" fill="#512DA8" fill-opacity="0.25"/>
<path d="M99.9156 152.264C99.9156 153.611 98.815 154.711 97.4683 154.711C96.1216 154.711 95.0211 153.611 95.0211 152.264C95.0211 150.917 96.1216 149.817 97.4683 149.817C98.815 149.817 99.9156 150.917 99.9156 152.264Z" fill="#512DA8" fill-opacity="0.25"/>
<path d="M121.926 152.264C121.926 153.611 120.826 154.711 119.479 154.711C118.132 154.711 117.032 153.611 117.032 152.264C117.032 150.917 118.132 149.817 119.479 149.817C120.826 149.817 121.926 150.917 121.926 152.264Z" fill="#512DA8" fill-opacity="0.25"/>
<path d="M143.937 152.264C143.937 153.611 142.836 154.711 141.489 154.711C140.143 154.711 139.042 153.611 139.042 152.264C139.042 150.917 140.143 149.817 141.489 149.817C142.836 149.817 143.937 150.917 143.937 152.264Z" fill="#512DA8" fill-opacity="0.25"/>
<path d="M165.947 152.264C165.947 153.611 164.847 154.711 163.5 154.711C162.153 154.711 161.053 153.611 161.053 152.264C161.053 150.917 162.153 149.817 163.5 149.817C164.847 149.817 165.947 150.917 165.947 152.264Z" fill="#512DA8" fill-opacity="0.25"/>
<path d="M187.958 152.264C187.958 153.611 186.857 154.711 185.511 154.711C184.164 154.711 183.063 153.611 183.063 152.264C183.063 150.917 184.164 149.817 185.511 149.817C186.857 149.817 187.958 150.917 187.958 152.264Z" fill="#512DA8" fill-opacity="0.25"/>
<path d="M209.968 152.264C209.968 153.611 208.868 154.711 207.521 154.711C206.174 154.711 205.074 153.611 205.074 152.264C205.074 150.917 206.174 149.817 207.521 149.817C208.868 149.817 209.968 150.917 209.968 152.264Z" fill="#512DA8" fill-opacity="0.25"/>
<path d="M231.979 152.264C231.979 153.611 230.878 154.711 229.532 154.711C228.185 154.711 227.084 153.611 227.084 152.264C227.084 150.917 228.185 149.817 229.532 149.817C230.878 149.817 231.979 150.917 231.979 152.264Z" fill="#512DA8" fill-opacity="0.25"/>
<path d="M253.989 152.264C253.989 153.611 252.889 154.711 251.542 154.711C250.196 154.711 249.095 153.611 249.095 152.264C249.095 150.917 250.196 149.817 251.542 149.817C252.889 149.817 253.989 150.917 253.989 152.264Z" fill="#512DA8" fill-opacity="0.25"/>
<path d="M276 152.264C276 153.611 274.899 154.711 273.553 154.711C272.206 154.711 271.106 153.611 271.106 152.264C271.106 150.917 272.206 149.817 273.553 149.817C274.899 149.817 276 150.917 276 152.264Z" fill="#512DA8" fill-opacity="0.25"/>
<path d="M53.4472 174.274C54.7988 174.274 55.8945 173.179 55.8945 171.827C55.8945 170.476 54.7988 169.38 53.4472 169.38C52.0957 169.38 51 170.476 51 171.827C51 173.179 52.0957 174.274 53.4472 174.274Z" fill="#512DA8" fill-opacity="0.25"/>
<path d="M75.4578 174.274C76.8093 174.274 77.905 173.179 77.905 171.827C77.905 170.476 76.8093 169.38 75.4578 169.38C74.1062 169.38 73.0105 170.476 73.0105 171.827C73.0105 173.179 74.1062 174.274 75.4578 174.274Z" fill="#512DA8" fill-opacity="0.25"/>
<path d="M97.4683 174.274C98.8199 174.274 99.9156 173.179 99.9156 171.827C99.9156 170.476 98.8199 169.38 97.4683 169.38C96.1168 169.38 95.0211 170.476 95.0211 171.827C95.0211 173.179 96.1168 174.274 97.4683 174.274Z" fill="#512DA8" fill-opacity="0.25"/>
<path d="M121.926 171.827C121.926 173.174 120.826 174.274 119.479 174.274C118.132 174.274 117.032 173.174 117.032 171.827C117.032 170.48 118.132 169.38 119.479 169.38C120.826 169.394 121.926 170.48 121.926 171.827Z" fill="#512DA8" fill-opacity="0.25"/>
<path d="M143.937 171.827C143.937 173.174 142.836 174.274 141.489 174.274C140.143 174.274 139.042 173.174 139.042 171.827C139.042 170.48 140.143 169.38 141.489 169.38C142.836 169.394 143.937 170.48 143.937 171.827Z" fill="#512DA8" fill-opacity="0.25"/>
<path d="M163.5 174.274C164.852 174.274 165.947 173.179 165.947 171.827C165.947 170.476 164.852 169.38 163.5 169.38C162.148 169.38 161.053 170.476 161.053 171.827C161.053 173.179 162.148 174.274 163.5 174.274Z" fill="#512DA8" fill-opacity="0.25"/>
<path d="M185.511 174.274C186.862 174.274 187.958 173.179 187.958 171.827C187.958 170.476 186.862 169.38 185.511 169.38C184.159 169.38 183.063 170.476 183.063 171.827C183.063 173.179 184.159 174.274 185.511 174.274Z" fill="#512DA8" fill-opacity="0.25"/>
<path d="M207.521 174.274C208.873 174.274 209.968 173.179 209.968 171.827C209.968 170.476 208.873 169.38 207.521 169.38C206.17 169.38 205.074 170.476 205.074 171.827C205.074 173.179 206.17 174.274 207.521 174.274Z" fill="#512DA8" fill-opacity="0.25"/>
<path d="M229.532 174.274C230.883 174.274 231.979 173.179 231.979 171.827C231.979 170.476 230.883 169.38 229.532 169.38C228.18 169.38 227.084 170.476 227.084 171.827C227.084 173.179 228.18 174.274 229.532 174.274Z" fill="#512DA8" fill-opacity="0.25"/>
<path d="M251.542 174.274C252.894 174.274 253.989 173.179 253.989 171.827C253.989 170.476 252.894 169.38 251.542 169.38C250.191 169.38 249.095 170.476 249.095 171.827C249.095 173.179 250.191 174.274 251.542 174.274Z" fill="#512DA8" fill-opacity="0.25"/>
<path d="M273.553 174.274C274.904 174.274 276 173.179 276 171.827C276 170.476 274.904 169.38 273.553 169.38C272.201 169.38 271.106 170.476 271.106 171.827C271.106 173.179 272.201 174.274 273.553 174.274Z" fill="#512DA8" fill-opacity="0.25"/>
<path d="M55.8945 191.405C55.8945 192.752 54.7939 193.852 53.4472 193.852C52.1005 193.852 51 192.752 51 191.405C51 190.058 52.1005 188.958 53.4472 188.958C54.7939 188.958 55.8945 190.044 55.8945 191.405Z" fill="#512DA8" fill-opacity="0.25"/>
<path d="M77.905 191.405C77.905 192.752 76.8045 193.852 75.4578 193.852C74.1111 193.852 73.0105 192.752 73.0105 191.405C73.0105 190.058 74.1111 188.958 75.4578 188.958C76.8045 188.958 77.905 190.044 77.905 191.405Z" fill="#512DA8" fill-opacity="0.25"/>
<path d="M99.9156 191.405C99.9156 192.752 98.815 193.852 97.4683 193.852C96.1216 193.852 95.0211 192.752 95.0211 191.405C95.0211 190.058 96.1216 188.958 97.4683 188.958C98.815 188.958 99.9156 190.044 99.9156 191.405Z" fill="#512DA8" fill-opacity="0.25"/>
<path d="M121.926 191.405C121.926 192.752 120.826 193.852 119.479 193.852C118.132 193.852 117.032 192.752 117.032 191.405C117.032 190.058 118.132 188.958 119.479 188.958C120.826 188.958 121.926 190.044 121.926 191.405Z" fill="#512DA8" fill-opacity="0.25"/>
<path d="M143.937 191.405C143.937 192.752 142.836 193.852 141.489 193.852C140.143 193.852 139.042 192.752 139.042 191.405C139.042 190.058 140.143 188.958 141.489 188.958C142.836 188.958 143.937 190.044 143.937 191.405Z" fill="#512DA8" fill-opacity="0.25"/>
<path d="M165.947 191.405C165.947 192.752 164.847 193.852 163.5 193.852C162.153 193.852 161.053 192.752 161.053 191.405C161.053 190.058 162.153 188.958 163.5 188.958C164.847 188.958 165.947 190.044 165.947 191.405Z" fill="#512DA8" fill-opacity="0.25"/>
<path d="M187.958 191.405C187.958 192.752 186.857 193.852 185.511 193.852C184.164 193.852 183.063 192.752 183.063 191.405C183.063 190.058 184.164 188.958 185.511 188.958C186.857 188.958 187.958 190.044 187.958 191.405Z" fill="#512DA8" fill-opacity="0.25"/>
<path d="M209.968 191.405C209.968 192.752 208.868 193.852 207.521 193.852C206.174 193.852 205.074 192.752 205.074 191.405C205.074 190.058 206.174 188.958 207.521 188.958C208.868 188.958 209.968 190.044 209.968 191.405Z" fill="#512DA8" fill-opacity="0.25"/>
<path d="M231.979 191.405C231.979 192.752 230.878 193.852 229.532 193.852C228.185 193.852 227.084 192.752 227.084 191.405C227.084 190.058 228.185 188.958 229.532 188.958C230.878 188.958 231.979 190.044 231.979 191.405Z" fill="#512DA8" fill-opacity="0.25"/>
<path d="M253.989 191.405C253.989 192.752 252.889 193.852 251.542 193.852C250.196 193.852 249.095 192.752 249.095 191.405C249.095 190.058 250.196 188.958 251.542 188.958C252.889 188.958 253.989 190.044 253.989 191.405Z" fill="#512DA8" fill-opacity="0.25"/>
<path d="M276 191.405C276 192.752 274.899 193.852 273.553 193.852C272.206 193.852 271.106 192.752 271.106 191.405C271.106 190.058 272.206 188.958 273.553 188.958C274.899 188.958 276 190.044 276 191.405Z" fill="#512DA8" fill-opacity="0.25"/>
<path d="M55.8945 210.968C55.8945 212.315 54.7939 213.416 53.4472 213.416C52.1005 213.416 51 212.315 51 210.968C51 209.622 52.1005 208.521 53.4472 208.521C54.7939 208.521 55.8945 209.607 55.8945 210.968Z" fill="#512DA8" fill-opacity="0.25"/>
<path d="M77.905 210.968C77.905 212.315 76.8045 213.416 75.4578 213.416C74.1111 213.416 73.0105 212.315 73.0105 210.968C73.0105 209.622 74.1111 208.521 75.4578 208.521C76.8045 208.521 77.905 209.607 77.905 210.968Z" fill="#512DA8" fill-opacity="0.25"/>
<path d="M99.9156 210.968C99.9156 212.315 98.815 213.416 97.4683 213.416C96.1216 213.416 95.0211 212.315 95.0211 210.968C95.0211 209.622 96.1216 208.521 97.4683 208.521C98.815 208.521 99.9156 209.607 99.9156 210.968Z" fill="#512DA8" fill-opacity="0.25"/>
<path d="M121.926 210.968C121.926 212.315 120.826 213.416 119.479 213.416C118.132 213.416 117.032 212.315 117.032 210.968C117.032 209.622 118.132 208.521 119.479 208.521C120.826 208.521 121.926 209.607 121.926 210.968Z" fill="#512DA8" fill-opacity="0.25"/>
<path d="M143.937 210.968C143.937 212.315 142.836 213.416 141.489 213.416C140.143 213.416 139.042 212.315 139.042 210.968C139.042 209.622 140.143 208.521 141.489 208.521C142.836 208.521 143.937 209.607 143.937 210.968Z" fill="#512DA8" fill-opacity="0.25"/>
<path d="M165.947 210.968C165.947 212.315 164.847 213.416 163.5 213.416C162.153 213.416 161.053 212.315 161.053 210.968C161.053 209.622 162.153 208.521 163.5 208.521C164.847 208.521 165.947 209.607 165.947 210.968Z" fill="#512DA8" fill-opacity="0.25"/>
<path d="M187.958 210.968C187.958 212.315 186.857 213.416 185.511 213.416C184.164 213.416 183.063 212.315 183.063 210.968C183.063 209.622 184.164 208.521 185.511 208.521C186.857 208.521 187.958 209.607 187.958 210.968Z" fill="#512DA8" fill-opacity="0.25"/>
<path d="M209.968 210.968C209.968 212.315 208.868 213.416 207.521 213.416C206.174 213.416 205.074 212.315 205.074 210.968C205.074 209.622 206.174 208.521 207.521 208.521C208.868 208.521 209.968 209.607 209.968 210.968Z" fill="#512DA8" fill-opacity="0.25"/>
<path d="M231.979 210.968C231.979 212.315 230.878 213.416 229.532 213.416C228.185 213.416 227.084 212.315 227.084 210.968C227.084 209.622 228.185 208.521 229.532 208.521C230.878 208.521 231.979 209.607 231.979 210.968Z" fill="#512DA8" fill-opacity="0.25"/>
<path d="M253.989 210.968C253.989 212.315 252.889 213.416 251.542 213.416C250.196 213.416 249.095 212.315 249.095 210.968C249.095 209.622 250.196 208.521 251.542 208.521C252.889 208.521 253.989 209.607 253.989 210.968Z" fill="#512DA8" fill-opacity="0.25"/>
<path d="M276 210.968C276 212.315 274.899 213.416 273.553 213.416C272.206 213.416 271.106 212.315 271.106 210.968C271.106 209.622 272.206 208.521 273.553 208.521C274.899 208.521 276 209.607 276 210.968Z" fill="#512DA8" fill-opacity="0.25"/>
<path d="M55.8945 230.532C55.8945 231.878 54.7939 232.979 53.4472 232.979C52.1005 232.979 51 231.878 51 230.532C51 229.185 52.1005 228.084 53.4472 228.084C54.7939 228.084 55.8945 229.185 55.8945 230.532Z" fill="#512DA8" fill-opacity="0.25"/>
<path d="M77.905 230.532C77.905 231.878 76.8045 232.979 75.4578 232.979C74.1111 232.979 73.0105 231.878 73.0105 230.532C73.0105 229.185 74.1111 228.084 75.4578 228.084C76.8045 228.084 77.905 229.185 77.905 230.532Z" fill="#512DA8" fill-opacity="0.25"/>
<path d="M99.9156 230.532C99.9156 231.878 98.815 232.979 97.4683 232.979C96.1216 232.979 95.0211 231.878 95.0211 230.532C95.0211 229.185 96.1216 228.084 97.4683 228.084C98.815 228.084 99.9156 229.185 99.9156 230.532Z" fill="#512DA8" fill-opacity="0.25"/>
<path d="M121.926 230.532C121.926 231.878 120.826 232.979 119.479 232.979C118.132 232.979 117.032 231.878 117.032 230.532C117.032 229.185 118.132 228.084 119.479 228.084C120.826 228.084 121.926 229.185 121.926 230.532Z" fill="#512DA8" fill-opacity="0.25"/>
<path d="M143.937 230.532C143.937 231.878 142.836 232.979 141.489 232.979C140.143 232.979 139.042 231.878 139.042 230.532C139.042 229.185 140.143 228.084 141.489 228.084C142.836 228.084 143.937 229.185 143.937 230.532Z" fill="#512DA8" fill-opacity="0.25"/>
<path d="M165.947 230.532C165.947 231.878 164.847 232.979 163.5 232.979C162.153 232.979 161.053 231.878 161.053 230.532C161.053 229.185 162.153 228.084 163.5 228.084C164.847 228.084 165.947 229.185 165.947 230.532Z" fill="#512DA8" fill-opacity="0.25"/>
<path d="M187.958 230.532C187.958 231.878 186.857 232.979 185.511 232.979C184.164 232.979 183.063 231.878 183.063 230.532C183.063 229.185 184.164 228.084 185.511 228.084C186.857 228.084 187.958 229.185 187.958 230.532Z" fill="#512DA8" fill-opacity="0.25"/>
<path d="M209.968 230.532C209.968 231.878 208.868 232.979 207.521 232.979C206.174 232.979 205.074 231.878 205.074 230.532C205.074 229.185 206.174 228.084 207.521 228.084C208.868 228.084 209.968 229.185 209.968 230.532Z" fill="#512DA8" fill-opacity="0.25"/>
<path d="M231.979 230.532C231.979 231.878 230.878 232.979 229.532 232.979C228.185 232.979 227.084 231.878 227.084 230.532C227.084 229.185 228.185 228.084 229.532 228.084C230.878 228.084 231.979 229.185 231.979 230.532Z" fill="#512DA8" fill-opacity="0.25"/>
<path d="M253.989 230.532C253.989 231.878 252.889 232.979 251.542 232.979C250.196 232.979 249.095 231.878 249.095 230.532C249.095 229.185 250.196 228.084 251.542 228.084C252.889 228.084 253.989 229.185 253.989 230.532Z" fill="#512DA8" fill-opacity="0.25"/>
<path d="M276 230.532C276 231.878 274.899 232.979 273.553 232.979C272.206 232.979 271.106 231.878 271.106 230.532C271.106 229.185 272.206 228.084 273.553 228.084C274.899 228.084 276 229.185 276 230.532Z" fill="#512DA8" fill-opacity="0.25"/>
<path d="M53.4472 252.542C54.7988 252.542 55.8945 251.447 55.8945 250.095C55.8945 248.743 54.7988 247.648 53.4472 247.648C52.0957 247.648 51 248.743 51 250.095C51 251.447 52.0957 252.542 53.4472 252.542Z" fill="#512DA8" fill-opacity="0.25"/>
<path d="M75.4578 252.542C76.8093 252.542 77.905 251.447 77.905 250.095C77.905 248.743 76.8093 247.648 75.4578 247.648C74.1062 247.648 73.0105 248.743 73.0105 250.095C73.0105 251.447 74.1062 252.542 75.4578 252.542Z" fill="#512DA8" fill-opacity="0.25"/>
<path d="M97.4683 252.542C98.8199 252.542 99.9156 251.447 99.9156 250.095C99.9156 248.743 98.8199 247.648 97.4683 247.648C96.1168 247.648 95.0211 248.743 95.0211 250.095C95.0211 251.447 96.1168 252.542 97.4683 252.542Z" fill="#512DA8" fill-opacity="0.25"/>
<path d="M121.926 250.095C121.926 251.442 120.826 252.542 119.479 252.542C118.132 252.542 117.032 251.442 117.032 250.095C117.032 248.748 118.132 247.648 119.479 247.648C120.826 247.648 121.926 248.748 121.926 250.095Z" fill="#512DA8" fill-opacity="0.25"/>
<path d="M143.937 250.095C143.937 251.442 142.836 252.542 141.489 252.542C140.143 252.542 139.042 251.442 139.042 250.095C139.042 248.748 140.143 247.648 141.489 247.648C142.836 247.648 143.937 248.748 143.937 250.095Z" fill="#512DA8" fill-opacity="0.25"/>
<path d="M163.5 252.542C164.852 252.542 165.947 251.447 165.947 250.095C165.947 248.743 164.852 247.648 163.5 247.648C162.148 247.648 161.053 248.743 161.053 250.095C161.053 251.447 162.148 252.542 163.5 252.542Z" fill="#512DA8" fill-opacity="0.25"/>
<path d="M185.511 252.542C186.862 252.542 187.958 251.447 187.958 250.095C187.958 248.743 186.862 247.648 185.511 247.648C184.159 247.648 183.063 248.743 183.063 250.095C183.063 251.447 184.159 252.542 185.511 252.542Z" fill="#512DA8" fill-opacity="0.25"/>
<path d="M207.521 252.542C208.873 252.542 209.968 251.447 209.968 250.095C209.968 248.743 208.873 247.648 207.521 247.648C206.17 247.648 205.074 248.743 205.074 250.095C205.074 251.447 206.17 252.542 207.521 252.542Z" fill="#512DA8" fill-opacity="0.25"/>
<path d="M229.532 252.542C230.883 252.542 231.979 251.447 231.979 250.095C231.979 248.743 230.883 247.648 229.532 247.648C228.18 247.648 227.084 248.743 227.084 250.095C227.084 251.447 228.18 252.542 229.532 252.542Z" fill="#512DA8" fill-opacity="0.25"/>
<path d="M251.542 252.542C252.894 252.542 253.989 251.447 253.989 250.095C253.989 248.743 252.894 247.648 251.542 247.648C250.191 247.648 249.095 248.743 249.095 250.095C249.095 251.447 250.191 252.542 251.542 252.542Z" fill="#512DA8" fill-opacity="0.25"/>
<path d="M273.553 252.542C274.904 252.542 276 251.447 276 250.095C276 248.743 274.904 247.648 273.553 247.648C272.201 247.648 271.106 248.743 271.106 250.095C271.106 251.447 272.201 252.542 273.553 252.542Z" fill="#512DA8" fill-opacity="0.25"/>
<path d="M55.8945 269.658C55.8945 271.005 54.7939 272.106 53.4472 272.106C52.1005 272.106 51 271.005 51 269.658C51 268.312 52.1005 267.211 53.4472 267.211C54.7939 267.211 55.8945 268.312 55.8945 269.658Z" fill="#512DA8" fill-opacity="0.25"/>
<path d="M77.905 269.658C77.905 271.005 76.8045 272.106 75.4578 272.106C74.1111 272.106 73.0105 271.005 73.0105 269.658C73.0105 268.312 74.1111 267.211 75.4578 267.211C76.8045 267.211 77.905 268.312 77.905 269.658Z" fill="#512DA8" fill-opacity="0.25"/>
<path d="M99.9156 269.658C99.9156 271.005 98.815 272.106 97.4683 272.106C96.1216 272.106 95.0211 271.005 95.0211 269.658C95.0211 268.312 96.1216 267.211 97.4683 267.211C98.815 267.211 99.9156 268.312 99.9156 269.658Z" fill="#512DA8" fill-opacity="0.25"/>
<path d="M121.926 269.658C121.926 271.005 120.826 272.106 119.479 272.106C118.132 272.106 117.032 271.005 117.032 269.658C117.032 268.312 118.132 267.211 119.479 267.211C120.826 267.211 121.926 268.312 121.926 269.658Z" fill="#512DA8" fill-opacity="0.25"/>
<path d="M143.937 269.658C143.937 271.005 142.836 272.106 141.489 272.106C140.143 272.106 139.042 271.005 139.042 269.658C139.042 268.312 140.143 267.211 141.489 267.211C142.836 267.211 143.937 268.312 143.937 269.658Z" fill="#512DA8" fill-opacity="0.25"/>
<path d="M165.947 269.658C165.947 271.005 164.847 272.106 163.5 272.106C162.153 272.106 161.053 271.005 161.053 269.658C161.053 268.312 162.153 267.211 163.5 267.211C164.847 267.211 165.947 268.312 165.947 269.658Z" fill="#512DA8" fill-opacity="0.25"/>
<path d="M187.958 269.658C187.958 271.005 186.857 272.106 185.511 272.106C184.164 272.106 183.063 271.005 183.063 269.658C183.063 268.312 184.164 267.211 185.511 267.211C186.857 267.211 187.958 268.312 187.958 269.658Z" fill="#512DA8" fill-opacity="0.25"/>
<path d="M209.968 269.658C209.968 271.005 208.868 272.106 207.521 272.106C206.174 272.106 205.074 271.005 205.074 269.658C205.074 268.312 206.174 267.211 207.521 267.211C208.868 267.211 209.968 268.312 209.968 269.658Z" fill="#512DA8" fill-opacity="0.25"/>
<path d="M231.979 269.658C231.979 271.005 230.878 272.106 229.532 272.106C228.185 272.106 227.084 271.005 227.084 269.658C227.084 268.312 228.185 267.211 229.532 267.211C230.878 267.211 231.979 268.312 231.979 269.658Z" fill="#512DA8" fill-opacity="0.25"/>
<path d="M253.989 269.658C253.989 271.005 252.889 272.106 251.542 272.106C250.196 272.106 249.095 271.005 249.095 269.658C249.095 268.312 250.196 267.211 251.542 267.211C252.889 267.211 253.989 268.312 253.989 269.658Z" fill="#512DA8" fill-opacity="0.25"/>
<path d="M276 269.658C276 271.005 274.899 272.106 273.553 272.106C272.206 272.106 271.106 271.005 271.106 269.658C271.106 268.312 272.206 267.211 273.553 267.211C274.899 267.211 276 268.312 276 269.658Z" fill="#512DA8" fill-opacity="0.25"/>
<path d="M185.518 135.608C169.179 135.608 155.933 122.396 155.933 106.099C155.933 89.802 169.179 76.5905 185.518 76.5905C201.857 76.5905 215.102 89.802 215.102 106.099C215.102 122.396 201.857 135.608 185.518 135.608Z" fill="#2F2E41"/>
<path d="M89.5796 485.039L102.496 485.038L108.641 435.347L89.5775 435.348L89.5796 485.039Z" fill="#FFB8B8"/>
<path d="M111.722 481.357H86.8125V497H127.405C127.405 494.946 126.999 492.911 126.211 491.014C125.423 489.116 124.268 487.391 122.812 485.939C121.355 484.486 119.626 483.334 117.723 482.547C115.821 481.761 113.781 481.357 111.722 481.357Z" fill="#2F2E41"/>
<path d="M221.334 483.352L233.804 479.998L226.77 430.425L208.365 435.375L221.334 483.352Z" fill="#FFB8B8"/>
<path d="M241.751 474.049L217.701 480.517L221.784 495.621L260.977 485.08C259.894 481.075 257.26 477.662 253.655 475.593C250.049 473.524 245.767 472.969 241.751 474.049Z" fill="#2F2E41"/>
<path d="M196.858 255.118L235.318 472.498L215.595 476.432L153.468 322.987L107.119 475.449L83.4514 472.498C83.4514 472.498 94.2991 254.134 128.814 235.445L196.858 255.118Z" fill="#2F2E41"/>
<path d="M257.852 332.881C256.466 332.193 255.247 331.21 254.283 330.001C253.318 328.792 252.631 327.388 252.27 325.885C251.909 324.383 251.882 322.82 252.192 321.307C252.502 319.793 253.141 318.366 254.064 317.125L232.853 286.102L252.414 285.799L269.557 315.306C271.544 316.99 272.842 319.343 273.206 321.918C273.57 324.494 272.974 327.113 271.531 329.279C270.088 331.446 267.899 333.009 265.378 333.673C262.857 334.337 260.179 334.055 257.852 332.881Z" fill="#FFB8B8"/>
<path d="M117.819 294.52C116.433 293.832 115.214 292.849 114.25 291.64C113.285 290.431 112.598 289.026 112.237 287.524C111.876 286.022 111.849 284.459 112.159 282.946C112.469 281.432 113.108 280.005 114.031 278.764L92.82 247.741L112.381 247.438L129.524 276.945C131.511 278.629 132.809 280.982 133.173 283.557C133.537 286.133 132.941 288.752 131.498 290.918C130.055 293.084 127.866 294.648 125.345 295.312C122.824 295.975 120.146 295.694 117.819 294.52Z" fill="#FFB8B8"/>
<path d="M184.765 141.45C170.474 141.45 158.889 129.895 158.889 115.641C158.889 101.387 170.474 89.832 184.765 89.832C199.055 89.832 210.64 101.387 210.64 115.641C210.64 129.895 199.055 141.45 184.765 141.45Z" fill="#FFB8B8"/>
<path d="M128.814 155.772C129.801 151.838 146.565 152.821 146.565 152.821C146.565 152.821 165.442 148.492 165.264 149.034C181.172 147.812 200.577 153.769 203.403 154.673C209.185 156.264 220.233 161.131 228.201 164.711C229.31 165.21 230.176 166.125 230.613 167.257C231.049 168.39 231.019 169.648 230.53 170.759L206.227 226.101L202.776 262.003L122.898 237.413C142.621 229.544 127.828 159.706 128.814 155.772Z" fill="#0288D1"/>
<path d="M135.717 156.755L129.161 155.113L93.3132 225.609L91.341 265.938L114.022 248.233V232.495L137.689 202.002L135.717 156.755Z" fill="#0288D1"/>
<path d="M222.005 162.166L229.596 165.531C229.992 165.706 230.338 165.975 230.604 166.316C230.87 166.656 231.048 167.056 231.123 167.481L246.166 253.15L260.958 296.43L241.235 306.266L218.554 252.167L210.665 212.822L222.005 162.166Z" fill="#0288D1"/>
<path d="M211.9 103.474C206.648 101.754 201.108 104.451 195.978 106.504C190.922 108.527 185.52 109.985 180.081 109.666C174.643 109.347 169.143 107.056 165.855 102.724C162.567 98.3912 161.989 91.898 165.243 87.5406C167.386 84.672 170.804 83.0354 174.228 81.9696C181.542 79.6925 189.728 79.6138 196.681 82.8264C203.634 86.0389 209.086 92.8255 209.659 100.447" fill="#2F2E41"/>
<path d="M186.306 82.9164C188.07 71.0043 181.528 58.6363 172.6 54.1996C163.671 49.7628 153.196 52.3801 145.153 58.987C137.109 65.5939 131.246 75.7467 126.882 86.5392C122.518 97.3316 119.496 108.891 115.94 120.147C112.782 130.143 109.075 140.146 103.077 147.791C97.0795 155.437 88.3574 160.412 80 158.311C86.8661 167.519 99.4973 165.925 107.334 158.049C115.17 150.173 119.244 137.862 122.45 125.88C125.657 113.897 128.447 101.359 134.65 91.4286C145.686 73.7629 167.342 68.4556 182.808 79.6265" fill="#2F2E41"/>
<path d="M324.899 293.594H698.71C701.704 293.591 704.573 292.404 706.69 290.292C708.806 288.181 709.997 285.319 710 282.334V193.499C709.997 190.514 708.806 187.652 706.69 185.54C704.573 183.429 701.704 182.242 698.71 182.239H324.899C321.906 182.242 319.036 183.429 316.92 185.54C314.803 187.652 313.613 190.514 313.61 193.499V282.334C313.613 285.319 314.803 288.181 316.92 290.292C319.036 292.404 321.906 293.591 324.899 293.594ZM698.71 184.741C701.038 184.744 703.27 185.668 704.916 187.309C706.562 188.951 707.488 191.177 707.491 193.499V282.334C707.488 284.656 706.562 286.882 704.916 288.523C703.27 290.165 701.038 291.089 698.71 291.092H324.899C322.571 291.089 320.34 290.165 318.693 288.523C317.047 286.882 316.121 284.656 316.118 282.334V193.499C316.121 191.177 317.047 188.951 318.693 187.309C320.34 185.668 322.571 184.744 324.899 184.741H698.71Z" fill="#3F3D56"/>
<path d="M343.088 274.826H680.522C680.687 274.827 680.85 274.795 681.003 274.732C681.155 274.67 681.294 274.577 681.411 274.461C681.528 274.345 681.621 274.207 681.684 274.055C681.747 273.903 681.78 273.74 681.78 273.575C681.78 273.411 681.747 273.248 681.684 273.096C681.621 272.944 681.528 272.805 681.411 272.689C681.294 272.573 681.155 272.481 681.003 272.418C680.85 272.356 680.687 272.324 680.522 272.324H343.088C342.923 272.324 342.76 272.356 342.607 272.418C342.454 272.481 342.316 272.573 342.199 272.689C342.082 272.805 341.989 272.944 341.926 273.096C341.863 273.248 341.83 273.411 341.83 273.575C341.83 273.74 341.863 273.903 341.926 274.055C341.989 274.207 342.082 274.345 342.199 274.461C342.316 274.577 342.454 274.67 342.607 274.732C342.76 274.795 342.923 274.827 343.088 274.826Z" fill="#E6E6E6"/>
<path d="M381.933 233.791H354.12C353.785 233.792 353.465 233.922 353.229 234.152C352.992 234.383 352.86 234.695 352.86 235.02C352.86 235.346 352.992 235.658 353.229 235.889C353.465 236.119 353.785 236.249 354.12 236.25H366.762V257.998C366.74 259.574 367.336 261.1 368.43 262.263C369.523 263.426 371.032 264.14 372.648 264.259C372.727 264.263 372.808 264.264 372.891 264.264C373.885 264.246 374.859 263.993 375.729 263.526C376.6 263.059 377.341 262.393 377.887 261.586C378.088 261.325 378.174 260.997 378.126 260.675C378.078 260.352 377.901 260.061 377.633 259.866C377.365 259.67 377.028 259.586 376.697 259.632C376.365 259.678 376.066 259.85 375.865 260.111C375.543 260.632 375.086 261.062 374.54 261.359C373.995 261.655 373.379 261.808 372.754 261.802C371.788 261.715 370.892 261.273 370.249 260.566C369.606 259.86 369.263 258.942 369.291 257.998V236.25H381.933C382.099 236.251 382.264 236.219 382.418 236.158C382.572 236.096 382.711 236.006 382.829 235.891C382.947 235.777 383.04 235.641 383.104 235.492C383.168 235.342 383.201 235.182 383.201 235.02C383.201 234.859 383.168 234.698 383.104 234.549C383.04 234.399 382.947 234.264 382.829 234.149C382.711 234.035 382.572 233.945 382.418 233.883C382.264 233.822 382.099 233.79 381.933 233.791Z" fill="#0288D1"/>
<path d="M550.691 342.39C545.149 342.39 540.656 337.909 540.656 332.381C540.656 326.853 545.149 322.371 550.691 322.371C556.234 322.371 560.726 326.853 560.726 332.381C560.726 337.909 556.234 342.39 550.691 342.39Z" fill="#E6E6E6"/>
<path d="M511.805 342.39C506.263 342.39 501.77 337.909 501.77 332.381C501.77 326.853 506.263 322.371 511.805 322.371C517.347 322.371 521.84 326.853 521.84 332.381C521.84 337.909 517.347 342.39 511.805 342.39Z" fill="#0288D1"/>
<path d="M472.918 342.39C467.376 342.39 462.883 337.909 462.883 332.381C462.883 326.853 467.376 322.371 472.918 322.371C478.461 322.371 482.954 326.853 482.954 332.381C482.954 337.909 478.461 342.39 472.918 342.39Z" fill="#E6E6E6"/>
<path d="M415.543 263.605C415.134 263.591 414.746 263.419 414.461 263.125C414.176 262.831 414.017 262.438 414.017 262.029C414.017 261.62 414.176 261.227 414.461 260.933C414.746 260.639 415.134 260.467 415.543 260.453C415.953 260.467 416.341 260.639 416.626 260.933C416.911 261.227 417.07 261.62 417.07 262.029C417.07 262.438 416.911 262.831 416.626 263.125C416.341 263.419 415.953 263.591 415.543 263.605Z" fill="#3F3D56"/>
<path d="M405.508 263.605C405.098 263.591 404.71 263.419 404.426 263.125C404.141 262.831 403.982 262.438 403.982 262.029C403.982 261.62 404.141 261.227 404.426 260.933C404.71 260.639 405.098 260.467 405.508 260.453C405.918 260.467 406.306 260.639 406.591 260.933C406.875 261.227 407.035 261.62 407.035 262.029C407.035 262.438 406.875 262.831 406.591 263.125C406.306 263.419 405.918 263.591 405.508 263.605Z" fill="#3F3D56"/>
<path d="M395.473 263.605C395.063 263.591 394.675 263.419 394.39 263.125C394.106 262.831 393.947 262.438 393.947 262.029C393.947 261.62 394.106 261.227 394.39 260.933C394.675 260.639 395.063 260.467 395.473 260.453C395.883 260.467 396.271 260.639 396.556 260.933C396.84 261.227 396.999 261.62 396.999 262.029C396.999 262.438 396.84 262.831 396.556 263.125C396.271 263.419 395.883 263.591 395.473 263.605Z" fill="#3F3D56"/>
</svg>
