<svg width="790" height="550" viewBox="0 0 790 550" fill="none" xmlns="http://www.w3.org/2000/svg">
<path d="M53.4472 56.8944C54.7988 56.8944 55.8945 55.7988 55.8945 54.4472C55.8945 53.0956 54.7988 52 53.4472 52C52.0957 52 51 53.0956 51 54.4472C51 55.7988 52.0957 56.8944 53.4472 56.8944Z" fill="#512DA8" fill-opacity="0.25"/>
<path d="M75.4577 56.8944C76.8093 56.8944 77.9049 55.7988 77.9049 54.4472C77.9049 53.0956 76.8093 52 75.4577 52C74.1062 52 73.0105 53.0956 73.0105 54.4472C73.0105 55.7988 74.1062 56.8944 75.4577 56.8944Z" fill="#512DA8" fill-opacity="0.25"/>
<path d="M97.4683 56.8944C98.8199 56.8944 99.9156 55.7988 99.9156 54.4472C99.9156 53.0956 98.8199 52 97.4683 52C96.1168 52 95.0211 53.0956 95.0211 54.4472C95.0211 55.7988 96.1168 56.8944 97.4683 56.8944Z" fill="#512DA8" fill-opacity="0.25"/>
<path d="M121.926 54.4472C121.926 55.7939 120.826 56.8944 119.479 56.8944C118.132 56.8944 117.032 55.7939 117.032 54.4472C117.032 53.1005 118.132 52 119.479 52C120.826 52 121.926 53.1005 121.926 54.4472Z" fill="#512DA8" fill-opacity="0.25"/>
<path d="M143.937 54.4472C143.937 55.7939 142.836 56.8944 141.489 56.8944C140.143 56.8944 139.042 55.7939 139.042 54.4472C139.042 53.1005 140.143 52 141.489 52C142.836 52 143.937 53.1005 143.937 54.4472Z" fill="#512DA8" fill-opacity="0.25"/>
<path d="M163.5 56.8944C164.852 56.8944 165.947 55.7988 165.947 54.4472C165.947 53.0956 164.852 52 163.5 52C162.148 52 161.053 53.0956 161.053 54.4472C161.053 55.7988 162.148 56.8944 163.5 56.8944Z" fill="#512DA8" fill-opacity="0.25"/>
<path d="M185.511 56.8944C186.862 56.8944 187.958 55.7988 187.958 54.4472C187.958 53.0956 186.862 52 185.511 52C184.159 52 183.063 53.0956 183.063 54.4472C183.063 55.7988 184.159 56.8944 185.511 56.8944Z" fill="#512DA8" fill-opacity="0.25"/>
<path d="M207.521 56.8944C208.873 56.8944 209.968 55.7988 209.968 54.4472C209.968 53.0956 208.873 52 207.521 52C206.17 52 205.074 53.0956 205.074 54.4472C205.074 55.7988 206.17 56.8944 207.521 56.8944Z" fill="#512DA8" fill-opacity="0.25"/>
<path d="M229.532 56.8944C230.883 56.8944 231.979 55.7988 231.979 54.4472C231.979 53.0956 230.883 52 229.532 52C228.18 52 227.084 53.0956 227.084 54.4472C227.084 55.7988 228.18 56.8944 229.532 56.8944Z" fill="#512DA8" fill-opacity="0.25"/>
<path d="M251.542 56.8944C252.894 56.8944 253.989 55.7988 253.989 54.4472C253.989 53.0956 252.894 52 251.542 52C250.191 52 249.095 53.0956 249.095 54.4472C249.095 55.7988 250.191 56.8944 251.542 56.8944Z" fill="#512DA8" fill-opacity="0.25"/>
<path d="M273.553 56.8944C274.904 56.8944 276 55.7988 276 54.4472C276 53.0956 274.904 52 273.553 52C272.201 52 271.106 53.0956 271.106 54.4472C271.106 55.7988 272.201 56.8944 273.553 56.8944Z" fill="#512DA8" fill-opacity="0.25"/>
<path d="M53.4472 76.4578C54.7988 76.4578 55.8945 75.3621 55.8945 74.0106C55.8945 72.659 54.7988 71.5634 53.4472 71.5634C52.0957 71.5634 51 72.659 51 74.0106C51 75.3621 52.0957 76.4578 53.4472 76.4578Z" fill="#512DA8" fill-opacity="0.25"/>
<path d="M75.4577 76.4578C76.8093 76.4578 77.9049 75.3621 77.9049 74.0106C77.9049 72.659 76.8093 71.5634 75.4577 71.5634C74.1062 71.5634 73.0105 72.659 73.0105 74.0106C73.0105 75.3621 74.1062 76.4578 75.4577 76.4578Z" fill="#512DA8" fill-opacity="0.25"/>
<path d="M97.4683 76.4578C98.8199 76.4578 99.9156 75.3621 99.9156 74.0106C99.9156 72.659 98.8199 71.5634 97.4683 71.5634C96.1168 71.5634 95.0211 72.659 95.0211 74.0106C95.0211 75.3621 96.1168 76.4578 97.4683 76.4578Z" fill="#512DA8" fill-opacity="0.25"/>
<path d="M121.926 74.0106C121.926 75.3573 120.826 76.4578 119.479 76.4578C118.132 76.4578 117.032 75.3573 117.032 74.0106C117.032 72.6639 118.132 71.5634 119.479 71.5634C120.826 71.5634 121.926 72.6639 121.926 74.0106Z" fill="#512DA8" fill-opacity="0.25"/>
<path d="M143.937 74.0106C143.937 75.3573 142.836 76.4578 141.489 76.4578C140.143 76.4578 139.042 75.3573 139.042 74.0106C139.042 72.6639 140.143 71.5634 141.489 71.5634C142.836 71.5634 143.937 72.6639 143.937 74.0106Z" fill="#512DA8" fill-opacity="0.25"/>
<path d="M163.5 76.4578C164.852 76.4578 165.947 75.3621 165.947 74.0106C165.947 72.659 164.852 71.5634 163.5 71.5634C162.148 71.5634 161.053 72.659 161.053 74.0106C161.053 75.3621 162.148 76.4578 163.5 76.4578Z" fill="#512DA8" fill-opacity="0.25"/>
<path d="M185.511 76.4578C186.862 76.4578 187.958 75.3621 187.958 74.0106C187.958 72.659 186.862 71.5634 185.511 71.5634C184.159 71.5634 183.063 72.659 183.063 74.0106C183.063 75.3621 184.159 76.4578 185.511 76.4578Z" fill="#512DA8" fill-opacity="0.25"/>
<path d="M207.521 76.4578C208.873 76.4578 209.968 75.3621 209.968 74.0106C209.968 72.659 208.873 71.5634 207.521 71.5634C206.17 71.5634 205.074 72.659 205.074 74.0106C205.074 75.3621 206.17 76.4578 207.521 76.4578Z" fill="#512DA8" fill-opacity="0.25"/>
<path d="M229.532 76.4578C230.883 76.4578 231.979 75.3621 231.979 74.0106C231.979 72.659 230.883 71.5634 229.532 71.5634C228.18 71.5634 227.084 72.659 227.084 74.0106C227.084 75.3621 228.18 76.4578 229.532 76.4578Z" fill="#512DA8" fill-opacity="0.25"/>
<path d="M251.542 76.4578C252.894 76.4578 253.989 75.3621 253.989 74.0106C253.989 72.659 252.894 71.5634 251.542 71.5634C250.191 71.5634 249.095 72.659 249.095 74.0106C249.095 75.3621 250.191 76.4578 251.542 76.4578Z" fill="#512DA8" fill-opacity="0.25"/>
<path d="M273.553 76.4578C274.904 76.4578 276 75.3621 276 74.0106C276 72.659 274.904 71.5634 273.553 71.5634C272.201 71.5634 271.106 72.659 271.106 74.0106C271.106 75.3621 272.201 76.4578 273.553 76.4578Z" fill="#512DA8" fill-opacity="0.25"/>
<path d="M53.4472 96.0212C54.7988 96.0212 55.8945 94.9255 55.8945 93.5739C55.8945 92.2224 54.7988 91.1267 53.4472 91.1267C52.0957 91.1267 51 92.2224 51 93.5739C51 94.9255 52.0957 96.0212 53.4472 96.0212Z" fill="#512DA8" fill-opacity="0.25"/>
<path d="M75.4577 96.0212C76.8093 96.0212 77.9049 94.9255 77.9049 93.5739C77.9049 92.2224 76.8093 91.1267 75.4577 91.1267C74.1062 91.1267 73.0105 92.2224 73.0105 93.5739C73.0105 94.9255 74.1062 96.0212 75.4577 96.0212Z" fill="#512DA8" fill-opacity="0.25"/>
<path d="M97.4683 96.0212C98.8199 96.0212 99.9156 94.9255 99.9156 93.5739C99.9156 92.2224 98.8199 91.1267 97.4683 91.1267C96.1168 91.1267 95.0211 92.2224 95.0211 93.5739C95.0211 94.9255 96.1168 96.0212 97.4683 96.0212Z" fill="#512DA8" fill-opacity="0.25"/>
<path d="M121.926 93.5739C121.926 94.9206 120.826 96.0212 119.479 96.0212C118.132 96.0212 117.032 94.9206 117.032 93.5739C117.032 92.2272 118.132 91.1267 119.479 91.1267C120.826 91.1267 121.926 92.2272 121.926 93.5739Z" fill="#512DA8" fill-opacity="0.25"/>
<path d="M143.937 93.5739C143.937 94.9206 142.836 96.0212 141.489 96.0212C140.143 96.0212 139.042 94.9206 139.042 93.5739C139.042 92.2272 140.143 91.1267 141.489 91.1267C142.836 91.1267 143.937 92.2272 143.937 93.5739Z" fill="#512DA8" fill-opacity="0.25"/>
<path d="M163.5 96.0212C164.852 96.0212 165.947 94.9255 165.947 93.5739C165.947 92.2224 164.852 91.1267 163.5 91.1267C162.148 91.1267 161.053 92.2224 161.053 93.5739C161.053 94.9255 162.148 96.0212 163.5 96.0212Z" fill="#512DA8" fill-opacity="0.25"/>
<path d="M185.511 96.0212C186.862 96.0212 187.958 94.9255 187.958 93.5739C187.958 92.2224 186.862 91.1267 185.511 91.1267C184.159 91.1267 183.063 92.2224 183.063 93.5739C183.063 94.9255 184.159 96.0212 185.511 96.0212Z" fill="#512DA8" fill-opacity="0.25"/>
<path d="M207.521 96.0212C208.873 96.0212 209.968 94.9255 209.968 93.5739C209.968 92.2224 208.873 91.1267 207.521 91.1267C206.17 91.1267 205.074 92.2224 205.074 93.5739C205.074 94.9255 206.17 96.0212 207.521 96.0212Z" fill="#512DA8" fill-opacity="0.25"/>
<path d="M229.532 96.0212C230.883 96.0212 231.979 94.9255 231.979 93.5739C231.979 92.2224 230.883 91.1267 229.532 91.1267C228.18 91.1267 227.084 92.2224 227.084 93.5739C227.084 94.9255 228.18 96.0212 229.532 96.0212Z" fill="#512DA8" fill-opacity="0.25"/>
<path d="M251.542 96.0212C252.894 96.0212 253.989 94.9255 253.989 93.5739C253.989 92.2224 252.894 91.1267 251.542 91.1267C250.191 91.1267 249.095 92.2224 249.095 93.5739C249.095 94.9255 250.191 96.0212 251.542 96.0212Z" fill="#512DA8" fill-opacity="0.25"/>
<path d="M273.553 96.0212C274.904 96.0212 276 94.9255 276 93.5739C276 92.2224 274.904 91.1267 273.553 91.1267C272.201 91.1267 271.106 92.2224 271.106 93.5739C271.106 94.9255 272.201 96.0212 273.553 96.0212Z" fill="#512DA8" fill-opacity="0.25"/>
<path d="M55.8945 113.137C55.8945 114.484 54.7939 115.584 53.4472 115.584C52.1005 115.584 51 114.484 51 113.137C51 111.791 52.1005 110.69 53.4472 110.69C54.7939 110.69 55.8945 111.791 55.8945 113.137Z" fill="#512DA8" fill-opacity="0.25"/>
<path d="M77.9049 113.137C77.9049 114.484 76.8044 115.584 75.4577 115.584C74.111 115.584 73.0105 114.484 73.0105 113.137C73.0105 111.791 74.111 110.69 75.4577 110.69C76.8044 110.69 77.9049 111.791 77.9049 113.137Z" fill="#512DA8" fill-opacity="0.25"/>
<path d="M99.9156 113.137C99.9156 114.484 98.815 115.584 97.4683 115.584C96.1216 115.584 95.0211 114.484 95.0211 113.137C95.0211 111.791 96.1216 110.69 97.4683 110.69C98.815 110.69 99.9156 111.791 99.9156 113.137Z" fill="#512DA8" fill-opacity="0.25"/>
<path d="M121.926 113.137C121.926 114.484 120.826 115.584 119.479 115.584C118.132 115.584 117.032 114.484 117.032 113.137C117.032 111.791 118.132 110.69 119.479 110.69C120.826 110.69 121.926 111.791 121.926 113.137Z" fill="#512DA8" fill-opacity="0.25"/>
<path d="M143.937 113.137C143.937 114.484 142.836 115.584 141.489 115.584C140.143 115.584 139.042 114.484 139.042 113.137C139.042 111.791 140.143 110.69 141.489 110.69C142.836 110.69 143.937 111.791 143.937 113.137Z" fill="#512DA8" fill-opacity="0.25"/>
<path d="M165.947 113.137C165.947 114.484 164.847 115.584 163.5 115.584C162.153 115.584 161.053 114.484 161.053 113.137C161.053 111.791 162.153 110.69 163.5 110.69C164.847 110.69 165.947 111.791 165.947 113.137Z" fill="#512DA8" fill-opacity="0.25"/>
<path d="M187.958 113.137C187.958 114.484 186.857 115.584 185.511 115.584C184.164 115.584 183.063 114.484 183.063 113.137C183.063 111.791 184.164 110.69 185.511 110.69C186.857 110.69 187.958 111.791 187.958 113.137Z" fill="#512DA8" fill-opacity="0.25"/>
<path d="M209.968 113.137C209.968 114.484 208.868 115.584 207.521 115.584C206.174 115.584 205.074 114.484 205.074 113.137C205.074 111.791 206.174 110.69 207.521 110.69C208.868 110.69 209.968 111.791 209.968 113.137Z" fill="#512DA8" fill-opacity="0.25"/>
<path d="M231.979 113.137C231.979 114.484 230.878 115.584 229.532 115.584C228.185 115.584 227.084 114.484 227.084 113.137C227.084 111.791 228.185 110.69 229.532 110.69C230.878 110.69 231.979 111.791 231.979 113.137Z" fill="#512DA8" fill-opacity="0.25"/>
<path d="M253.989 113.137C253.989 114.484 252.889 115.584 251.542 115.584C250.196 115.584 249.095 114.484 249.095 113.137C249.095 111.791 250.196 110.69 251.542 110.69C252.889 110.69 253.989 111.791 253.989 113.137Z" fill="#512DA8" fill-opacity="0.25"/>
<path d="M276 113.137C276 114.484 274.9 115.584 273.553 115.584C272.206 115.584 271.106 114.484 271.106 113.137C271.106 111.791 272.206 110.69 273.553 110.69C274.9 110.69 276 111.791 276 113.137Z" fill="#512DA8" fill-opacity="0.25"/>
<path d="M55.8945 132.701C55.8945 134.047 54.7939 135.148 53.4472 135.148C52.1005 135.148 51 134.047 51 132.701C51 131.354 52.1005 130.253 53.4472 130.253C54.7939 130.253 55.8945 131.354 55.8945 132.701Z" fill="#512DA8" fill-opacity="0.25"/>
<path d="M77.9049 132.701C77.9049 134.047 76.8044 135.148 75.4577 135.148C74.111 135.148 73.0105 134.047 73.0105 132.701C73.0105 131.354 74.111 130.253 75.4577 130.253C76.8044 130.253 77.9049 131.354 77.9049 132.701Z" fill="#512DA8" fill-opacity="0.25"/>
<path d="M99.9156 132.701C99.9156 134.047 98.815 135.148 97.4683 135.148C96.1216 135.148 95.0211 134.047 95.0211 132.701C95.0211 131.354 96.1216 130.253 97.4683 130.253C98.815 130.253 99.9156 131.354 99.9156 132.701Z" fill="#512DA8" fill-opacity="0.25"/>
<path d="M121.926 132.701C121.926 134.047 120.826 135.148 119.479 135.148C118.132 135.148 117.032 134.047 117.032 132.701C117.032 131.354 118.132 130.253 119.479 130.253C120.826 130.253 121.926 131.354 121.926 132.701Z" fill="#512DA8" fill-opacity="0.25"/>
<path d="M143.937 132.701C143.937 134.047 142.836 135.148 141.489 135.148C140.143 135.148 139.042 134.047 139.042 132.701C139.042 131.354 140.143 130.253 141.489 130.253C142.836 130.253 143.937 131.354 143.937 132.701Z" fill="#512DA8" fill-opacity="0.25"/>
<path d="M165.947 132.701C165.947 134.047 164.847 135.148 163.5 135.148C162.153 135.148 161.053 134.047 161.053 132.701C161.053 131.354 162.153 130.253 163.5 130.253C164.847 130.253 165.947 131.354 165.947 132.701Z" fill="#512DA8" fill-opacity="0.25"/>
<path d="M187.958 132.701C187.958 134.047 186.857 135.148 185.511 135.148C184.164 135.148 183.063 134.047 183.063 132.701C183.063 131.354 184.164 130.253 185.511 130.253C186.857 130.253 187.958 131.354 187.958 132.701Z" fill="#512DA8" fill-opacity="0.25"/>
<path d="M209.968 132.701C209.968 134.047 208.868 135.148 207.521 135.148C206.174 135.148 205.074 134.047 205.074 132.701C205.074 131.354 206.174 130.253 207.521 130.253C208.868 130.253 209.968 131.354 209.968 132.701Z" fill="#512DA8" fill-opacity="0.25"/>
<path d="M231.979 132.701C231.979 134.047 230.878 135.148 229.532 135.148C228.185 135.148 227.084 134.047 227.084 132.701C227.084 131.354 228.185 130.253 229.532 130.253C230.878 130.253 231.979 131.354 231.979 132.701Z" fill="#512DA8" fill-opacity="0.25"/>
<path d="M253.989 132.701C253.989 134.047 252.889 135.148 251.542 135.148C250.196 135.148 249.095 134.047 249.095 132.701C249.095 131.354 250.196 130.253 251.542 130.253C252.889 130.253 253.989 131.354 253.989 132.701Z" fill="#512DA8" fill-opacity="0.25"/>
<path d="M276 132.701C276 134.047 274.9 135.148 273.553 135.148C272.206 135.148 271.106 134.047 271.106 132.701C271.106 131.354 272.206 130.253 273.553 130.253C274.9 130.253 276 131.354 276 132.701Z" fill="#512DA8" fill-opacity="0.25"/>
<path d="M55.8945 152.264C55.8945 153.611 54.7939 154.711 53.4472 154.711C52.1005 154.711 51 153.611 51 152.264C51 150.917 52.1005 149.817 53.4472 149.817C54.7939 149.817 55.8945 150.917 55.8945 152.264Z" fill="#512DA8" fill-opacity="0.25"/>
<path d="M77.9049 152.264C77.9049 153.611 76.8044 154.711 75.4577 154.711C74.111 154.711 73.0105 153.611 73.0105 152.264C73.0105 150.917 74.111 149.817 75.4577 149.817C76.8044 149.817 77.9049 150.917 77.9049 152.264Z" fill="#512DA8" fill-opacity="0.25"/>
<path d="M99.9156 152.264C99.9156 153.611 98.815 154.711 97.4683 154.711C96.1216 154.711 95.0211 153.611 95.0211 152.264C95.0211 150.917 96.1216 149.817 97.4683 149.817C98.815 149.817 99.9156 150.917 99.9156 152.264Z" fill="#512DA8" fill-opacity="0.25"/>
<path d="M121.926 152.264C121.926 153.611 120.826 154.711 119.479 154.711C118.132 154.711 117.032 153.611 117.032 152.264C117.032 150.917 118.132 149.817 119.479 149.817C120.826 149.817 121.926 150.917 121.926 152.264Z" fill="#512DA8" fill-opacity="0.25"/>
<path d="M143.937 152.264C143.937 153.611 142.836 154.711 141.489 154.711C140.143 154.711 139.042 153.611 139.042 152.264C139.042 150.917 140.143 149.817 141.489 149.817C142.836 149.817 143.937 150.917 143.937 152.264Z" fill="#512DA8" fill-opacity="0.25"/>
<path d="M165.947 152.264C165.947 153.611 164.847 154.711 163.5 154.711C162.153 154.711 161.053 153.611 161.053 152.264C161.053 150.917 162.153 149.817 163.5 149.817C164.847 149.817 165.947 150.917 165.947 152.264Z" fill="#512DA8" fill-opacity="0.25"/>
<path d="M187.958 152.264C187.958 153.611 186.857 154.711 185.511 154.711C184.164 154.711 183.063 153.611 183.063 152.264C183.063 150.917 184.164 149.817 185.511 149.817C186.857 149.817 187.958 150.917 187.958 152.264Z" fill="#512DA8" fill-opacity="0.25"/>
<path d="M209.968 152.264C209.968 153.611 208.868 154.711 207.521 154.711C206.174 154.711 205.074 153.611 205.074 152.264C205.074 150.917 206.174 149.817 207.521 149.817C208.868 149.817 209.968 150.917 209.968 152.264Z" fill="#512DA8" fill-opacity="0.25"/>
<path d="M231.979 152.264C231.979 153.611 230.878 154.711 229.532 154.711C228.185 154.711 227.084 153.611 227.084 152.264C227.084 150.917 228.185 149.817 229.532 149.817C230.878 149.817 231.979 150.917 231.979 152.264Z" fill="#512DA8" fill-opacity="0.25"/>
<path d="M253.989 152.264C253.989 153.611 252.889 154.711 251.542 154.711C250.196 154.711 249.095 153.611 249.095 152.264C249.095 150.917 250.196 149.817 251.542 149.817C252.889 149.817 253.989 150.917 253.989 152.264Z" fill="#512DA8" fill-opacity="0.25"/>
<path d="M276 152.264C276 153.611 274.9 154.711 273.553 154.711C272.206 154.711 271.106 153.611 271.106 152.264C271.106 150.917 272.206 149.817 273.553 149.817C274.9 149.817 276 150.917 276 152.264Z" fill="#512DA8" fill-opacity="0.25"/>
<path d="M53.4472 174.274C54.7988 174.274 55.8945 173.179 55.8945 171.827C55.8945 170.476 54.7988 169.38 53.4472 169.38C52.0957 169.38 51 170.476 51 171.827C51 173.179 52.0957 174.274 53.4472 174.274Z" fill="#512DA8" fill-opacity="0.25"/>
<path d="M75.4577 174.274C76.8093 174.274 77.9049 173.179 77.9049 171.827C77.9049 170.476 76.8093 169.38 75.4577 169.38C74.1062 169.38 73.0105 170.476 73.0105 171.827C73.0105 173.179 74.1062 174.274 75.4577 174.274Z" fill="#512DA8" fill-opacity="0.25"/>
<path d="M97.4683 174.274C98.8199 174.274 99.9156 173.179 99.9156 171.827C99.9156 170.476 98.8199 169.38 97.4683 169.38C96.1168 169.38 95.0211 170.476 95.0211 171.827C95.0211 173.179 96.1168 174.274 97.4683 174.274Z" fill="#512DA8" fill-opacity="0.25"/>
<path d="M121.926 171.827C121.926 173.174 120.826 174.274 119.479 174.274C118.132 174.274 117.032 173.174 117.032 171.827C117.032 170.48 118.132 169.38 119.479 169.38C120.826 169.394 121.926 170.48 121.926 171.827Z" fill="#512DA8" fill-opacity="0.25"/>
<path d="M143.937 171.827C143.937 173.174 142.836 174.274 141.489 174.274C140.143 174.274 139.042 173.174 139.042 171.827C139.042 170.48 140.143 169.38 141.489 169.38C142.836 169.394 143.937 170.48 143.937 171.827Z" fill="#512DA8" fill-opacity="0.25"/>
<path d="M163.5 174.274C164.852 174.274 165.947 173.179 165.947 171.827C165.947 170.476 164.852 169.38 163.5 169.38C162.148 169.38 161.053 170.476 161.053 171.827C161.053 173.179 162.148 174.274 163.5 174.274Z" fill="#512DA8" fill-opacity="0.25"/>
<path d="M185.511 174.274C186.862 174.274 187.958 173.179 187.958 171.827C187.958 170.476 186.862 169.38 185.511 169.38C184.159 169.38 183.063 170.476 183.063 171.827C183.063 173.179 184.159 174.274 185.511 174.274Z" fill="#512DA8" fill-opacity="0.25"/>
<path d="M207.521 174.274C208.873 174.274 209.968 173.179 209.968 171.827C209.968 170.476 208.873 169.38 207.521 169.38C206.17 169.38 205.074 170.476 205.074 171.827C205.074 173.179 206.17 174.274 207.521 174.274Z" fill="#512DA8" fill-opacity="0.25"/>
<path d="M229.532 174.274C230.883 174.274 231.979 173.179 231.979 171.827C231.979 170.476 230.883 169.38 229.532 169.38C228.18 169.38 227.084 170.476 227.084 171.827C227.084 173.179 228.18 174.274 229.532 174.274Z" fill="#512DA8" fill-opacity="0.25"/>
<path d="M251.542 174.274C252.894 174.274 253.989 173.179 253.989 171.827C253.989 170.476 252.894 169.38 251.542 169.38C250.191 169.38 249.095 170.476 249.095 171.827C249.095 173.179 250.191 174.274 251.542 174.274Z" fill="#512DA8" fill-opacity="0.25"/>
<path d="M273.553 174.274C274.904 174.274 276 173.179 276 171.827C276 170.476 274.904 169.38 273.553 169.38C272.201 169.38 271.106 170.476 271.106 171.827C271.106 173.179 272.201 174.274 273.553 174.274Z" fill="#512DA8" fill-opacity="0.25"/>
<path d="M55.8945 191.405C55.8945 192.752 54.7939 193.852 53.4472 193.852C52.1005 193.852 51 192.752 51 191.405C51 190.058 52.1005 188.958 53.4472 188.958C54.7939 188.958 55.8945 190.044 55.8945 191.405Z" fill="#512DA8" fill-opacity="0.25"/>
<path d="M77.9049 191.405C77.9049 192.752 76.8044 193.852 75.4577 193.852C74.111 193.852 73.0105 192.752 73.0105 191.405C73.0105 190.058 74.111 188.958 75.4577 188.958C76.8044 188.958 77.9049 190.044 77.9049 191.405Z" fill="#512DA8" fill-opacity="0.25"/>
<path d="M99.9156 191.405C99.9156 192.752 98.815 193.852 97.4683 193.852C96.1216 193.852 95.0211 192.752 95.0211 191.405C95.0211 190.058 96.1216 188.958 97.4683 188.958C98.815 188.958 99.9156 190.044 99.9156 191.405Z" fill="#512DA8" fill-opacity="0.25"/>
<path d="M121.926 191.405C121.926 192.752 120.826 193.852 119.479 193.852C118.132 193.852 117.032 192.752 117.032 191.405C117.032 190.058 118.132 188.958 119.479 188.958C120.826 188.958 121.926 190.044 121.926 191.405Z" fill="#512DA8" fill-opacity="0.25"/>
<path d="M143.937 191.405C143.937 192.752 142.836 193.852 141.489 193.852C140.143 193.852 139.042 192.752 139.042 191.405C139.042 190.058 140.143 188.958 141.489 188.958C142.836 188.958 143.937 190.044 143.937 191.405Z" fill="#512DA8" fill-opacity="0.25"/>
<path d="M165.947 191.405C165.947 192.752 164.847 193.852 163.5 193.852C162.153 193.852 161.053 192.752 161.053 191.405C161.053 190.058 162.153 188.958 163.5 188.958C164.847 188.958 165.947 190.044 165.947 191.405Z" fill="#512DA8" fill-opacity="0.25"/>
<path d="M187.958 191.405C187.958 192.752 186.857 193.852 185.511 193.852C184.164 193.852 183.063 192.752 183.063 191.405C183.063 190.058 184.164 188.958 185.511 188.958C186.857 188.958 187.958 190.044 187.958 191.405Z" fill="#512DA8" fill-opacity="0.25"/>
<path d="M209.968 191.405C209.968 192.752 208.868 193.852 207.521 193.852C206.174 193.852 205.074 192.752 205.074 191.405C205.074 190.058 206.174 188.958 207.521 188.958C208.868 188.958 209.968 190.044 209.968 191.405Z" fill="#512DA8" fill-opacity="0.25"/>
<path d="M231.979 191.405C231.979 192.752 230.878 193.852 229.532 193.852C228.185 193.852 227.084 192.752 227.084 191.405C227.084 190.058 228.185 188.958 229.532 188.958C230.878 188.958 231.979 190.044 231.979 191.405Z" fill="#512DA8" fill-opacity="0.25"/>
<path d="M253.989 191.405C253.989 192.752 252.889 193.852 251.542 193.852C250.196 193.852 249.095 192.752 249.095 191.405C249.095 190.058 250.196 188.958 251.542 188.958C252.889 188.958 253.989 190.044 253.989 191.405Z" fill="#512DA8" fill-opacity="0.25"/>
<path d="M276 191.405C276 192.752 274.9 193.852 273.553 193.852C272.206 193.852 271.106 192.752 271.106 191.405C271.106 190.058 272.206 188.958 273.553 188.958C274.9 188.958 276 190.044 276 191.405Z" fill="#512DA8" fill-opacity="0.25"/>
<path d="M55.8945 210.968C55.8945 212.315 54.7939 213.416 53.4472 213.416C52.1005 213.416 51 212.315 51 210.968C51 209.622 52.1005 208.521 53.4472 208.521C54.7939 208.521 55.8945 209.607 55.8945 210.968Z" fill="#512DA8" fill-opacity="0.25"/>
<path d="M77.9049 210.968C77.9049 212.315 76.8044 213.416 75.4577 213.416C74.111 213.416 73.0105 212.315 73.0105 210.968C73.0105 209.622 74.111 208.521 75.4577 208.521C76.8044 208.521 77.9049 209.607 77.9049 210.968Z" fill="#512DA8" fill-opacity="0.25"/>
<path d="M99.9156 210.968C99.9156 212.315 98.815 213.416 97.4683 213.416C96.1216 213.416 95.0211 212.315 95.0211 210.968C95.0211 209.622 96.1216 208.521 97.4683 208.521C98.815 208.521 99.9156 209.607 99.9156 210.968Z" fill="#512DA8" fill-opacity="0.25"/>
<path d="M121.926 210.968C121.926 212.315 120.826 213.416 119.479 213.416C118.132 213.416 117.032 212.315 117.032 210.968C117.032 209.622 118.132 208.521 119.479 208.521C120.826 208.521 121.926 209.607 121.926 210.968Z" fill="#512DA8" fill-opacity="0.25"/>
<path d="M143.937 210.968C143.937 212.315 142.836 213.416 141.489 213.416C140.143 213.416 139.042 212.315 139.042 210.968C139.042 209.622 140.143 208.521 141.489 208.521C142.836 208.521 143.937 209.607 143.937 210.968Z" fill="#512DA8" fill-opacity="0.25"/>
<path d="M165.947 210.968C165.947 212.315 164.847 213.416 163.5 213.416C162.153 213.416 161.053 212.315 161.053 210.968C161.053 209.622 162.153 208.521 163.5 208.521C164.847 208.521 165.947 209.607 165.947 210.968Z" fill="#512DA8" fill-opacity="0.25"/>
<path d="M187.958 210.968C187.958 212.315 186.857 213.416 185.511 213.416C184.164 213.416 183.063 212.315 183.063 210.968C183.063 209.622 184.164 208.521 185.511 208.521C186.857 208.521 187.958 209.607 187.958 210.968Z" fill="#512DA8" fill-opacity="0.25"/>
<path d="M209.968 210.968C209.968 212.315 208.868 213.416 207.521 213.416C206.174 213.416 205.074 212.315 205.074 210.968C205.074 209.622 206.174 208.521 207.521 208.521C208.868 208.521 209.968 209.607 209.968 210.968Z" fill="#512DA8" fill-opacity="0.25"/>
<path d="M231.979 210.968C231.979 212.315 230.878 213.416 229.532 213.416C228.185 213.416 227.084 212.315 227.084 210.968C227.084 209.622 228.185 208.521 229.532 208.521C230.878 208.521 231.979 209.607 231.979 210.968Z" fill="#512DA8" fill-opacity="0.25"/>
<path d="M253.989 210.968C253.989 212.315 252.889 213.416 251.542 213.416C250.196 213.416 249.095 212.315 249.095 210.968C249.095 209.622 250.196 208.521 251.542 208.521C252.889 208.521 253.989 209.607 253.989 210.968Z" fill="#512DA8" fill-opacity="0.25"/>
<path d="M276 210.968C276 212.315 274.9 213.416 273.553 213.416C272.206 213.416 271.106 212.315 271.106 210.968C271.106 209.622 272.206 208.521 273.553 208.521C274.9 208.521 276 209.607 276 210.968Z" fill="#512DA8" fill-opacity="0.25"/>
<path d="M55.8945 230.532C55.8945 231.878 54.7939 232.979 53.4472 232.979C52.1005 232.979 51 231.878 51 230.532C51 229.185 52.1005 228.084 53.4472 228.084C54.7939 228.084 55.8945 229.185 55.8945 230.532Z" fill="#512DA8" fill-opacity="0.25"/>
<path d="M77.9049 230.532C77.9049 231.878 76.8044 232.979 75.4577 232.979C74.111 232.979 73.0105 231.878 73.0105 230.532C73.0105 229.185 74.111 228.084 75.4577 228.084C76.8044 228.084 77.9049 229.185 77.9049 230.532Z" fill="#512DA8" fill-opacity="0.25"/>
<path d="M99.9156 230.532C99.9156 231.878 98.815 232.979 97.4683 232.979C96.1216 232.979 95.0211 231.878 95.0211 230.532C95.0211 229.185 96.1216 228.084 97.4683 228.084C98.815 228.084 99.9156 229.185 99.9156 230.532Z" fill="#512DA8" fill-opacity="0.25"/>
<path d="M121.926 230.532C121.926 231.878 120.826 232.979 119.479 232.979C118.132 232.979 117.032 231.878 117.032 230.532C117.032 229.185 118.132 228.084 119.479 228.084C120.826 228.084 121.926 229.185 121.926 230.532Z" fill="#512DA8" fill-opacity="0.25"/>
<path d="M143.937 230.532C143.937 231.878 142.836 232.979 141.489 232.979C140.143 232.979 139.042 231.878 139.042 230.532C139.042 229.185 140.143 228.084 141.489 228.084C142.836 228.084 143.937 229.185 143.937 230.532Z" fill="#512DA8" fill-opacity="0.25"/>
<path d="M165.947 230.532C165.947 231.878 164.847 232.979 163.5 232.979C162.153 232.979 161.053 231.878 161.053 230.532C161.053 229.185 162.153 228.084 163.5 228.084C164.847 228.084 165.947 229.185 165.947 230.532Z" fill="#512DA8" fill-opacity="0.25"/>
<path d="M187.958 230.532C187.958 231.878 186.857 232.979 185.511 232.979C184.164 232.979 183.063 231.878 183.063 230.532C183.063 229.185 184.164 228.084 185.511 228.084C186.857 228.084 187.958 229.185 187.958 230.532Z" fill="#512DA8" fill-opacity="0.25"/>
<path d="M209.968 230.532C209.968 231.878 208.868 232.979 207.521 232.979C206.174 232.979 205.074 231.878 205.074 230.532C205.074 229.185 206.174 228.084 207.521 228.084C208.868 228.084 209.968 229.185 209.968 230.532Z" fill="#512DA8" fill-opacity="0.25"/>
<path d="M231.979 230.532C231.979 231.878 230.878 232.979 229.532 232.979C228.185 232.979 227.084 231.878 227.084 230.532C227.084 229.185 228.185 228.084 229.532 228.084C230.878 228.084 231.979 229.185 231.979 230.532Z" fill="#512DA8" fill-opacity="0.25"/>
<path d="M253.989 230.532C253.989 231.878 252.889 232.979 251.542 232.979C250.196 232.979 249.095 231.878 249.095 230.532C249.095 229.185 250.196 228.084 251.542 228.084C252.889 228.084 253.989 229.185 253.989 230.532Z" fill="#512DA8" fill-opacity="0.25"/>
<path d="M276 230.532C276 231.878 274.9 232.979 273.553 232.979C272.206 232.979 271.106 231.878 271.106 230.532C271.106 229.185 272.206 228.084 273.553 228.084C274.9 228.084 276 229.185 276 230.532Z" fill="#512DA8" fill-opacity="0.25"/>
<path d="M53.4472 252.542C54.7988 252.542 55.8945 251.447 55.8945 250.095C55.8945 248.743 54.7988 247.648 53.4472 247.648C52.0957 247.648 51 248.743 51 250.095C51 251.447 52.0957 252.542 53.4472 252.542Z" fill="#512DA8" fill-opacity="0.25"/>
<path d="M75.4577 252.542C76.8093 252.542 77.9049 251.447 77.9049 250.095C77.9049 248.743 76.8093 247.648 75.4577 247.648C74.1062 247.648 73.0105 248.743 73.0105 250.095C73.0105 251.447 74.1062 252.542 75.4577 252.542Z" fill="#512DA8" fill-opacity="0.25"/>
<path d="M97.4683 252.542C98.8199 252.542 99.9156 251.447 99.9156 250.095C99.9156 248.743 98.8199 247.648 97.4683 247.648C96.1168 247.648 95.0211 248.743 95.0211 250.095C95.0211 251.447 96.1168 252.542 97.4683 252.542Z" fill="#512DA8" fill-opacity="0.25"/>
<path d="M121.926 250.095C121.926 251.442 120.826 252.542 119.479 252.542C118.132 252.542 117.032 251.442 117.032 250.095C117.032 248.748 118.132 247.648 119.479 247.648C120.826 247.648 121.926 248.748 121.926 250.095Z" fill="#512DA8" fill-opacity="0.25"/>
<path d="M143.937 250.095C143.937 251.442 142.836 252.542 141.489 252.542C140.143 252.542 139.042 251.442 139.042 250.095C139.042 248.748 140.143 247.648 141.489 247.648C142.836 247.648 143.937 248.748 143.937 250.095Z" fill="#512DA8" fill-opacity="0.25"/>
<path d="M163.5 252.542C164.852 252.542 165.947 251.447 165.947 250.095C165.947 248.743 164.852 247.648 163.5 247.648C162.148 247.648 161.053 248.743 161.053 250.095C161.053 251.447 162.148 252.542 163.5 252.542Z" fill="#512DA8" fill-opacity="0.25"/>
<path d="M185.511 252.542C186.862 252.542 187.958 251.447 187.958 250.095C187.958 248.743 186.862 247.648 185.511 247.648C184.159 247.648 183.063 248.743 183.063 250.095C183.063 251.447 184.159 252.542 185.511 252.542Z" fill="#512DA8" fill-opacity="0.25"/>
<path d="M207.521 252.542C208.873 252.542 209.968 251.447 209.968 250.095C209.968 248.743 208.873 247.648 207.521 247.648C206.17 247.648 205.074 248.743 205.074 250.095C205.074 251.447 206.17 252.542 207.521 252.542Z" fill="#512DA8" fill-opacity="0.25"/>
<path d="M229.532 252.542C230.883 252.542 231.979 251.447 231.979 250.095C231.979 248.743 230.883 247.648 229.532 247.648C228.18 247.648 227.084 248.743 227.084 250.095C227.084 251.447 228.18 252.542 229.532 252.542Z" fill="#512DA8" fill-opacity="0.25"/>
<path d="M251.542 252.542C252.894 252.542 253.989 251.447 253.989 250.095C253.989 248.743 252.894 247.648 251.542 247.648C250.191 247.648 249.095 248.743 249.095 250.095C249.095 251.447 250.191 252.542 251.542 252.542Z" fill="#512DA8" fill-opacity="0.25"/>
<path d="M273.553 252.542C274.904 252.542 276 251.447 276 250.095C276 248.743 274.904 247.648 273.553 247.648C272.201 247.648 271.106 248.743 271.106 250.095C271.106 251.447 272.201 252.542 273.553 252.542Z" fill="#512DA8" fill-opacity="0.25"/>
<path d="M55.8945 269.658C55.8945 271.005 54.7939 272.106 53.4472 272.106C52.1005 272.106 51 271.005 51 269.658C51 268.312 52.1005 267.211 53.4472 267.211C54.7939 267.211 55.8945 268.312 55.8945 269.658Z" fill="#512DA8" fill-opacity="0.25"/>
<path d="M77.9049 269.658C77.9049 271.005 76.8044 272.106 75.4577 272.106C74.111 272.106 73.0105 271.005 73.0105 269.658C73.0105 268.312 74.111 267.211 75.4577 267.211C76.8044 267.211 77.9049 268.312 77.9049 269.658Z" fill="#512DA8" fill-opacity="0.25"/>
<path d="M99.9156 269.658C99.9156 271.005 98.815 272.106 97.4683 272.106C96.1216 272.106 95.0211 271.005 95.0211 269.658C95.0211 268.312 96.1216 267.211 97.4683 267.211C98.815 267.211 99.9156 268.312 99.9156 269.658Z" fill="#512DA8" fill-opacity="0.25"/>
<path d="M121.926 269.658C121.926 271.005 120.826 272.106 119.479 272.106C118.132 272.106 117.032 271.005 117.032 269.658C117.032 268.312 118.132 267.211 119.479 267.211C120.826 267.211 121.926 268.312 121.926 269.658Z" fill="#512DA8" fill-opacity="0.25"/>
<path d="M143.937 269.658C143.937 271.005 142.836 272.106 141.489 272.106C140.143 272.106 139.042 271.005 139.042 269.658C139.042 268.312 140.143 267.211 141.489 267.211C142.836 267.211 143.937 268.312 143.937 269.658Z" fill="#512DA8" fill-opacity="0.25"/>
<path d="M165.947 269.658C165.947 271.005 164.847 272.106 163.5 272.106C162.153 272.106 161.053 271.005 161.053 269.658C161.053 268.312 162.153 267.211 163.5 267.211C164.847 267.211 165.947 268.312 165.947 269.658Z" fill="#512DA8" fill-opacity="0.25"/>
<path d="M187.958 269.658C187.958 271.005 186.857 272.106 185.511 272.106C184.164 272.106 183.063 271.005 183.063 269.658C183.063 268.312 184.164 267.211 185.511 267.211C186.857 267.211 187.958 268.312 187.958 269.658Z" fill="#512DA8" fill-opacity="0.25"/>
<path d="M209.968 269.658C209.968 271.005 208.868 272.106 207.521 272.106C206.174 272.106 205.074 271.005 205.074 269.658C205.074 268.312 206.174 267.211 207.521 267.211C208.868 267.211 209.968 268.312 209.968 269.658Z" fill="#512DA8" fill-opacity="0.25"/>
<path d="M231.979 269.658C231.979 271.005 230.878 272.106 229.532 272.106C228.185 272.106 227.084 271.005 227.084 269.658C227.084 268.312 228.185 267.211 229.532 267.211C230.878 267.211 231.979 268.312 231.979 269.658Z" fill="#512DA8" fill-opacity="0.25"/>
<path d="M253.989 269.658C253.989 271.005 252.889 272.106 251.542 272.106C250.196 272.106 249.095 271.005 249.095 269.658C249.095 268.312 250.196 267.211 251.542 267.211C252.889 267.211 253.989 268.312 253.989 269.658Z" fill="#512DA8" fill-opacity="0.25"/>
<path d="M276 269.658C276 271.005 274.9 272.106 273.553 272.106C272.206 272.106 271.106 271.005 271.106 269.658C271.106 268.312 272.206 267.211 273.553 267.211C274.9 267.211 276 268.312 276 269.658Z" fill="#512DA8" fill-opacity="0.25"/>
<path d="M508.447 293.894C509.799 293.894 510.894 292.799 510.894 291.447C510.894 290.096 509.799 289 508.447 289C507.096 289 506 290.096 506 291.447C506 292.799 507.096 293.894 508.447 293.894Z" fill="#512DA8" fill-opacity="0.25"/>
<path d="M530.458 293.894C531.809 293.894 532.905 292.799 532.905 291.447C532.905 290.096 531.809 289 530.458 289C529.106 289 528.01 290.096 528.01 291.447C528.01 292.799 529.106 293.894 530.458 293.894Z" fill="#512DA8" fill-opacity="0.25"/>
<path d="M552.468 293.894C553.82 293.894 554.916 292.799 554.916 291.447C554.916 290.096 553.82 289 552.468 289C551.117 289 550.021 290.096 550.021 291.447C550.021 292.799 551.117 293.894 552.468 293.894Z" fill="#512DA8" fill-opacity="0.25"/>
<path d="M576.926 291.447C576.926 292.794 575.826 293.894 574.479 293.894C573.132 293.894 572.032 292.794 572.032 291.447C572.032 290.101 573.132 289 574.479 289C575.826 289 576.926 290.101 576.926 291.447Z" fill="#512DA8" fill-opacity="0.25"/>
<path d="M598.937 291.447C598.937 292.794 597.836 293.894 596.489 293.894C595.143 293.894 594.042 292.794 594.042 291.447C594.042 290.101 595.143 289 596.489 289C597.836 289 598.937 290.101 598.937 291.447Z" fill="#512DA8" fill-opacity="0.25"/>
<path d="M618.5 293.894C619.852 293.894 620.947 292.799 620.947 291.447C620.947 290.096 619.852 289 618.5 289C617.148 289 616.053 290.096 616.053 291.447C616.053 292.799 617.148 293.894 618.5 293.894Z" fill="#512DA8" fill-opacity="0.25"/>
<path d="M640.511 293.894C641.862 293.894 642.958 292.799 642.958 291.447C642.958 290.096 641.862 289 640.511 289C639.159 289 638.063 290.096 638.063 291.447C638.063 292.799 639.159 293.894 640.511 293.894Z" fill="#512DA8" fill-opacity="0.25"/>
<path d="M662.521 293.894C663.873 293.894 664.968 292.799 664.968 291.447C664.968 290.096 663.873 289 662.521 289C661.17 289 660.074 290.096 660.074 291.447C660.074 292.799 661.17 293.894 662.521 293.894Z" fill="#512DA8" fill-opacity="0.25"/>
<path d="M684.532 293.894C685.883 293.894 686.979 292.799 686.979 291.447C686.979 290.096 685.883 289 684.532 289C683.18 289 682.084 290.096 682.084 291.447C682.084 292.799 683.18 293.894 684.532 293.894Z" fill="#512DA8" fill-opacity="0.25"/>
<path d="M706.542 293.894C707.894 293.894 708.989 292.799 708.989 291.447C708.989 290.096 707.894 289 706.542 289C705.191 289 704.095 290.096 704.095 291.447C704.095 292.799 705.191 293.894 706.542 293.894Z" fill="#512DA8" fill-opacity="0.25"/>
<path d="M728.553 293.894C729.904 293.894 731 292.799 731 291.447C731 290.096 729.904 289 728.553 289C727.201 289 726.105 290.096 726.105 291.447C726.105 292.799 727.201 293.894 728.553 293.894Z" fill="#512DA8" fill-opacity="0.25"/>
<path d="M508.447 313.458C509.799 313.458 510.894 312.362 510.894 311.011C510.894 309.659 509.799 308.563 508.447 308.563C507.096 308.563 506 309.659 506 311.011C506 312.362 507.096 313.458 508.447 313.458Z" fill="#512DA8" fill-opacity="0.25"/>
<path d="M530.458 313.458C531.809 313.458 532.905 312.362 532.905 311.011C532.905 309.659 531.809 308.563 530.458 308.563C529.106 308.563 528.01 309.659 528.01 311.011C528.01 312.362 529.106 313.458 530.458 313.458Z" fill="#512DA8" fill-opacity="0.25"/>
<path d="M552.468 313.458C553.82 313.458 554.916 312.362 554.916 311.011C554.916 309.659 553.82 308.563 552.468 308.563C551.117 308.563 550.021 309.659 550.021 311.011C550.021 312.362 551.117 313.458 552.468 313.458Z" fill="#512DA8" fill-opacity="0.25"/>
<path d="M576.926 311.011C576.926 312.357 575.826 313.458 574.479 313.458C573.132 313.458 572.032 312.357 572.032 311.011C572.032 309.664 573.132 308.563 574.479 308.563C575.826 308.563 576.926 309.664 576.926 311.011Z" fill="#512DA8" fill-opacity="0.25"/>
<path d="M598.937 311.011C598.937 312.357 597.836 313.458 596.489 313.458C595.143 313.458 594.042 312.357 594.042 311.011C594.042 309.664 595.143 308.563 596.489 308.563C597.836 308.563 598.937 309.664 598.937 311.011Z" fill="#512DA8" fill-opacity="0.25"/>
<path d="M618.5 313.458C619.852 313.458 620.947 312.362 620.947 311.011C620.947 309.659 619.852 308.563 618.5 308.563C617.148 308.563 616.053 309.659 616.053 311.011C616.053 312.362 617.148 313.458 618.5 313.458Z" fill="#512DA8" fill-opacity="0.25"/>
<path d="M640.511 313.458C641.862 313.458 642.958 312.362 642.958 311.011C642.958 309.659 641.862 308.563 640.511 308.563C639.159 308.563 638.063 309.659 638.063 311.011C638.063 312.362 639.159 313.458 640.511 313.458Z" fill="#512DA8" fill-opacity="0.25"/>
<path d="M662.521 313.458C663.873 313.458 664.968 312.362 664.968 311.011C664.968 309.659 663.873 308.563 662.521 308.563C661.17 308.563 660.074 309.659 660.074 311.011C660.074 312.362 661.17 313.458 662.521 313.458Z" fill="#512DA8" fill-opacity="0.25"/>
<path d="M684.532 313.458C685.883 313.458 686.979 312.362 686.979 311.011C686.979 309.659 685.883 308.563 684.532 308.563C683.18 308.563 682.084 309.659 682.084 311.011C682.084 312.362 683.18 313.458 684.532 313.458Z" fill="#512DA8" fill-opacity="0.25"/>
<path d="M706.542 313.458C707.894 313.458 708.989 312.362 708.989 311.011C708.989 309.659 707.894 308.563 706.542 308.563C705.191 308.563 704.095 309.659 704.095 311.011C704.095 312.362 705.191 313.458 706.542 313.458Z" fill="#512DA8" fill-opacity="0.25"/>
<path d="M728.553 313.458C729.904 313.458 731 312.362 731 311.011C731 309.659 729.904 308.563 728.553 308.563C727.201 308.563 726.105 309.659 726.105 311.011C726.105 312.362 727.201 313.458 728.553 313.458Z" fill="#512DA8" fill-opacity="0.25"/>
<path d="M508.447 333.021C509.799 333.021 510.894 331.926 510.894 330.574C510.894 329.222 509.799 328.127 508.447 328.127C507.096 328.127 506 329.222 506 330.574C506 331.926 507.096 333.021 508.447 333.021Z" fill="#512DA8" fill-opacity="0.25"/>
<path d="M530.458 333.021C531.809 333.021 532.905 331.926 532.905 330.574C532.905 329.222 531.809 328.127 530.458 328.127C529.106 328.127 528.01 329.222 528.01 330.574C528.01 331.926 529.106 333.021 530.458 333.021Z" fill="#512DA8" fill-opacity="0.25"/>
<path d="M552.468 333.021C553.82 333.021 554.916 331.926 554.916 330.574C554.916 329.222 553.82 328.127 552.468 328.127C551.117 328.127 550.021 329.222 550.021 330.574C550.021 331.926 551.117 333.021 552.468 333.021Z" fill="#512DA8" fill-opacity="0.25"/>
<path d="M576.926 330.574C576.926 331.921 575.826 333.021 574.479 333.021C573.132 333.021 572.032 331.921 572.032 330.574C572.032 329.227 573.132 328.127 574.479 328.127C575.826 328.127 576.926 329.227 576.926 330.574Z" fill="#512DA8" fill-opacity="0.25"/>
<path d="M598.937 330.574C598.937 331.921 597.836 333.021 596.489 333.021C595.143 333.021 594.042 331.921 594.042 330.574C594.042 329.227 595.143 328.127 596.489 328.127C597.836 328.127 598.937 329.227 598.937 330.574Z" fill="#512DA8" fill-opacity="0.25"/>
<path d="M618.5 333.021C619.852 333.021 620.947 331.926 620.947 330.574C620.947 329.222 619.852 328.127 618.5 328.127C617.148 328.127 616.053 329.222 616.053 330.574C616.053 331.926 617.148 333.021 618.5 333.021Z" fill="#512DA8" fill-opacity="0.25"/>
<path d="M640.511 333.021C641.862 333.021 642.958 331.926 642.958 330.574C642.958 329.222 641.862 328.127 640.511 328.127C639.159 328.127 638.063 329.222 638.063 330.574C638.063 331.926 639.159 333.021 640.511 333.021Z" fill="#512DA8" fill-opacity="0.25"/>
<path d="M662.521 333.021C663.873 333.021 664.968 331.926 664.968 330.574C664.968 329.222 663.873 328.127 662.521 328.127C661.17 328.127 660.074 329.222 660.074 330.574C660.074 331.926 661.17 333.021 662.521 333.021Z" fill="#512DA8" fill-opacity="0.25"/>
<path d="M684.532 333.021C685.883 333.021 686.979 331.926 686.979 330.574C686.979 329.222 685.883 328.127 684.532 328.127C683.18 328.127 682.084 329.222 682.084 330.574C682.084 331.926 683.18 333.021 684.532 333.021Z" fill="#512DA8" fill-opacity="0.25"/>
<path d="M706.542 333.021C707.894 333.021 708.989 331.926 708.989 330.574C708.989 329.222 707.894 328.127 706.542 328.127C705.191 328.127 704.095 329.222 704.095 330.574C704.095 331.926 705.191 333.021 706.542 333.021Z" fill="#512DA8" fill-opacity="0.25"/>
<path d="M728.553 333.021C729.904 333.021 731 331.926 731 330.574C731 329.222 729.904 328.127 728.553 328.127C727.201 328.127 726.105 329.222 726.105 330.574C726.105 331.926 727.201 333.021 728.553 333.021Z" fill="#512DA8" fill-opacity="0.25"/>
<path d="M510.894 350.137C510.894 351.484 509.794 352.584 508.447 352.584C507.101 352.584 506 351.484 506 350.137C506 348.791 507.101 347.69 508.447 347.69C509.794 347.69 510.894 348.791 510.894 350.137Z" fill="#512DA8" fill-opacity="0.25"/>
<path d="M532.905 350.137C532.905 351.484 531.804 352.584 530.458 352.584C529.111 352.584 528.01 351.484 528.01 350.137C528.01 348.791 529.111 347.69 530.458 347.69C531.804 347.69 532.905 348.791 532.905 350.137Z" fill="#512DA8" fill-opacity="0.25"/>
<path d="M554.916 350.137C554.916 351.484 553.815 352.584 552.468 352.584C551.122 352.584 550.021 351.484 550.021 350.137C550.021 348.791 551.122 347.69 552.468 347.69C553.815 347.69 554.916 348.791 554.916 350.137Z" fill="#512DA8" fill-opacity="0.25"/>
<path d="M576.926 350.137C576.926 351.484 575.826 352.584 574.479 352.584C573.132 352.584 572.032 351.484 572.032 350.137C572.032 348.791 573.132 347.69 574.479 347.69C575.826 347.69 576.926 348.791 576.926 350.137Z" fill="#512DA8" fill-opacity="0.25"/>
<path d="M598.937 350.137C598.937 351.484 597.836 352.584 596.489 352.584C595.143 352.584 594.042 351.484 594.042 350.137C594.042 348.791 595.143 347.69 596.489 347.69C597.836 347.69 598.937 348.791 598.937 350.137Z" fill="#512DA8" fill-opacity="0.25"/>
<path d="M620.947 350.137C620.947 351.484 619.847 352.584 618.5 352.584C617.153 352.584 616.053 351.484 616.053 350.137C616.053 348.791 617.153 347.69 618.5 347.69C619.847 347.69 620.947 348.791 620.947 350.137Z" fill="#512DA8" fill-opacity="0.25"/>
<path d="M642.958 350.137C642.958 351.484 641.857 352.584 640.511 352.584C639.164 352.584 638.063 351.484 638.063 350.137C638.063 348.791 639.164 347.69 640.511 347.69C641.857 347.69 642.958 348.791 642.958 350.137Z" fill="#512DA8" fill-opacity="0.25"/>
<path d="M664.968 350.137C664.968 351.484 663.868 352.584 662.521 352.584C661.174 352.584 660.074 351.484 660.074 350.137C660.074 348.791 661.174 347.69 662.521 347.69C663.868 347.69 664.968 348.791 664.968 350.137Z" fill="#512DA8" fill-opacity="0.25"/>
<path d="M686.979 350.137C686.979 351.484 685.878 352.584 684.532 352.584C683.185 352.584 682.084 351.484 682.084 350.137C682.084 348.791 683.185 347.69 684.532 347.69C685.878 347.69 686.979 348.791 686.979 350.137Z" fill="#512DA8" fill-opacity="0.25"/>
<path d="M708.989 350.137C708.989 351.484 707.889 352.584 706.542 352.584C705.196 352.584 704.095 351.484 704.095 350.137C704.095 348.791 705.196 347.69 706.542 347.69C707.889 347.69 708.989 348.791 708.989 350.137Z" fill="#512DA8" fill-opacity="0.25"/>
<path d="M731 350.137C731 351.484 729.899 352.584 728.553 352.584C727.206 352.584 726.105 351.484 726.105 350.137C726.105 348.791 727.206 347.69 728.553 347.69C729.899 347.69 731 348.791 731 350.137Z" fill="#512DA8" fill-opacity="0.25"/>
<path d="M510.894 369.701C510.894 371.047 509.794 372.148 508.447 372.148C507.101 372.148 506 371.047 506 369.701C506 368.354 507.101 367.253 508.447 367.253C509.794 367.253 510.894 368.354 510.894 369.701Z" fill="#512DA8" fill-opacity="0.25"/>
<path d="M532.905 369.701C532.905 371.047 531.804 372.148 530.458 372.148C529.111 372.148 528.01 371.047 528.01 369.701C528.01 368.354 529.111 367.253 530.458 367.253C531.804 367.253 532.905 368.354 532.905 369.701Z" fill="#512DA8" fill-opacity="0.25"/>
<path d="M554.916 369.701C554.916 371.047 553.815 372.148 552.468 372.148C551.122 372.148 550.021 371.047 550.021 369.701C550.021 368.354 551.122 367.253 552.468 367.253C553.815 367.253 554.916 368.354 554.916 369.701Z" fill="#512DA8" fill-opacity="0.25"/>
<path d="M576.926 369.701C576.926 371.047 575.826 372.148 574.479 372.148C573.132 372.148 572.032 371.047 572.032 369.701C572.032 368.354 573.132 367.253 574.479 367.253C575.826 367.253 576.926 368.354 576.926 369.701Z" fill="#512DA8" fill-opacity="0.25"/>
<path d="M598.937 369.701C598.937 371.047 597.836 372.148 596.489 372.148C595.143 372.148 594.042 371.047 594.042 369.701C594.042 368.354 595.143 367.253 596.489 367.253C597.836 367.253 598.937 368.354 598.937 369.701Z" fill="#512DA8" fill-opacity="0.25"/>
<path d="M620.947 369.701C620.947 371.047 619.847 372.148 618.5 372.148C617.153 372.148 616.053 371.047 616.053 369.701C616.053 368.354 617.153 367.253 618.5 367.253C619.847 367.253 620.947 368.354 620.947 369.701Z" fill="#512DA8" fill-opacity="0.25"/>
<path d="M642.958 369.701C642.958 371.047 641.857 372.148 640.511 372.148C639.164 372.148 638.063 371.047 638.063 369.701C638.063 368.354 639.164 367.253 640.511 367.253C641.857 367.253 642.958 368.354 642.958 369.701Z" fill="#512DA8" fill-opacity="0.25"/>
<path d="M664.968 369.701C664.968 371.047 663.868 372.148 662.521 372.148C661.174 372.148 660.074 371.047 660.074 369.701C660.074 368.354 661.174 367.253 662.521 367.253C663.868 367.253 664.968 368.354 664.968 369.701Z" fill="#512DA8" fill-opacity="0.25"/>
<path d="M686.979 369.701C686.979 371.047 685.878 372.148 684.532 372.148C683.185 372.148 682.084 371.047 682.084 369.701C682.084 368.354 683.185 367.253 684.532 367.253C685.878 367.253 686.979 368.354 686.979 369.701Z" fill="#512DA8" fill-opacity="0.25"/>
<path d="M708.989 369.701C708.989 371.047 707.889 372.148 706.542 372.148C705.196 372.148 704.095 371.047 704.095 369.701C704.095 368.354 705.196 367.253 706.542 367.253C707.889 367.253 708.989 368.354 708.989 369.701Z" fill="#512DA8" fill-opacity="0.25"/>
<path d="M731 369.701C731 371.047 729.899 372.148 728.553 372.148C727.206 372.148 726.105 371.047 726.105 369.701C726.105 368.354 727.206 367.253 728.553 367.253C729.899 367.253 731 368.354 731 369.701Z" fill="#512DA8" fill-opacity="0.25"/>
<path d="M510.894 389.264C510.894 390.611 509.794 391.711 508.447 391.711C507.101 391.711 506 390.611 506 389.264C506 387.917 507.101 386.817 508.447 386.817C509.794 386.817 510.894 387.917 510.894 389.264Z" fill="#512DA8" fill-opacity="0.25"/>
<path d="M532.905 389.264C532.905 390.611 531.804 391.711 530.458 391.711C529.111 391.711 528.01 390.611 528.01 389.264C528.01 387.917 529.111 386.817 530.458 386.817C531.804 386.817 532.905 387.917 532.905 389.264Z" fill="#512DA8" fill-opacity="0.25"/>
<path d="M554.916 389.264C554.916 390.611 553.815 391.711 552.468 391.711C551.122 391.711 550.021 390.611 550.021 389.264C550.021 387.917 551.122 386.817 552.468 386.817C553.815 386.817 554.916 387.917 554.916 389.264Z" fill="#512DA8" fill-opacity="0.25"/>
<path d="M576.926 389.264C576.926 390.611 575.826 391.711 574.479 391.711C573.132 391.711 572.032 390.611 572.032 389.264C572.032 387.917 573.132 386.817 574.479 386.817C575.826 386.817 576.926 387.917 576.926 389.264Z" fill="#512DA8" fill-opacity="0.25"/>
<path d="M598.937 389.264C598.937 390.611 597.836 391.711 596.489 391.711C595.143 391.711 594.042 390.611 594.042 389.264C594.042 387.917 595.143 386.817 596.489 386.817C597.836 386.817 598.937 387.917 598.937 389.264Z" fill="#512DA8" fill-opacity="0.25"/>
<path d="M620.947 389.264C620.947 390.611 619.847 391.711 618.5 391.711C617.153 391.711 616.053 390.611 616.053 389.264C616.053 387.917 617.153 386.817 618.5 386.817C619.847 386.817 620.947 387.917 620.947 389.264Z" fill="#512DA8" fill-opacity="0.25"/>
<path d="M642.958 389.264C642.958 390.611 641.857 391.711 640.511 391.711C639.164 391.711 638.063 390.611 638.063 389.264C638.063 387.917 639.164 386.817 640.511 386.817C641.857 386.817 642.958 387.917 642.958 389.264Z" fill="#512DA8" fill-opacity="0.25"/>
<path d="M664.968 389.264C664.968 390.611 663.868 391.711 662.521 391.711C661.174 391.711 660.074 390.611 660.074 389.264C660.074 387.917 661.174 386.817 662.521 386.817C663.868 386.817 664.968 387.917 664.968 389.264Z" fill="#512DA8" fill-opacity="0.25"/>
<path d="M686.979 389.264C686.979 390.611 685.878 391.711 684.532 391.711C683.185 391.711 682.084 390.611 682.084 389.264C682.084 387.917 683.185 386.817 684.532 386.817C685.878 386.817 686.979 387.917 686.979 389.264Z" fill="#512DA8" fill-opacity="0.25"/>
<path d="M708.989 389.264C708.989 390.611 707.889 391.711 706.542 391.711C705.196 391.711 704.095 390.611 704.095 389.264C704.095 387.917 705.196 386.817 706.542 386.817C707.889 386.817 708.989 387.917 708.989 389.264Z" fill="#512DA8" fill-opacity="0.25"/>
<path d="M731 389.264C731 390.611 729.899 391.711 728.553 391.711C727.206 391.711 726.105 390.611 726.105 389.264C726.105 387.917 727.206 386.817 728.553 386.817C729.899 386.817 731 387.917 731 389.264Z" fill="#512DA8" fill-opacity="0.25"/>
<path d="M508.447 411.274C509.799 411.274 510.894 410.179 510.894 408.827C510.894 407.476 509.799 406.38 508.447 406.38C507.096 406.38 506 407.476 506 408.827C506 410.179 507.096 411.274 508.447 411.274Z" fill="#512DA8" fill-opacity="0.25"/>
<path d="M530.458 411.274C531.809 411.274 532.905 410.179 532.905 408.827C532.905 407.476 531.809 406.38 530.458 406.38C529.106 406.38 528.01 407.476 528.01 408.827C528.01 410.179 529.106 411.274 530.458 411.274Z" fill="#512DA8" fill-opacity="0.25"/>
<path d="M552.468 411.274C553.82 411.274 554.916 410.179 554.916 408.827C554.916 407.476 553.82 406.38 552.468 406.38C551.117 406.38 550.021 407.476 550.021 408.827C550.021 410.179 551.117 411.274 552.468 411.274Z" fill="#512DA8" fill-opacity="0.25"/>
<path d="M576.926 408.827C576.926 410.174 575.826 411.274 574.479 411.274C573.132 411.274 572.032 410.174 572.032 408.827C572.032 407.48 573.132 406.38 574.479 406.38C575.826 406.394 576.926 407.48 576.926 408.827Z" fill="#512DA8" fill-opacity="0.25"/>
<path d="M598.937 408.827C598.937 410.174 597.836 411.274 596.489 411.274C595.143 411.274 594.042 410.174 594.042 408.827C594.042 407.48 595.143 406.38 596.489 406.38C597.836 406.394 598.937 407.48 598.937 408.827Z" fill="#512DA8" fill-opacity="0.25"/>
<path d="M618.5 411.274C619.852 411.274 620.947 410.179 620.947 408.827C620.947 407.476 619.852 406.38 618.5 406.38C617.148 406.38 616.053 407.476 616.053 408.827C616.053 410.179 617.148 411.274 618.5 411.274Z" fill="#512DA8" fill-opacity="0.25"/>
<path d="M640.511 411.274C641.862 411.274 642.958 410.179 642.958 408.827C642.958 407.476 641.862 406.38 640.511 406.38C639.159 406.38 638.063 407.476 638.063 408.827C638.063 410.179 639.159 411.274 640.511 411.274Z" fill="#512DA8" fill-opacity="0.25"/>
<path d="M662.521 411.274C663.873 411.274 664.968 410.179 664.968 408.827C664.968 407.476 663.873 406.38 662.521 406.38C661.17 406.38 660.074 407.476 660.074 408.827C660.074 410.179 661.17 411.274 662.521 411.274Z" fill="#512DA8" fill-opacity="0.25"/>
<path d="M684.532 411.274C685.883 411.274 686.979 410.179 686.979 408.827C686.979 407.476 685.883 406.38 684.532 406.38C683.18 406.38 682.084 407.476 682.084 408.827C682.084 410.179 683.18 411.274 684.532 411.274Z" fill="#512DA8" fill-opacity="0.25"/>
<path d="M706.542 411.274C707.894 411.274 708.989 410.179 708.989 408.827C708.989 407.476 707.894 406.38 706.542 406.38C705.191 406.38 704.095 407.476 704.095 408.827C704.095 410.179 705.191 411.274 706.542 411.274Z" fill="#512DA8" fill-opacity="0.25"/>
<path d="M728.553 411.274C729.904 411.274 731 410.179 731 408.827C731 407.476 729.904 406.38 728.553 406.38C727.201 406.38 726.105 407.476 726.105 408.827C726.105 410.179 727.201 411.274 728.553 411.274Z" fill="#512DA8" fill-opacity="0.25"/>
<path d="M510.894 428.405C510.894 429.752 509.794 430.852 508.447 430.852C507.101 430.852 506 429.752 506 428.405C506 427.058 507.101 425.958 508.447 425.958C509.794 425.958 510.894 427.044 510.894 428.405Z" fill="#512DA8" fill-opacity="0.25"/>
<path d="M532.905 428.405C532.905 429.752 531.804 430.852 530.458 430.852C529.111 430.852 528.01 429.752 528.01 428.405C528.01 427.058 529.111 425.958 530.458 425.958C531.804 425.958 532.905 427.044 532.905 428.405Z" fill="#512DA8" fill-opacity="0.25"/>
<path d="M554.916 428.405C554.916 429.752 553.815 430.852 552.468 430.852C551.122 430.852 550.021 429.752 550.021 428.405C550.021 427.058 551.122 425.958 552.468 425.958C553.815 425.958 554.916 427.044 554.916 428.405Z" fill="#512DA8" fill-opacity="0.25"/>
<path d="M576.926 428.405C576.926 429.752 575.826 430.852 574.479 430.852C573.132 430.852 572.032 429.752 572.032 428.405C572.032 427.058 573.132 425.958 574.479 425.958C575.826 425.958 576.926 427.044 576.926 428.405Z" fill="#512DA8" fill-opacity="0.25"/>
<path d="M598.937 428.405C598.937 429.752 597.836 430.852 596.489 430.852C595.143 430.852 594.042 429.752 594.042 428.405C594.042 427.058 595.143 425.958 596.489 425.958C597.836 425.958 598.937 427.044 598.937 428.405Z" fill="#512DA8" fill-opacity="0.25"/>
<path d="M620.947 428.405C620.947 429.752 619.847 430.852 618.5 430.852C617.153 430.852 616.053 429.752 616.053 428.405C616.053 427.058 617.153 425.958 618.5 425.958C619.847 425.958 620.947 427.044 620.947 428.405Z" fill="#512DA8" fill-opacity="0.25"/>
<path d="M642.958 428.405C642.958 429.752 641.857 430.852 640.511 430.852C639.164 430.852 638.063 429.752 638.063 428.405C638.063 427.058 639.164 425.958 640.511 425.958C641.857 425.958 642.958 427.044 642.958 428.405Z" fill="#512DA8" fill-opacity="0.25"/>
<path d="M664.968 428.405C664.968 429.752 663.868 430.852 662.521 430.852C661.174 430.852 660.074 429.752 660.074 428.405C660.074 427.058 661.174 425.958 662.521 425.958C663.868 425.958 664.968 427.044 664.968 428.405Z" fill="#512DA8" fill-opacity="0.25"/>
<path d="M686.979 428.405C686.979 429.752 685.878 430.852 684.532 430.852C683.185 430.852 682.084 429.752 682.084 428.405C682.084 427.058 683.185 425.958 684.532 425.958C685.878 425.958 686.979 427.044 686.979 428.405Z" fill="#512DA8" fill-opacity="0.25"/>
<path d="M708.989 428.405C708.989 429.752 707.889 430.852 706.542 430.852C705.196 430.852 704.095 429.752 704.095 428.405C704.095 427.058 705.196 425.958 706.542 425.958C707.889 425.958 708.989 427.044 708.989 428.405Z" fill="#512DA8" fill-opacity="0.25"/>
<path d="M731 428.405C731 429.752 729.899 430.852 728.553 430.852C727.206 430.852 726.105 429.752 726.105 428.405C726.105 427.058 727.206 425.958 728.553 425.958C729.899 425.958 731 427.044 731 428.405Z" fill="#512DA8" fill-opacity="0.25"/>
<path d="M510.894 447.968C510.894 449.315 509.794 450.416 508.447 450.416C507.101 450.416 506 449.315 506 447.968C506 446.622 507.101 445.521 508.447 445.521C509.794 445.521 510.894 446.607 510.894 447.968Z" fill="#512DA8" fill-opacity="0.25"/>
<path d="M532.905 447.968C532.905 449.315 531.804 450.416 530.458 450.416C529.111 450.416 528.01 449.315 528.01 447.968C528.01 446.622 529.111 445.521 530.458 445.521C531.804 445.521 532.905 446.607 532.905 447.968Z" fill="#512DA8" fill-opacity="0.25"/>
<path d="M554.916 447.968C554.916 449.315 553.815 450.416 552.468 450.416C551.122 450.416 550.021 449.315 550.021 447.968C550.021 446.622 551.122 445.521 552.468 445.521C553.815 445.521 554.916 446.607 554.916 447.968Z" fill="#512DA8" fill-opacity="0.25"/>
<path d="M576.926 447.968C576.926 449.315 575.826 450.416 574.479 450.416C573.132 450.416 572.032 449.315 572.032 447.968C572.032 446.622 573.132 445.521 574.479 445.521C575.826 445.521 576.926 446.607 576.926 447.968Z" fill="#512DA8" fill-opacity="0.25"/>
<path d="M598.937 447.968C598.937 449.315 597.836 450.416 596.489 450.416C595.143 450.416 594.042 449.315 594.042 447.968C594.042 446.622 595.143 445.521 596.489 445.521C597.836 445.521 598.937 446.607 598.937 447.968Z" fill="#512DA8" fill-opacity="0.25"/>
<path d="M620.947 447.968C620.947 449.315 619.847 450.416 618.5 450.416C617.153 450.416 616.053 449.315 616.053 447.968C616.053 446.622 617.153 445.521 618.5 445.521C619.847 445.521 620.947 446.607 620.947 447.968Z" fill="#512DA8" fill-opacity="0.25"/>
<path d="M642.958 447.968C642.958 449.315 641.857 450.416 640.511 450.416C639.164 450.416 638.063 449.315 638.063 447.968C638.063 446.622 639.164 445.521 640.511 445.521C641.857 445.521 642.958 446.607 642.958 447.968Z" fill="#512DA8" fill-opacity="0.25"/>
<path d="M664.968 447.968C664.968 449.315 663.868 450.416 662.521 450.416C661.174 450.416 660.074 449.315 660.074 447.968C660.074 446.622 661.174 445.521 662.521 445.521C663.868 445.521 664.968 446.607 664.968 447.968Z" fill="#512DA8" fill-opacity="0.25"/>
<path d="M686.979 447.968C686.979 449.315 685.878 450.416 684.532 450.416C683.185 450.416 682.084 449.315 682.084 447.968C682.084 446.622 683.185 445.521 684.532 445.521C685.878 445.521 686.979 446.607 686.979 447.968Z" fill="#512DA8" fill-opacity="0.25"/>
<path d="M708.989 447.968C708.989 449.315 707.889 450.416 706.542 450.416C705.196 450.416 704.095 449.315 704.095 447.968C704.095 446.622 705.196 445.521 706.542 445.521C707.889 445.521 708.989 446.607 708.989 447.968Z" fill="#512DA8" fill-opacity="0.25"/>
<path d="M731 447.968C731 449.315 729.899 450.416 728.553 450.416C727.206 450.416 726.105 449.315 726.105 447.968C726.105 446.622 727.206 445.521 728.553 445.521C729.899 445.521 731 446.607 731 447.968Z" fill="#512DA8" fill-opacity="0.25"/>
<path d="M510.894 467.532C510.894 468.878 509.794 469.979 508.447 469.979C507.101 469.979 506 468.878 506 467.532C506 466.185 507.101 465.084 508.447 465.084C509.794 465.084 510.894 466.185 510.894 467.532Z" fill="#512DA8" fill-opacity="0.25"/>
<path d="M532.905 467.532C532.905 468.878 531.804 469.979 530.458 469.979C529.111 469.979 528.01 468.878 528.01 467.532C528.01 466.185 529.111 465.084 530.458 465.084C531.804 465.084 532.905 466.185 532.905 467.532Z" fill="#512DA8" fill-opacity="0.25"/>
<path d="M554.916 467.532C554.916 468.878 553.815 469.979 552.468 469.979C551.122 469.979 550.021 468.878 550.021 467.532C550.021 466.185 551.122 465.084 552.468 465.084C553.815 465.084 554.916 466.185 554.916 467.532Z" fill="#512DA8" fill-opacity="0.25"/>
<path d="M576.926 467.532C576.926 468.878 575.826 469.979 574.479 469.979C573.132 469.979 572.032 468.878 572.032 467.532C572.032 466.185 573.132 465.084 574.479 465.084C575.826 465.084 576.926 466.185 576.926 467.532Z" fill="#512DA8" fill-opacity="0.25"/>
<path d="M598.937 467.532C598.937 468.878 597.836 469.979 596.489 469.979C595.143 469.979 594.042 468.878 594.042 467.532C594.042 466.185 595.143 465.084 596.489 465.084C597.836 465.084 598.937 466.185 598.937 467.532Z" fill="#512DA8" fill-opacity="0.25"/>
<path d="M620.947 467.532C620.947 468.878 619.847 469.979 618.5 469.979C617.153 469.979 616.053 468.878 616.053 467.532C616.053 466.185 617.153 465.084 618.5 465.084C619.847 465.084 620.947 466.185 620.947 467.532Z" fill="#512DA8" fill-opacity="0.25"/>
<path d="M642.958 467.532C642.958 468.878 641.857 469.979 640.511 469.979C639.164 469.979 638.063 468.878 638.063 467.532C638.063 466.185 639.164 465.084 640.511 465.084C641.857 465.084 642.958 466.185 642.958 467.532Z" fill="#512DA8" fill-opacity="0.25"/>
<path d="M664.968 467.532C664.968 468.878 663.868 469.979 662.521 469.979C661.174 469.979 660.074 468.878 660.074 467.532C660.074 466.185 661.174 465.084 662.521 465.084C663.868 465.084 664.968 466.185 664.968 467.532Z" fill="#512DA8" fill-opacity="0.25"/>
<path d="M686.979 467.532C686.979 468.878 685.878 469.979 684.532 469.979C683.185 469.979 682.084 468.878 682.084 467.532C682.084 466.185 683.185 465.084 684.532 465.084C685.878 465.084 686.979 466.185 686.979 467.532Z" fill="#512DA8" fill-opacity="0.25"/>
<path d="M708.989 467.532C708.989 468.878 707.889 469.979 706.542 469.979C705.196 469.979 704.095 468.878 704.095 467.532C704.095 466.185 705.196 465.084 706.542 465.084C707.889 465.084 708.989 466.185 708.989 467.532Z" fill="#512DA8" fill-opacity="0.25"/>
<path d="M731 467.532C731 468.878 729.899 469.979 728.553 469.979C727.206 469.979 726.105 468.878 726.105 467.532C726.105 466.185 727.206 465.084 728.553 465.084C729.899 465.084 731 466.185 731 467.532Z" fill="#512DA8" fill-opacity="0.25"/>
<path d="M508.447 489.542C509.799 489.542 510.894 488.447 510.894 487.095C510.894 485.743 509.799 484.648 508.447 484.648C507.096 484.648 506 485.743 506 487.095C506 488.447 507.096 489.542 508.447 489.542Z" fill="#512DA8" fill-opacity="0.25"/>
<path d="M530.458 489.542C531.809 489.542 532.905 488.447 532.905 487.095C532.905 485.743 531.809 484.648 530.458 484.648C529.106 484.648 528.01 485.743 528.01 487.095C528.01 488.447 529.106 489.542 530.458 489.542Z" fill="#512DA8" fill-opacity="0.25"/>
<path d="M552.468 489.542C553.82 489.542 554.916 488.447 554.916 487.095C554.916 485.743 553.82 484.648 552.468 484.648C551.117 484.648 550.021 485.743 550.021 487.095C550.021 488.447 551.117 489.542 552.468 489.542Z" fill="#512DA8" fill-opacity="0.25"/>
<path d="M576.926 487.095C576.926 488.442 575.826 489.542 574.479 489.542C573.132 489.542 572.032 488.442 572.032 487.095C572.032 485.748 573.132 484.648 574.479 484.648C575.826 484.648 576.926 485.748 576.926 487.095Z" fill="#512DA8" fill-opacity="0.25"/>
<path d="M598.937 487.095C598.937 488.442 597.836 489.542 596.489 489.542C595.143 489.542 594.042 488.442 594.042 487.095C594.042 485.748 595.143 484.648 596.489 484.648C597.836 484.648 598.937 485.748 598.937 487.095Z" fill="#512DA8" fill-opacity="0.25"/>
<path d="M618.5 489.542C619.852 489.542 620.947 488.447 620.947 487.095C620.947 485.743 619.852 484.648 618.5 484.648C617.148 484.648 616.053 485.743 616.053 487.095C616.053 488.447 617.148 489.542 618.5 489.542Z" fill="#512DA8" fill-opacity="0.25"/>
<path d="M640.511 489.542C641.862 489.542 642.958 488.447 642.958 487.095C642.958 485.743 641.862 484.648 640.511 484.648C639.159 484.648 638.063 485.743 638.063 487.095C638.063 488.447 639.159 489.542 640.511 489.542Z" fill="#512DA8" fill-opacity="0.25"/>
<path d="M662.521 489.542C663.873 489.542 664.968 488.447 664.968 487.095C664.968 485.743 663.873 484.648 662.521 484.648C661.17 484.648 660.074 485.743 660.074 487.095C660.074 488.447 661.17 489.542 662.521 489.542Z" fill="#512DA8" fill-opacity="0.25"/>
<path d="M684.532 489.542C685.883 489.542 686.979 488.447 686.979 487.095C686.979 485.743 685.883 484.648 684.532 484.648C683.18 484.648 682.084 485.743 682.084 487.095C682.084 488.447 683.18 489.542 684.532 489.542Z" fill="#512DA8" fill-opacity="0.25"/>
<path d="M706.542 489.542C707.894 489.542 708.989 488.447 708.989 487.095C708.989 485.743 707.894 484.648 706.542 484.648C705.191 484.648 704.095 485.743 704.095 487.095C704.095 488.447 705.191 489.542 706.542 489.542Z" fill="#512DA8" fill-opacity="0.25"/>
<path d="M728.553 489.542C729.904 489.542 731 488.447 731 487.095C731 485.743 729.904 484.648 728.553 484.648C727.201 484.648 726.105 485.743 726.105 487.095C726.105 488.447 727.201 489.542 728.553 489.542Z" fill="#512DA8" fill-opacity="0.25"/>
<path d="M510.894 506.658C510.894 508.005 509.794 509.106 508.447 509.106C507.101 509.106 506 508.005 506 506.658C506 505.312 507.101 504.211 508.447 504.211C509.794 504.211 510.894 505.312 510.894 506.658Z" fill="#512DA8" fill-opacity="0.25"/>
<path d="M532.905 506.658C532.905 508.005 531.804 509.106 530.458 509.106C529.111 509.106 528.01 508.005 528.01 506.658C528.01 505.312 529.111 504.211 530.458 504.211C531.804 504.211 532.905 505.312 532.905 506.658Z" fill="#512DA8" fill-opacity="0.25"/>
<path d="M554.916 506.658C554.916 508.005 553.815 509.106 552.468 509.106C551.122 509.106 550.021 508.005 550.021 506.658C550.021 505.312 551.122 504.211 552.468 504.211C553.815 504.211 554.916 505.312 554.916 506.658Z" fill="#512DA8" fill-opacity="0.25"/>
<path d="M576.926 506.658C576.926 508.005 575.826 509.106 574.479 509.106C573.132 509.106 572.032 508.005 572.032 506.658C572.032 505.312 573.132 504.211 574.479 504.211C575.826 504.211 576.926 505.312 576.926 506.658Z" fill="#512DA8" fill-opacity="0.25"/>
<path d="M598.937 506.658C598.937 508.005 597.836 509.106 596.489 509.106C595.143 509.106 594.042 508.005 594.042 506.658C594.042 505.312 595.143 504.211 596.489 504.211C597.836 504.211 598.937 505.312 598.937 506.658Z" fill="#512DA8" fill-opacity="0.25"/>
<path d="M620.947 506.658C620.947 508.005 619.847 509.106 618.5 509.106C617.153 509.106 616.053 508.005 616.053 506.658C616.053 505.312 617.153 504.211 618.5 504.211C619.847 504.211 620.947 505.312 620.947 506.658Z" fill="#512DA8" fill-opacity="0.25"/>
<path d="M642.958 506.658C642.958 508.005 641.857 509.106 640.511 509.106C639.164 509.106 638.063 508.005 638.063 506.658C638.063 505.312 639.164 504.211 640.511 504.211C641.857 504.211 642.958 505.312 642.958 506.658Z" fill="#512DA8" fill-opacity="0.25"/>
<path d="M664.968 506.658C664.968 508.005 663.868 509.106 662.521 509.106C661.174 509.106 660.074 508.005 660.074 506.658C660.074 505.312 661.174 504.211 662.521 504.211C663.868 504.211 664.968 505.312 664.968 506.658Z" fill="#512DA8" fill-opacity="0.25"/>
<path d="M686.979 506.658C686.979 508.005 685.878 509.106 684.532 509.106C683.185 509.106 682.084 508.005 682.084 506.658C682.084 505.312 683.185 504.211 684.532 504.211C685.878 504.211 686.979 505.312 686.979 506.658Z" fill="#512DA8" fill-opacity="0.25"/>
<path d="M708.989 506.658C708.989 508.005 707.889 509.106 706.542 509.106C705.196 509.106 704.095 508.005 704.095 506.658C704.095 505.312 705.196 504.211 706.542 504.211C707.889 504.211 708.989 505.312 708.989 506.658Z" fill="#512DA8" fill-opacity="0.25"/>
<path d="M731 506.658C731 508.005 729.899 509.106 728.553 509.106C727.206 509.106 726.105 508.005 726.105 506.658C726.105 505.312 727.206 504.211 728.553 504.211C729.899 504.211 731 505.312 731 506.658Z" fill="#512DA8" fill-opacity="0.25"/>
<path d="M332.389 151.263H356.687V359.48C356.687 362.747 357.327 365.982 358.571 369C359.815 372.018 361.638 374.761 363.936 377.071C366.235 379.381 368.963 381.213 371.966 382.463C374.969 383.713 378.187 384.357 381.437 384.357H567.208V384.595C567.208 387.862 566.568 391.097 565.324 394.115C564.08 397.133 562.257 399.875 559.959 402.185C557.661 404.495 554.932 406.328 551.929 407.578C548.927 408.828 545.708 409.472 542.458 409.472H332.389C329.139 409.472 325.92 408.828 322.917 407.578C319.915 406.328 317.186 404.495 314.888 402.185C312.59 399.875 310.767 397.133 309.523 394.115C308.279 391.097 307.639 387.862 307.639 384.595V176.14C307.639 169.542 310.246 163.214 314.888 158.549C319.53 153.884 325.825 151.263 332.389 151.263Z" fill="#F2F2F2"/>
<path d="M217.204 482.152C216.773 482.172 216.348 482.058 215.984 481.827C215.62 481.595 215.336 481.257 215.17 480.858C215.003 480.458 214.964 480.017 215.055 479.594C215.147 479.172 215.365 478.787 215.682 478.493L215.825 477.918C215.807 477.872 215.787 477.826 215.768 477.78C215.335 476.751 214.609 475.874 213.681 475.259C212.753 474.644 211.665 474.317 210.554 474.322C209.442 474.326 208.357 474.66 207.434 475.282C206.51 475.905 205.791 476.787 205.365 477.819C203.664 481.938 201.497 486.064 200.964 490.419C200.729 492.344 200.828 494.296 201.257 496.187C197.26 487.425 195.185 477.901 195.172 468.262C195.171 465.843 195.305 463.426 195.572 461.023C195.793 459.052 196.1 457.095 196.493 455.153C198.635 444.613 203.234 434.734 209.912 426.327C213.144 424.554 215.758 421.829 217.401 418.517C217.997 417.326 218.418 416.055 218.651 414.744C218.286 414.792 217.276 409.21 217.551 408.868C217.043 408.093 216.133 407.708 215.578 406.951C212.818 403.19 209.016 403.847 207.031 408.958C202.79 411.109 202.749 414.677 205.351 418.108C207.007 420.291 207.234 423.245 208.686 425.582C208.537 425.774 208.382 425.96 208.232 426.153C205.501 429.683 203.12 433.474 201.124 437.472C201.609 432.994 201.03 428.464 199.434 424.254C197.816 420.331 194.783 417.028 192.113 413.636C191.407 412.725 190.448 412.045 189.357 411.682C188.266 411.319 187.093 411.289 185.985 411.596C184.877 411.903 183.885 412.533 183.133 413.406C182.382 414.28 181.905 415.358 181.763 416.504C181.757 416.554 181.752 416.604 181.747 416.654C182.143 416.879 182.532 417.118 182.912 417.37C183.389 417.691 183.759 418.149 183.973 418.684C184.186 419.219 184.234 419.807 184.11 420.371C183.986 420.934 183.696 421.446 183.277 421.841C182.858 422.235 182.33 422.493 181.763 422.581L181.705 422.59C181.846 424.027 182.096 425.451 182.452 426.85C179.026 440.166 186.422 445.016 196.983 445.234C197.216 445.354 197.443 445.474 197.676 445.588C195.671 451.3 194.413 457.25 193.935 463.288C193.663 466.85 193.68 470.428 193.982 473.988L193.964 473.861C193.199 469.903 191.099 466.332 188.017 463.75C183.44 459.971 176.974 458.58 172.036 455.542C171.511 455.203 170.901 455.023 170.278 455.021C169.654 455.02 169.043 455.197 168.517 455.533C167.99 455.869 167.57 456.35 167.307 456.918C167.043 457.486 166.946 458.118 167.028 458.739L167.049 458.872C167.785 459.173 168.501 459.52 169.194 459.911C169.591 460.136 169.979 460.375 170.359 460.627C170.836 460.948 171.206 461.406 171.42 461.941C171.634 462.476 171.682 463.064 171.558 463.627C171.434 464.191 171.143 464.703 170.724 465.097C170.306 465.492 169.778 465.75 169.211 465.838L169.153 465.847C169.111 465.853 169.075 465.859 169.033 465.865C170.291 468.883 172.056 471.661 174.251 474.078C176.393 485.702 185.593 486.805 195.435 483.42H195.441C196.521 488.136 198.085 492.727 200.109 497.118H216.786C216.846 496.932 216.899 496.739 216.953 496.553C215.409 496.651 213.86 496.558 212.339 496.277C213.576 494.751 214.813 493.213 216.051 491.687C216.078 491.658 216.104 491.628 216.128 491.597C216.756 490.816 217.389 490.041 218.017 489.26L218.017 489.259C218.051 486.865 217.777 484.476 217.204 482.152Z" fill="#F2F2F2"/>
<path d="M400.883 122.94C400.275 123.867 399.473 124.65 398.533 125.235C397.593 125.82 396.539 126.193 395.441 126.328C394.344 126.463 393.231 126.357 392.179 126.017C391.127 125.677 390.16 125.111 389.347 124.359L354.675 140.081L347.991 131.511L389.307 113.14C390.668 111.858 392.45 111.123 394.315 111.073C396.18 111.024 397.999 111.664 399.425 112.871C400.852 114.079 401.789 115.771 402.058 117.627C402.326 119.483 401.909 121.373 400.883 122.94Z" fill="#A0616A"/>
<path d="M252.087 132.743L248.649 152.33C248.488 153.243 248.52 154.181 248.741 155.082C248.962 155.982 249.369 156.827 249.934 157.56C250.499 158.294 251.21 158.901 252.023 159.342C252.835 159.783 253.73 160.048 254.65 160.121L313.081 164.739L381.765 133.843L373.561 118.191L313.938 137.168L252.087 132.743Z" fill="#0288D1"/>
<path d="M388.841 118.707H598.91C612.579 118.707 623.66 129.844 623.66 143.583V352.038C623.66 365.778 612.579 376.915 598.91 376.915H388.841C375.172 376.915 364.091 365.778 364.091 352.038V143.583C364.091 129.844 375.172 118.707 388.841 118.707Z" fill="#F2F2F2"/>
<path d="M598.91 123.822C601.492 123.822 604.048 124.334 606.433 125.327C608.819 126.32 610.986 127.775 612.812 129.61C614.637 131.445 616.086 133.624 617.074 136.021C618.062 138.419 618.57 140.988 618.57 143.583V352.039C618.57 357.28 616.499 362.306 612.812 366.012C609.125 369.718 604.124 371.8 598.91 371.8H464.839C452.277 371.8 439.838 369.313 428.232 364.481C416.626 359.649 406.081 352.567 397.199 343.639C388.316 334.71 381.27 324.111 376.462 312.446C371.655 300.781 369.181 288.278 369.181 275.652V143.583C369.181 140.988 369.69 138.419 370.678 136.021C371.666 133.624 373.114 131.445 374.939 129.61C376.765 127.775 378.932 126.32 381.318 125.327C383.703 124.334 386.259 123.822 388.841 123.822H598.91Z" fill="white"/>
<path d="M435.151 187.085H553.059C554.141 187.085 555.178 186.653 555.943 185.884C556.708 185.115 557.138 184.072 557.138 182.985C557.138 181.897 556.708 180.854 555.943 180.085C555.178 179.317 554.141 178.885 553.059 178.885H435.151C434.069 178.885 433.032 179.317 432.267 180.085C431.502 180.854 431.072 181.897 431.072 182.985C431.072 184.072 431.502 185.115 432.267 185.884C433.032 186.653 434.069 187.085 435.151 187.085Z" fill="#F2F2F2"/>
<path d="M435.151 274.522H553.059C554.141 274.522 555.178 274.09 555.943 273.321C556.708 272.552 557.138 271.509 557.138 270.422C557.138 269.334 556.708 268.291 555.943 267.522C555.178 266.753 554.141 266.321 553.059 266.321H435.151C434.069 266.321 433.032 266.753 432.267 267.522C431.502 268.291 431.072 269.334 431.072 270.422C431.072 271.509 431.502 272.552 432.267 273.321C433.032 274.09 434.069 274.522 435.151 274.522Z" fill="#F2F2F2"/>
<path d="M387.272 230.832H600.938C602.02 230.832 603.058 230.4 603.823 229.631C604.588 228.862 605.018 227.819 605.018 226.732C605.018 225.645 604.588 224.602 603.823 223.833C603.058 223.064 602.02 222.632 600.938 222.632H387.272C386.19 222.632 385.152 223.064 384.387 223.833C383.622 224.602 383.192 225.645 383.192 226.732C383.192 227.819 383.622 228.862 384.387 229.631C385.152 230.4 386.19 230.832 387.272 230.832Z" fill="#F2F2F2"/>
<path d="M259.47 219.071L280.755 264.65L198.875 256.315L215.967 212.56L259.47 219.071Z" fill="#A0616A"/>
<path d="M240.433 481.04L248.197 480.974L251.633 450.175L240.176 450.273L240.433 481.04Z" fill="#A0616A"/>
<path d="M265.3 493.448C265.307 494.373 264.949 495.263 264.303 495.923C263.658 496.582 262.779 496.958 261.859 496.967L246.424 497.097L243.722 491.591L242.729 497.125L236.905 497.178L238.376 477.442L240.402 477.307L248.667 476.734L251.333 476.555L251.38 482.139L263.779 490.592C264.244 490.909 264.625 491.334 264.89 491.832C265.155 492.329 265.295 492.884 265.3 493.448Z" fill="#2F2E41"/>
<path d="M326.347 481.076L333.748 478.719L328.03 448.265L317.106 451.741L326.347 481.076Z" fill="#A0616A"/>
<path d="M353.743 485.592C354.02 486.474 353.937 487.431 353.514 488.252C353.09 489.073 352.359 489.692 351.482 489.972L336.766 494.654L332.574 490.19L333.243 495.772L327.692 497.543L323.328 478.244L325.226 477.516L332.958 474.528L335.454 473.569L337.131 478.893L351.454 483.311C351.991 483.477 352.479 483.771 352.878 484.168C353.277 484.566 353.574 485.054 353.743 485.592Z" fill="#2F2E41"/>
<path d="M202.604 243.497L277.053 257.209C277.053 257.209 288.994 266.187 285.8 269.402C282.605 272.617 282.11 272.119 284.209 274.229C286.307 276.338 290.845 279.158 290.89 281.004C290.934 282.849 324.25 365.635 324.25 365.635C324.25 365.635 320.549 363.775 323.325 366.565C326.101 369.356 326.101 371.662 326.101 371.662L339.057 459.583L318.016 460.828L297.413 380.672L251.456 305.789C251.456 305.789 246.896 372.565 246.705 377.007C246.513 381.448 243.737 375.867 246.513 381.448C249.29 387.029 251.14 383.309 249.29 387.029C247.439 390.75 255.957 466.499 255.957 466.499H236.751L195.56 309.493C195.56 309.493 180.905 264.606 202.604 243.497Z" fill="#2F2E41"/>
<path d="M224.536 117.912L254.358 114.797L262.084 124.88L271.085 129.698C274.894 131.737 278.038 134.836 280.141 138.624C282.245 142.412 283.218 146.728 282.945 151.057L272.426 212.56C272.426 212.56 281.311 232.67 275.202 237.675C269.093 242.68 279.925 255.076 266.873 248.837C253.821 242.598 197.465 249.767 197.465 249.767L209.495 215.351L200.508 181.531L199.519 153.175C199.334 147.876 200.899 142.664 203.969 138.353C207.039 134.041 211.441 130.871 216.491 129.337L217.748 128.955L224.536 117.912Z" fill="#0288D1"/>
<path d="M183.479 94.9325C183.284 103.381 186.425 111.562 190.938 118.748C192.279 114.553 194.689 110.735 197.203 107.096C195.936 114.969 197.286 123.042 201.044 130.067C201.176 130.162 201.314 130.251 201.455 130.332C205.133 132.556 209.797 133.457 213.776 131.85C205.555 122.942 204.508 108.183 211.401 98.1913C213.353 95.3561 215.877 92.8486 217.086 89.6221C218.994 84.474 217.16 78.8058 216.002 73.4384C214.92 68.443 214.731 62.4983 218.065 58.8373C217.709 58.3257 217.224 57.9184 216.659 57.6573C216.095 57.3961 215.472 57.2905 214.854 57.3511C212.798 57.643 211.301 59.4391 210.348 61.2889C209.395 63.1386 208.767 65.1888 207.438 66.7865C204.979 69.7771 200.79 70.4841 197.26 72.0602C188.711 75.8875 183.684 85.5313 183.479 94.9325Z" fill="#2F2E41"/>
<path d="M403.728 497.168C403.728 497.313 403.7 497.458 403.645 497.592C403.59 497.727 403.509 497.849 403.406 497.952C403.304 498.054 403.182 498.136 403.049 498.191C402.915 498.247 402.771 498.275 402.627 498.275H168.221C167.929 498.275 167.649 498.158 167.443 497.951C167.236 497.743 167.12 497.462 167.12 497.168C167.12 496.874 167.236 496.593 167.443 496.385C167.649 496.178 167.929 496.061 168.221 496.061H402.627C402.771 496.061 402.915 496.089 403.049 496.144C403.182 496.2 403.304 496.281 403.406 496.384C403.509 496.487 403.59 496.609 403.645 496.744C403.7 496.878 403.728 497.022 403.728 497.168Z" fill="#CCCCCC"/>
<path d="M181.633 290.752C177.033 290.752 173.304 287.003 173.304 282.38C173.304 277.756 177.033 274.008 181.633 274.008C186.233 274.008 189.962 277.756 189.962 282.38C189.962 287.003 186.233 290.752 181.633 290.752Z" fill="#0288D1"/>
<path d="M255.439 90.1017C254.951 88.3832 258.318 98.8885 256.693 99.0782C249.293 99.9315 239.134 104.374 233.979 106.446C233.747 106.419 233.515 106.392 233.29 106.358C232.737 106.297 232.198 106.209 231.665 106.108C219.663 103.825 215.048 85.2948 215.048 85.1255C215.048 84.2925 217.037 61.4125 220.171 61.0739C220.994 60.9841 221.821 60.9389 222.649 60.9384H230.425C232.034 60.5899 233.665 60.3523 235.306 60.2273H235.32C250.974 59.0285 263.317 68.6187 262.163 80.2881C262.156 80.3016 262.143 80.3152 262.136 80.3287C261.801 80.8299 261.508 81.304 261.248 81.7578C260.996 82.1845 260.784 82.5908 260.6 82.9769C259.173 85.9569 262.841 89.7067 260.409 90.4066C257.174 91.3375 268.916 121.934 256.113 121.934C262.341 123.713 256.787 94.8427 255.439 90.1017Z" fill="#2F2E41"/>
<path d="M241.465 108.054C231.297 108.054 223.055 99.7696 223.055 89.5498C223.055 79.3301 231.297 71.0453 241.465 71.0453C251.633 71.0453 259.875 79.3301 259.875 89.5498C259.875 99.7696 251.633 108.054 241.465 108.054Z" fill="#A0616A"/>
<path d="M262.163 81.2971C261.856 81.4597 261.556 81.6087 261.249 81.7577C260.928 81.9134 260.607 82.0692 260.286 82.2114C254.121 85.0221 249.104 85.3337 246.059 81.2971C245.977 79.1732 245.503 77.0831 244.659 75.1339C244.808 77.3122 244.237 79.4789 243.034 81.2971H236.904C230.589 85.5098 227.346 85.95 231.729 99.7799C232.951 103.634 237.81 126.058 235.898 129.384C235.346 129.323 229.462 104.761 228.93 104.659C216.928 102.377 209.303 82.5027 210.279 81.3784C210.274 78.1813 211.005 75.0264 212.416 72.1607C214.2 68.5301 216.981 65.4889 220.43 63.3968C222.487 62.3947 224.63 61.5854 226.834 60.9789C226.889 60.9654 226.937 60.9518 226.991 60.9383C227.667 60.7554 228.357 60.5861 229.046 60.4439C230.47 60.1416 231.911 59.9222 233.361 59.7869C233.463 59.7802 233.565 59.7734 233.661 59.7734C234.24 59.7747 234.808 59.9314 235.306 60.2272C235.313 60.2272 235.313 60.2339 235.32 60.2339C235.676 60.4431 235.987 60.7217 236.235 61.0534C236.671 61.6115 236.907 62.3012 236.904 63.0107H243.731C243.983 63.0107 244.236 63.0175 244.489 63.031C249.045 63.1875 253.379 65.0474 256.643 68.2467C259.907 71.4459 261.866 75.7543 262.136 80.3286C262.157 80.6537 262.163 80.972 262.163 81.2971Z" fill="#2F2E41"/>
<path d="M221.91 75.3818C215.211 75.3818 209.781 69.9238 209.781 63.1909C209.781 56.4581 215.211 51 221.91 51C228.609 51 234.039 56.4581 234.039 63.1909C234.039 69.9238 228.609 75.3818 221.91 75.3818Z" fill="#2F2E41"/>
<path d="M181.54 285.832C180.948 284.894 180.566 283.837 180.42 282.736C180.274 281.635 180.368 280.515 180.695 279.454C181.022 278.393 181.575 277.416 182.314 276.59C183.054 275.765 183.963 275.111 184.979 274.673L184.919 236.442L195.436 233.825L195.177 279.234C195.783 281.008 195.72 282.943 195 284.673C194.281 286.403 192.955 287.808 191.274 288.621C189.593 289.435 187.674 289.6 185.88 289.086C184.086 288.572 182.541 287.414 181.54 285.832Z" fill="#A0616A"/>
<path d="M233.62 145.392L217.254 134.213C216.491 133.691 215.627 133.336 214.719 133.169C213.811 133.003 212.878 133.03 211.98 133.247C211.083 133.465 210.241 133.868 209.508 134.432C208.775 134.996 208.167 135.708 207.724 136.522L179.587 188.202L179.48 263.835L197.046 262.728L204.257 200.286L233.62 145.392Z" fill="#0288D1"/>
<path d="M359.312 316.917H534.22C538.024 316.917 541.673 318.436 544.363 321.14C547.053 323.844 548.564 327.511 548.564 331.335C548.564 335.159 547.053 338.826 544.363 341.53C541.673 344.234 538.024 345.753 534.22 345.753H359.312C355.507 345.753 351.859 344.234 349.168 341.53C346.478 338.826 344.967 335.159 344.967 331.335C344.967 327.511 346.478 323.844 349.168 321.14C351.859 318.436 355.507 316.917 359.312 316.917Z" fill="white"/>
<path d="M359.312 346.683H534.22C538.27 346.683 542.154 345.066 545.018 342.188C547.881 339.309 549.49 335.406 549.49 331.335C549.49 327.265 547.881 323.361 545.018 320.482C542.154 317.604 538.27 315.987 534.22 315.987H359.312C355.262 315.987 351.378 317.604 348.514 320.482C345.651 323.361 344.042 327.265 344.042 331.335C344.042 335.406 345.651 339.309 348.514 342.188C351.378 345.066 355.262 346.683 359.312 346.683ZM534.22 317.847C537.779 317.847 541.192 319.268 543.709 321.798C546.225 324.327 547.639 327.758 547.639 331.335C547.639 334.912 546.225 338.343 543.709 340.872C541.192 343.402 537.779 344.823 534.22 344.823H359.312C355.753 344.823 352.34 343.402 349.823 340.872C347.306 338.343 345.893 334.912 345.893 331.335C345.893 327.758 347.306 324.327 349.823 321.798C352.34 319.268 355.753 317.847 359.312 317.847H534.22Z" fill="#0288D1"/>
<path d="M348.998 379.837H426.186C427.268 379.837 428.305 379.405 429.07 378.636C429.835 377.867 430.265 376.824 430.265 375.737C430.265 374.649 429.835 373.606 429.07 372.837C428.305 372.068 427.268 371.636 426.186 371.636H348.998C347.916 371.636 346.878 372.068 346.113 372.837C345.348 373.606 344.918 374.649 344.918 375.737C344.918 376.824 345.348 377.867 346.113 378.636C346.878 379.405 347.916 379.837 348.998 379.837Z" fill="#0288D1"/>
</svg>
