<svg width="790" height="550" viewBox="0 0 790 550" fill="none" xmlns="http://www.w3.org/2000/svg">
<path d="M54.4472 45.8944C55.7988 45.8944 56.8945 44.7988 56.8945 43.4472C56.8945 42.0956 55.7988 41 54.4472 41C53.0957 41 52 42.0956 52 43.4472C52 44.7988 53.0957 45.8944 54.4472 45.8944Z" fill="#512DA8" fill-opacity="0.25"/>
<path d="M76.4577 45.8944C77.8093 45.8944 78.9049 44.7988 78.9049 43.4472C78.9049 42.0956 77.8093 41 76.4577 41C75.1062 41 74.0105 42.0956 74.0105 43.4472C74.0105 44.7988 75.1062 45.8944 76.4577 45.8944Z" fill="#512DA8" fill-opacity="0.25"/>
<path d="M98.4682 45.8944C99.8198 45.8944 100.915 44.7988 100.915 43.4472C100.915 42.0956 99.8198 41 98.4682 41C97.1167 41 96.021 42.0956 96.021 43.4472C96.021 44.7988 97.1167 45.8944 98.4682 45.8944Z" fill="#512DA8" fill-opacity="0.25"/>
<path d="M122.926 43.4472C122.926 44.7939 121.826 45.8944 120.479 45.8944C119.132 45.8944 118.032 44.7939 118.032 43.4472C118.032 42.1005 119.132 41 120.479 41C121.826 41 122.926 42.1005 122.926 43.4472Z" fill="#512DA8" fill-opacity="0.25"/>
<path d="M144.937 43.4472C144.937 44.7939 143.836 45.8944 142.489 45.8944C141.143 45.8944 140.042 44.7939 140.042 43.4472C140.042 42.1005 141.143 41 142.489 41C143.836 41 144.937 42.1005 144.937 43.4472Z" fill="#512DA8" fill-opacity="0.25"/>
<path d="M164.5 45.8944C165.852 45.8944 166.947 44.7988 166.947 43.4472C166.947 42.0956 165.852 41 164.5 41C163.148 41 162.053 42.0956 162.053 43.4472C162.053 44.7988 163.148 45.8944 164.5 45.8944Z" fill="#512DA8" fill-opacity="0.25"/>
<path d="M186.51 45.8944C187.862 45.8944 188.958 44.7988 188.958 43.4472C188.958 42.0956 187.862 41 186.51 41C185.159 41 184.063 42.0956 184.063 43.4472C184.063 44.7988 185.159 45.8944 186.51 45.8944Z" fill="#512DA8" fill-opacity="0.25"/>
<path d="M208.521 45.8944C209.873 45.8944 210.968 44.7988 210.968 43.4472C210.968 42.0956 209.873 41 208.521 41C207.17 41 206.074 42.0956 206.074 43.4472C206.074 44.7988 207.17 45.8944 208.521 45.8944Z" fill="#512DA8" fill-opacity="0.25"/>
<path d="M230.532 45.8944C231.883 45.8944 232.979 44.7988 232.979 43.4472C232.979 42.0956 231.883 41 230.532 41C229.18 41 228.084 42.0956 228.084 43.4472C228.084 44.7988 229.18 45.8944 230.532 45.8944Z" fill="#512DA8" fill-opacity="0.25"/>
<path d="M252.542 45.8944C253.894 45.8944 254.989 44.7988 254.989 43.4472C254.989 42.0956 253.894 41 252.542 41C251.191 41 250.095 42.0956 250.095 43.4472C250.095 44.7988 251.191 45.8944 252.542 45.8944Z" fill="#512DA8" fill-opacity="0.25"/>
<path d="M274.553 45.8944C275.904 45.8944 277 44.7988 277 43.4472C277 42.0956 275.904 41 274.553 41C273.201 41 272.105 42.0956 272.105 43.4472C272.105 44.7988 273.201 45.8944 274.553 45.8944Z" fill="#512DA8" fill-opacity="0.25"/>
<path d="M54.4472 65.4578C55.7988 65.4578 56.8945 64.3621 56.8945 63.0106C56.8945 61.659 55.7988 60.5634 54.4472 60.5634C53.0957 60.5634 52 61.659 52 63.0106C52 64.3621 53.0957 65.4578 54.4472 65.4578Z" fill="#512DA8" fill-opacity="0.25"/>
<path d="M76.4577 65.4578C77.8093 65.4578 78.9049 64.3621 78.9049 63.0106C78.9049 61.659 77.8093 60.5634 76.4577 60.5634C75.1062 60.5634 74.0105 61.659 74.0105 63.0106C74.0105 64.3621 75.1062 65.4578 76.4577 65.4578Z" fill="#512DA8" fill-opacity="0.25"/>
<path d="M98.4682 65.4578C99.8198 65.4578 100.915 64.3621 100.915 63.0106C100.915 61.659 99.8198 60.5634 98.4682 60.5634C97.1167 60.5634 96.021 61.659 96.021 63.0106C96.021 64.3621 97.1167 65.4578 98.4682 65.4578Z" fill="#512DA8" fill-opacity="0.25"/>
<path d="M122.926 63.0106C122.926 64.3573 121.826 65.4578 120.479 65.4578C119.132 65.4578 118.032 64.3573 118.032 63.0106C118.032 61.6639 119.132 60.5634 120.479 60.5634C121.826 60.5634 122.926 61.6639 122.926 63.0106Z" fill="#512DA8" fill-opacity="0.25"/>
<path d="M144.937 63.0106C144.937 64.3573 143.836 65.4578 142.489 65.4578C141.143 65.4578 140.042 64.3573 140.042 63.0106C140.042 61.6639 141.143 60.5634 142.489 60.5634C143.836 60.5634 144.937 61.6639 144.937 63.0106Z" fill="#512DA8" fill-opacity="0.25"/>
<path d="M164.5 65.4578C165.852 65.4578 166.947 64.3621 166.947 63.0106C166.947 61.659 165.852 60.5634 164.5 60.5634C163.148 60.5634 162.053 61.659 162.053 63.0106C162.053 64.3621 163.148 65.4578 164.5 65.4578Z" fill="#512DA8" fill-opacity="0.25"/>
<path d="M186.51 65.4578C187.862 65.4578 188.958 64.3621 188.958 63.0106C188.958 61.659 187.862 60.5634 186.51 60.5634C185.159 60.5634 184.063 61.659 184.063 63.0106C184.063 64.3621 185.159 65.4578 186.51 65.4578Z" fill="#512DA8" fill-opacity="0.25"/>
<path d="M208.521 65.4578C209.873 65.4578 210.968 64.3621 210.968 63.0106C210.968 61.659 209.873 60.5634 208.521 60.5634C207.17 60.5634 206.074 61.659 206.074 63.0106C206.074 64.3621 207.17 65.4578 208.521 65.4578Z" fill="#512DA8" fill-opacity="0.25"/>
<path d="M230.532 65.4578C231.883 65.4578 232.979 64.3621 232.979 63.0106C232.979 61.659 231.883 60.5634 230.532 60.5634C229.18 60.5634 228.084 61.659 228.084 63.0106C228.084 64.3621 229.18 65.4578 230.532 65.4578Z" fill="#512DA8" fill-opacity="0.25"/>
<path d="M252.542 65.4578C253.894 65.4578 254.989 64.3621 254.989 63.0106C254.989 61.659 253.894 60.5634 252.542 60.5634C251.191 60.5634 250.095 61.659 250.095 63.0106C250.095 64.3621 251.191 65.4578 252.542 65.4578Z" fill="#512DA8" fill-opacity="0.25"/>
<path d="M274.553 65.4578C275.904 65.4578 277 64.3621 277 63.0106C277 61.659 275.904 60.5634 274.553 60.5634C273.201 60.5634 272.105 61.659 272.105 63.0106C272.105 64.3621 273.201 65.4578 274.553 65.4578Z" fill="#512DA8" fill-opacity="0.25"/>
<path d="M54.4472 85.0212C55.7988 85.0212 56.8945 83.9255 56.8945 82.5739C56.8945 81.2224 55.7988 80.1267 54.4472 80.1267C53.0957 80.1267 52 81.2224 52 82.5739C52 83.9255 53.0957 85.0212 54.4472 85.0212Z" fill="#512DA8" fill-opacity="0.25"/>
<path d="M76.4577 85.0212C77.8093 85.0212 78.9049 83.9255 78.9049 82.5739C78.9049 81.2224 77.8093 80.1267 76.4577 80.1267C75.1062 80.1267 74.0105 81.2224 74.0105 82.5739C74.0105 83.9255 75.1062 85.0212 76.4577 85.0212Z" fill="#512DA8" fill-opacity="0.25"/>
<path d="M98.4682 85.0212C99.8198 85.0212 100.915 83.9255 100.915 82.5739C100.915 81.2224 99.8198 80.1267 98.4682 80.1267C97.1167 80.1267 96.021 81.2224 96.021 82.5739C96.021 83.9255 97.1167 85.0212 98.4682 85.0212Z" fill="#512DA8" fill-opacity="0.25"/>
<path d="M122.926 82.5739C122.926 83.9206 121.826 85.0212 120.479 85.0212C119.132 85.0212 118.032 83.9206 118.032 82.5739C118.032 81.2272 119.132 80.1267 120.479 80.1267C121.826 80.1267 122.926 81.2272 122.926 82.5739Z" fill="#512DA8" fill-opacity="0.25"/>
<path d="M144.937 82.5739C144.937 83.9206 143.836 85.0212 142.489 85.0212C141.143 85.0212 140.042 83.9206 140.042 82.5739C140.042 81.2272 141.143 80.1267 142.489 80.1267C143.836 80.1267 144.937 81.2272 144.937 82.5739Z" fill="#512DA8" fill-opacity="0.25"/>
<path d="M164.5 85.0212C165.852 85.0212 166.947 83.9255 166.947 82.5739C166.947 81.2224 165.852 80.1267 164.5 80.1267C163.148 80.1267 162.053 81.2224 162.053 82.5739C162.053 83.9255 163.148 85.0212 164.5 85.0212Z" fill="#512DA8" fill-opacity="0.25"/>
<path d="M186.51 85.0212C187.862 85.0212 188.958 83.9255 188.958 82.5739C188.958 81.2224 187.862 80.1267 186.51 80.1267C185.159 80.1267 184.063 81.2224 184.063 82.5739C184.063 83.9255 185.159 85.0212 186.51 85.0212Z" fill="#512DA8" fill-opacity="0.25"/>
<path d="M208.521 85.0212C209.873 85.0212 210.968 83.9255 210.968 82.5739C210.968 81.2224 209.873 80.1267 208.521 80.1267C207.17 80.1267 206.074 81.2224 206.074 82.5739C206.074 83.9255 207.17 85.0212 208.521 85.0212Z" fill="#512DA8" fill-opacity="0.25"/>
<path d="M230.532 85.0212C231.883 85.0212 232.979 83.9255 232.979 82.5739C232.979 81.2224 231.883 80.1267 230.532 80.1267C229.18 80.1267 228.084 81.2224 228.084 82.5739C228.084 83.9255 229.18 85.0212 230.532 85.0212Z" fill="#512DA8" fill-opacity="0.25"/>
<path d="M252.542 85.0212C253.894 85.0212 254.989 83.9255 254.989 82.5739C254.989 81.2224 253.894 80.1267 252.542 80.1267C251.191 80.1267 250.095 81.2224 250.095 82.5739C250.095 83.9255 251.191 85.0212 252.542 85.0212Z" fill="#512DA8" fill-opacity="0.25"/>
<path d="M274.553 85.0212C275.904 85.0212 277 83.9255 277 82.5739C277 81.2224 275.904 80.1267 274.553 80.1267C273.201 80.1267 272.105 81.2224 272.105 82.5739C272.105 83.9255 273.201 85.0212 274.553 85.0212Z" fill="#512DA8" fill-opacity="0.25"/>
<path d="M56.8945 102.137C56.8945 103.484 55.7939 104.584 54.4472 104.584C53.1005 104.584 52 103.484 52 102.137C52 100.791 53.1005 99.69 54.4472 99.69C55.7939 99.69 56.8945 100.791 56.8945 102.137Z" fill="#512DA8" fill-opacity="0.25"/>
<path d="M78.9049 102.137C78.9049 103.484 77.8044 104.584 76.4577 104.584C75.111 104.584 74.0105 103.484 74.0105 102.137C74.0105 100.791 75.111 99.69 76.4577 99.69C77.8044 99.69 78.9049 100.791 78.9049 102.137Z" fill="#512DA8" fill-opacity="0.25"/>
<path d="M100.915 102.137C100.915 103.484 99.8149 104.584 98.4682 104.584C97.1215 104.584 96.021 103.484 96.021 102.137C96.021 100.791 97.1215 99.69 98.4682 99.69C99.8149 99.69 100.915 100.791 100.915 102.137Z" fill="#512DA8" fill-opacity="0.25"/>
<path d="M122.926 102.137C122.926 103.484 121.826 104.584 120.479 104.584C119.132 104.584 118.032 103.484 118.032 102.137C118.032 100.791 119.132 99.69 120.479 99.69C121.826 99.69 122.926 100.791 122.926 102.137Z" fill="#512DA8" fill-opacity="0.25"/>
<path d="M144.937 102.137C144.937 103.484 143.836 104.584 142.489 104.584C141.143 104.584 140.042 103.484 140.042 102.137C140.042 100.791 141.143 99.69 142.489 99.69C143.836 99.69 144.937 100.791 144.937 102.137Z" fill="#512DA8" fill-opacity="0.25"/>
<path d="M166.947 102.137C166.947 103.484 165.847 104.584 164.5 104.584C163.153 104.584 162.053 103.484 162.053 102.137C162.053 100.791 163.153 99.69 164.5 99.69C165.847 99.69 166.947 100.791 166.947 102.137Z" fill="#512DA8" fill-opacity="0.25"/>
<path d="M188.958 102.137C188.958 103.484 187.857 104.584 186.51 104.584C185.164 104.584 184.063 103.484 184.063 102.137C184.063 100.791 185.164 99.69 186.51 99.69C187.857 99.69 188.958 100.791 188.958 102.137Z" fill="#512DA8" fill-opacity="0.25"/>
<path d="M210.968 102.137C210.968 103.484 209.868 104.584 208.521 104.584C207.174 104.584 206.074 103.484 206.074 102.137C206.074 100.791 207.174 99.69 208.521 99.69C209.868 99.69 210.968 100.791 210.968 102.137Z" fill="#512DA8" fill-opacity="0.25"/>
<path d="M232.979 102.137C232.979 103.484 231.878 104.584 230.532 104.584C229.185 104.584 228.084 103.484 228.084 102.137C228.084 100.791 229.185 99.69 230.532 99.69C231.878 99.69 232.979 100.791 232.979 102.137Z" fill="#512DA8" fill-opacity="0.25"/>
<path d="M254.989 102.137C254.989 103.484 253.889 104.584 252.542 104.584C251.196 104.584 250.095 103.484 250.095 102.137C250.095 100.791 251.196 99.69 252.542 99.69C253.889 99.69 254.989 100.791 254.989 102.137Z" fill="#512DA8" fill-opacity="0.25"/>
<path d="M277 102.137C277 103.484 275.899 104.584 274.553 104.584C273.206 104.584 272.105 103.484 272.105 102.137C272.105 100.791 273.206 99.69 274.553 99.69C275.899 99.69 277 100.791 277 102.137Z" fill="#512DA8" fill-opacity="0.25"/>
<path d="M56.8945 121.701C56.8945 123.047 55.7939 124.148 54.4472 124.148C53.1005 124.148 52 123.047 52 121.701C52 120.354 53.1005 119.253 54.4472 119.253C55.7939 119.253 56.8945 120.354 56.8945 121.701Z" fill="#512DA8" fill-opacity="0.25"/>
<path d="M78.9049 121.701C78.9049 123.047 77.8044 124.148 76.4577 124.148C75.111 124.148 74.0105 123.047 74.0105 121.701C74.0105 120.354 75.111 119.253 76.4577 119.253C77.8044 119.253 78.9049 120.354 78.9049 121.701Z" fill="#512DA8" fill-opacity="0.25"/>
<path d="M100.915 121.701C100.915 123.047 99.8149 124.148 98.4682 124.148C97.1215 124.148 96.021 123.047 96.021 121.701C96.021 120.354 97.1215 119.253 98.4682 119.253C99.8149 119.253 100.915 120.354 100.915 121.701Z" fill="#512DA8" fill-opacity="0.25"/>
<path d="M122.926 121.701C122.926 123.047 121.826 124.148 120.479 124.148C119.132 124.148 118.032 123.047 118.032 121.701C118.032 120.354 119.132 119.253 120.479 119.253C121.826 119.253 122.926 120.354 122.926 121.701Z" fill="#512DA8" fill-opacity="0.25"/>
<path d="M144.937 121.701C144.937 123.047 143.836 124.148 142.489 124.148C141.143 124.148 140.042 123.047 140.042 121.701C140.042 120.354 141.143 119.253 142.489 119.253C143.836 119.253 144.937 120.354 144.937 121.701Z" fill="#512DA8" fill-opacity="0.25"/>
<path d="M166.947 121.701C166.947 123.047 165.847 124.148 164.5 124.148C163.153 124.148 162.053 123.047 162.053 121.701C162.053 120.354 163.153 119.253 164.5 119.253C165.847 119.253 166.947 120.354 166.947 121.701Z" fill="#512DA8" fill-opacity="0.25"/>
<path d="M188.958 121.701C188.958 123.047 187.857 124.148 186.51 124.148C185.164 124.148 184.063 123.047 184.063 121.701C184.063 120.354 185.164 119.253 186.51 119.253C187.857 119.253 188.958 120.354 188.958 121.701Z" fill="#512DA8" fill-opacity="0.25"/>
<path d="M210.968 121.701C210.968 123.047 209.868 124.148 208.521 124.148C207.174 124.148 206.074 123.047 206.074 121.701C206.074 120.354 207.174 119.253 208.521 119.253C209.868 119.253 210.968 120.354 210.968 121.701Z" fill="#512DA8" fill-opacity="0.25"/>
<path d="M232.979 121.701C232.979 123.047 231.878 124.148 230.532 124.148C229.185 124.148 228.084 123.047 228.084 121.701C228.084 120.354 229.185 119.253 230.532 119.253C231.878 119.253 232.979 120.354 232.979 121.701Z" fill="#512DA8" fill-opacity="0.25"/>
<path d="M254.989 121.701C254.989 123.047 253.889 124.148 252.542 124.148C251.196 124.148 250.095 123.047 250.095 121.701C250.095 120.354 251.196 119.253 252.542 119.253C253.889 119.253 254.989 120.354 254.989 121.701Z" fill="#512DA8" fill-opacity="0.25"/>
<path d="M277 121.701C277 123.047 275.899 124.148 274.553 124.148C273.206 124.148 272.105 123.047 272.105 121.701C272.105 120.354 273.206 119.253 274.553 119.253C275.899 119.253 277 120.354 277 121.701Z" fill="#512DA8" fill-opacity="0.25"/>
<path d="M56.8945 141.264C56.8945 142.611 55.7939 143.711 54.4472 143.711C53.1005 143.711 52 142.611 52 141.264C52 139.917 53.1005 138.817 54.4472 138.817C55.7939 138.817 56.8945 139.917 56.8945 141.264Z" fill="#512DA8" fill-opacity="0.25"/>
<path d="M78.9049 141.264C78.9049 142.611 77.8044 143.711 76.4577 143.711C75.111 143.711 74.0105 142.611 74.0105 141.264C74.0105 139.917 75.111 138.817 76.4577 138.817C77.8044 138.817 78.9049 139.917 78.9049 141.264Z" fill="#512DA8" fill-opacity="0.25"/>
<path d="M100.915 141.264C100.915 142.611 99.8149 143.711 98.4682 143.711C97.1215 143.711 96.021 142.611 96.021 141.264C96.021 139.917 97.1215 138.817 98.4682 138.817C99.8149 138.817 100.915 139.917 100.915 141.264Z" fill="#512DA8" fill-opacity="0.25"/>
<path d="M122.926 141.264C122.926 142.611 121.826 143.711 120.479 143.711C119.132 143.711 118.032 142.611 118.032 141.264C118.032 139.917 119.132 138.817 120.479 138.817C121.826 138.817 122.926 139.917 122.926 141.264Z" fill="#512DA8" fill-opacity="0.25"/>
<path d="M144.937 141.264C144.937 142.611 143.836 143.711 142.489 143.711C141.143 143.711 140.042 142.611 140.042 141.264C140.042 139.917 141.143 138.817 142.489 138.817C143.836 138.817 144.937 139.917 144.937 141.264Z" fill="#512DA8" fill-opacity="0.25"/>
<path d="M166.947 141.264C166.947 142.611 165.847 143.711 164.5 143.711C163.153 143.711 162.053 142.611 162.053 141.264C162.053 139.917 163.153 138.817 164.5 138.817C165.847 138.817 166.947 139.917 166.947 141.264Z" fill="#512DA8" fill-opacity="0.25"/>
<path d="M188.958 141.264C188.958 142.611 187.857 143.711 186.51 143.711C185.164 143.711 184.063 142.611 184.063 141.264C184.063 139.917 185.164 138.817 186.51 138.817C187.857 138.817 188.958 139.917 188.958 141.264Z" fill="#512DA8" fill-opacity="0.25"/>
<path d="M210.968 141.264C210.968 142.611 209.868 143.711 208.521 143.711C207.174 143.711 206.074 142.611 206.074 141.264C206.074 139.917 207.174 138.817 208.521 138.817C209.868 138.817 210.968 139.917 210.968 141.264Z" fill="#512DA8" fill-opacity="0.25"/>
<path d="M232.979 141.264C232.979 142.611 231.878 143.711 230.532 143.711C229.185 143.711 228.084 142.611 228.084 141.264C228.084 139.917 229.185 138.817 230.532 138.817C231.878 138.817 232.979 139.917 232.979 141.264Z" fill="#512DA8" fill-opacity="0.25"/>
<path d="M254.989 141.264C254.989 142.611 253.889 143.711 252.542 143.711C251.196 143.711 250.095 142.611 250.095 141.264C250.095 139.917 251.196 138.817 252.542 138.817C253.889 138.817 254.989 139.917 254.989 141.264Z" fill="#512DA8" fill-opacity="0.25"/>
<path d="M277 141.264C277 142.611 275.899 143.711 274.553 143.711C273.206 143.711 272.105 142.611 272.105 141.264C272.105 139.917 273.206 138.817 274.553 138.817C275.899 138.817 277 139.917 277 141.264Z" fill="#512DA8" fill-opacity="0.25"/>
<path d="M54.4472 163.274C55.7988 163.274 56.8945 162.179 56.8945 160.827C56.8945 159.476 55.7988 158.38 54.4472 158.38C53.0957 158.38 52 159.476 52 160.827C52 162.179 53.0957 163.274 54.4472 163.274Z" fill="#512DA8" fill-opacity="0.25"/>
<path d="M76.4577 163.274C77.8093 163.274 78.9049 162.179 78.9049 160.827C78.9049 159.476 77.8093 158.38 76.4577 158.38C75.1062 158.38 74.0105 159.476 74.0105 160.827C74.0105 162.179 75.1062 163.274 76.4577 163.274Z" fill="#512DA8" fill-opacity="0.25"/>
<path d="M98.4682 163.274C99.8198 163.274 100.915 162.179 100.915 160.827C100.915 159.476 99.8198 158.38 98.4682 158.38C97.1167 158.38 96.021 159.476 96.021 160.827C96.021 162.179 97.1167 163.274 98.4682 163.274Z" fill="#512DA8" fill-opacity="0.25"/>
<path d="M122.926 160.827C122.926 162.174 121.826 163.274 120.479 163.274C119.132 163.274 118.032 162.174 118.032 160.827C118.032 159.48 119.132 158.38 120.479 158.38C121.826 158.394 122.926 159.48 122.926 160.827Z" fill="#512DA8" fill-opacity="0.25"/>
<path d="M144.937 160.827C144.937 162.174 143.836 163.274 142.489 163.274C141.143 163.274 140.042 162.174 140.042 160.827C140.042 159.48 141.143 158.38 142.489 158.38C143.836 158.394 144.937 159.48 144.937 160.827Z" fill="#512DA8" fill-opacity="0.25"/>
<path d="M164.5 163.274C165.852 163.274 166.947 162.179 166.947 160.827C166.947 159.476 165.852 158.38 164.5 158.38C163.148 158.38 162.053 159.476 162.053 160.827C162.053 162.179 163.148 163.274 164.5 163.274Z" fill="#512DA8" fill-opacity="0.25"/>
<path d="M186.51 163.274C187.862 163.274 188.958 162.179 188.958 160.827C188.958 159.476 187.862 158.38 186.51 158.38C185.159 158.38 184.063 159.476 184.063 160.827C184.063 162.179 185.159 163.274 186.51 163.274Z" fill="#512DA8" fill-opacity="0.25"/>
<path d="M208.521 163.274C209.873 163.274 210.968 162.179 210.968 160.827C210.968 159.476 209.873 158.38 208.521 158.38C207.17 158.38 206.074 159.476 206.074 160.827C206.074 162.179 207.17 163.274 208.521 163.274Z" fill="#512DA8" fill-opacity="0.25"/>
<path d="M230.532 163.274C231.883 163.274 232.979 162.179 232.979 160.827C232.979 159.476 231.883 158.38 230.532 158.38C229.18 158.38 228.084 159.476 228.084 160.827C228.084 162.179 229.18 163.274 230.532 163.274Z" fill="#512DA8" fill-opacity="0.25"/>
<path d="M252.542 163.274C253.894 163.274 254.989 162.179 254.989 160.827C254.989 159.476 253.894 158.38 252.542 158.38C251.191 158.38 250.095 159.476 250.095 160.827C250.095 162.179 251.191 163.274 252.542 163.274Z" fill="#512DA8" fill-opacity="0.25"/>
<path d="M274.553 163.274C275.904 163.274 277 162.179 277 160.827C277 159.476 275.904 158.38 274.553 158.38C273.201 158.38 272.105 159.476 272.105 160.827C272.105 162.179 273.201 163.274 274.553 163.274Z" fill="#512DA8" fill-opacity="0.25"/>
<path d="M56.8945 180.405C56.8945 181.752 55.7939 182.852 54.4472 182.852C53.1005 182.852 52 181.752 52 180.405C52 179.058 53.1005 177.958 54.4472 177.958C55.7939 177.958 56.8945 179.044 56.8945 180.405Z" fill="#512DA8" fill-opacity="0.25"/>
<path d="M78.9049 180.405C78.9049 181.752 77.8044 182.852 76.4577 182.852C75.111 182.852 74.0105 181.752 74.0105 180.405C74.0105 179.058 75.111 177.958 76.4577 177.958C77.8044 177.958 78.9049 179.044 78.9049 180.405Z" fill="#512DA8" fill-opacity="0.25"/>
<path d="M100.915 180.405C100.915 181.752 99.8149 182.852 98.4682 182.852C97.1215 182.852 96.021 181.752 96.021 180.405C96.021 179.058 97.1215 177.958 98.4682 177.958C99.8149 177.958 100.915 179.044 100.915 180.405Z" fill="#512DA8" fill-opacity="0.25"/>
<path d="M122.926 180.405C122.926 181.752 121.826 182.852 120.479 182.852C119.132 182.852 118.032 181.752 118.032 180.405C118.032 179.058 119.132 177.958 120.479 177.958C121.826 177.958 122.926 179.044 122.926 180.405Z" fill="#512DA8" fill-opacity="0.25"/>
<path d="M144.937 180.405C144.937 181.752 143.836 182.852 142.489 182.852C141.143 182.852 140.042 181.752 140.042 180.405C140.042 179.058 141.143 177.958 142.489 177.958C143.836 177.958 144.937 179.044 144.937 180.405Z" fill="#512DA8" fill-opacity="0.25"/>
<path d="M166.947 180.405C166.947 181.752 165.847 182.852 164.5 182.852C163.153 182.852 162.053 181.752 162.053 180.405C162.053 179.058 163.153 177.958 164.5 177.958C165.847 177.958 166.947 179.044 166.947 180.405Z" fill="#512DA8" fill-opacity="0.25"/>
<path d="M188.958 180.405C188.958 181.752 187.857 182.852 186.51 182.852C185.164 182.852 184.063 181.752 184.063 180.405C184.063 179.058 185.164 177.958 186.51 177.958C187.857 177.958 188.958 179.044 188.958 180.405Z" fill="#512DA8" fill-opacity="0.25"/>
<path d="M210.968 180.405C210.968 181.752 209.868 182.852 208.521 182.852C207.174 182.852 206.074 181.752 206.074 180.405C206.074 179.058 207.174 177.958 208.521 177.958C209.868 177.958 210.968 179.044 210.968 180.405Z" fill="#512DA8" fill-opacity="0.25"/>
<path d="M232.979 180.405C232.979 181.752 231.878 182.852 230.532 182.852C229.185 182.852 228.084 181.752 228.084 180.405C228.084 179.058 229.185 177.958 230.532 177.958C231.878 177.958 232.979 179.044 232.979 180.405Z" fill="#512DA8" fill-opacity="0.25"/>
<path d="M254.989 180.405C254.989 181.752 253.889 182.852 252.542 182.852C251.196 182.852 250.095 181.752 250.095 180.405C250.095 179.058 251.196 177.958 252.542 177.958C253.889 177.958 254.989 179.044 254.989 180.405Z" fill="#512DA8" fill-opacity="0.25"/>
<path d="M277 180.405C277 181.752 275.899 182.852 274.553 182.852C273.206 182.852 272.105 181.752 272.105 180.405C272.105 179.058 273.206 177.958 274.553 177.958C275.899 177.958 277 179.044 277 180.405Z" fill="#512DA8" fill-opacity="0.25"/>
<path d="M56.8945 199.968C56.8945 201.315 55.7939 202.416 54.4472 202.416C53.1005 202.416 52 201.315 52 199.968C52 198.622 53.1005 197.521 54.4472 197.521C55.7939 197.521 56.8945 198.607 56.8945 199.968Z" fill="#512DA8" fill-opacity="0.25"/>
<path d="M78.9049 199.968C78.9049 201.315 77.8044 202.416 76.4577 202.416C75.111 202.416 74.0105 201.315 74.0105 199.968C74.0105 198.622 75.111 197.521 76.4577 197.521C77.8044 197.521 78.9049 198.607 78.9049 199.968Z" fill="#512DA8" fill-opacity="0.25"/>
<path d="M100.915 199.968C100.915 201.315 99.8149 202.416 98.4682 202.416C97.1215 202.416 96.021 201.315 96.021 199.968C96.021 198.622 97.1215 197.521 98.4682 197.521C99.8149 197.521 100.915 198.607 100.915 199.968Z" fill="#512DA8" fill-opacity="0.25"/>
<path d="M122.926 199.968C122.926 201.315 121.826 202.416 120.479 202.416C119.132 202.416 118.032 201.315 118.032 199.968C118.032 198.622 119.132 197.521 120.479 197.521C121.826 197.521 122.926 198.607 122.926 199.968Z" fill="#512DA8" fill-opacity="0.25"/>
<path d="M144.937 199.968C144.937 201.315 143.836 202.416 142.489 202.416C141.143 202.416 140.042 201.315 140.042 199.968C140.042 198.622 141.143 197.521 142.489 197.521C143.836 197.521 144.937 198.607 144.937 199.968Z" fill="#512DA8" fill-opacity="0.25"/>
<path d="M166.947 199.968C166.947 201.315 165.847 202.416 164.5 202.416C163.153 202.416 162.053 201.315 162.053 199.968C162.053 198.622 163.153 197.521 164.5 197.521C165.847 197.521 166.947 198.607 166.947 199.968Z" fill="#512DA8" fill-opacity="0.25"/>
<path d="M188.958 199.968C188.958 201.315 187.857 202.416 186.51 202.416C185.164 202.416 184.063 201.315 184.063 199.968C184.063 198.622 185.164 197.521 186.51 197.521C187.857 197.521 188.958 198.607 188.958 199.968Z" fill="#512DA8" fill-opacity="0.25"/>
<path d="M210.968 199.968C210.968 201.315 209.868 202.416 208.521 202.416C207.174 202.416 206.074 201.315 206.074 199.968C206.074 198.622 207.174 197.521 208.521 197.521C209.868 197.521 210.968 198.607 210.968 199.968Z" fill="#512DA8" fill-opacity="0.25"/>
<path d="M232.979 199.968C232.979 201.315 231.878 202.416 230.532 202.416C229.185 202.416 228.084 201.315 228.084 199.968C228.084 198.622 229.185 197.521 230.532 197.521C231.878 197.521 232.979 198.607 232.979 199.968Z" fill="#512DA8" fill-opacity="0.25"/>
<path d="M254.989 199.968C254.989 201.315 253.889 202.416 252.542 202.416C251.196 202.416 250.095 201.315 250.095 199.968C250.095 198.622 251.196 197.521 252.542 197.521C253.889 197.521 254.989 198.607 254.989 199.968Z" fill="#512DA8" fill-opacity="0.25"/>
<path d="M277 199.968C277 201.315 275.899 202.416 274.553 202.416C273.206 202.416 272.105 201.315 272.105 199.968C272.105 198.622 273.206 197.521 274.553 197.521C275.899 197.521 277 198.607 277 199.968Z" fill="#512DA8" fill-opacity="0.25"/>
<path d="M56.8945 219.532C56.8945 220.878 55.7939 221.979 54.4472 221.979C53.1005 221.979 52 220.878 52 219.532C52 218.185 53.1005 217.084 54.4472 217.084C55.7939 217.084 56.8945 218.185 56.8945 219.532Z" fill="#512DA8" fill-opacity="0.25"/>
<path d="M78.9049 219.532C78.9049 220.878 77.8044 221.979 76.4577 221.979C75.111 221.979 74.0105 220.878 74.0105 219.532C74.0105 218.185 75.111 217.084 76.4577 217.084C77.8044 217.084 78.9049 218.185 78.9049 219.532Z" fill="#512DA8" fill-opacity="0.25"/>
<path d="M100.915 219.532C100.915 220.878 99.8149 221.979 98.4682 221.979C97.1215 221.979 96.021 220.878 96.021 219.532C96.021 218.185 97.1215 217.084 98.4682 217.084C99.8149 217.084 100.915 218.185 100.915 219.532Z" fill="#512DA8" fill-opacity="0.25"/>
<path d="M122.926 219.532C122.926 220.878 121.826 221.979 120.479 221.979C119.132 221.979 118.032 220.878 118.032 219.532C118.032 218.185 119.132 217.084 120.479 217.084C121.826 217.084 122.926 218.185 122.926 219.532Z" fill="#512DA8" fill-opacity="0.25"/>
<path d="M144.937 219.532C144.937 220.878 143.836 221.979 142.489 221.979C141.143 221.979 140.042 220.878 140.042 219.532C140.042 218.185 141.143 217.084 142.489 217.084C143.836 217.084 144.937 218.185 144.937 219.532Z" fill="#512DA8" fill-opacity="0.25"/>
<path d="M166.947 219.532C166.947 220.878 165.847 221.979 164.5 221.979C163.153 221.979 162.053 220.878 162.053 219.532C162.053 218.185 163.153 217.084 164.5 217.084C165.847 217.084 166.947 218.185 166.947 219.532Z" fill="#512DA8" fill-opacity="0.25"/>
<path d="M188.958 219.532C188.958 220.878 187.857 221.979 186.51 221.979C185.164 221.979 184.063 220.878 184.063 219.532C184.063 218.185 185.164 217.084 186.51 217.084C187.857 217.084 188.958 218.185 188.958 219.532Z" fill="#512DA8" fill-opacity="0.25"/>
<path d="M210.968 219.532C210.968 220.878 209.868 221.979 208.521 221.979C207.174 221.979 206.074 220.878 206.074 219.532C206.074 218.185 207.174 217.084 208.521 217.084C209.868 217.084 210.968 218.185 210.968 219.532Z" fill="#512DA8" fill-opacity="0.25"/>
<path d="M232.979 219.532C232.979 220.878 231.878 221.979 230.532 221.979C229.185 221.979 228.084 220.878 228.084 219.532C228.084 218.185 229.185 217.084 230.532 217.084C231.878 217.084 232.979 218.185 232.979 219.532Z" fill="#512DA8" fill-opacity="0.25"/>
<path d="M254.989 219.532C254.989 220.878 253.889 221.979 252.542 221.979C251.196 221.979 250.095 220.878 250.095 219.532C250.095 218.185 251.196 217.084 252.542 217.084C253.889 217.084 254.989 218.185 254.989 219.532Z" fill="#512DA8" fill-opacity="0.25"/>
<path d="M277 219.532C277 220.878 275.899 221.979 274.553 221.979C273.206 221.979 272.105 220.878 272.105 219.532C272.105 218.185 273.206 217.084 274.553 217.084C275.899 217.084 277 218.185 277 219.532Z" fill="#512DA8" fill-opacity="0.25"/>
<path d="M54.4472 241.542C55.7988 241.542 56.8945 240.447 56.8945 239.095C56.8945 237.743 55.7988 236.648 54.4472 236.648C53.0957 236.648 52 237.743 52 239.095C52 240.447 53.0957 241.542 54.4472 241.542Z" fill="#512DA8" fill-opacity="0.25"/>
<path d="M76.4577 241.542C77.8093 241.542 78.9049 240.447 78.9049 239.095C78.9049 237.743 77.8093 236.648 76.4577 236.648C75.1062 236.648 74.0105 237.743 74.0105 239.095C74.0105 240.447 75.1062 241.542 76.4577 241.542Z" fill="#512DA8" fill-opacity="0.25"/>
<path d="M98.4682 241.542C99.8198 241.542 100.915 240.447 100.915 239.095C100.915 237.743 99.8198 236.648 98.4682 236.648C97.1167 236.648 96.021 237.743 96.021 239.095C96.021 240.447 97.1167 241.542 98.4682 241.542Z" fill="#512DA8" fill-opacity="0.25"/>
<path d="M122.926 239.095C122.926 240.442 121.826 241.542 120.479 241.542C119.132 241.542 118.032 240.442 118.032 239.095C118.032 237.748 119.132 236.648 120.479 236.648C121.826 236.648 122.926 237.748 122.926 239.095Z" fill="#512DA8" fill-opacity="0.25"/>
<path d="M144.937 239.095C144.937 240.442 143.836 241.542 142.489 241.542C141.143 241.542 140.042 240.442 140.042 239.095C140.042 237.748 141.143 236.648 142.489 236.648C143.836 236.648 144.937 237.748 144.937 239.095Z" fill="#512DA8" fill-opacity="0.25"/>
<path d="M164.5 241.542C165.852 241.542 166.947 240.447 166.947 239.095C166.947 237.743 165.852 236.648 164.5 236.648C163.148 236.648 162.053 237.743 162.053 239.095C162.053 240.447 163.148 241.542 164.5 241.542Z" fill="#512DA8" fill-opacity="0.25"/>
<path d="M186.51 241.542C187.862 241.542 188.958 240.447 188.958 239.095C188.958 237.743 187.862 236.648 186.51 236.648C185.159 236.648 184.063 237.743 184.063 239.095C184.063 240.447 185.159 241.542 186.51 241.542Z" fill="#512DA8" fill-opacity="0.25"/>
<path d="M208.521 241.542C209.873 241.542 210.968 240.447 210.968 239.095C210.968 237.743 209.873 236.648 208.521 236.648C207.17 236.648 206.074 237.743 206.074 239.095C206.074 240.447 207.17 241.542 208.521 241.542Z" fill="#512DA8" fill-opacity="0.25"/>
<path d="M230.532 241.542C231.883 241.542 232.979 240.447 232.979 239.095C232.979 237.743 231.883 236.648 230.532 236.648C229.18 236.648 228.084 237.743 228.084 239.095C228.084 240.447 229.18 241.542 230.532 241.542Z" fill="#512DA8" fill-opacity="0.25"/>
<path d="M252.542 241.542C253.894 241.542 254.989 240.447 254.989 239.095C254.989 237.743 253.894 236.648 252.542 236.648C251.191 236.648 250.095 237.743 250.095 239.095C250.095 240.447 251.191 241.542 252.542 241.542Z" fill="#512DA8" fill-opacity="0.25"/>
<path d="M274.553 241.542C275.904 241.542 277 240.447 277 239.095C277 237.743 275.904 236.648 274.553 236.648C273.201 236.648 272.105 237.743 272.105 239.095C272.105 240.447 273.201 241.542 274.553 241.542Z" fill="#512DA8" fill-opacity="0.25"/>
<path d="M56.8945 258.658C56.8945 260.005 55.7939 261.106 54.4472 261.106C53.1005 261.106 52 260.005 52 258.658C52 257.312 53.1005 256.211 54.4472 256.211C55.7939 256.211 56.8945 257.312 56.8945 258.658Z" fill="#512DA8" fill-opacity="0.25"/>
<path d="M78.9049 258.658C78.9049 260.005 77.8044 261.106 76.4577 261.106C75.111 261.106 74.0105 260.005 74.0105 258.658C74.0105 257.312 75.111 256.211 76.4577 256.211C77.8044 256.211 78.9049 257.312 78.9049 258.658Z" fill="#512DA8" fill-opacity="0.25"/>
<path d="M100.915 258.658C100.915 260.005 99.8149 261.106 98.4682 261.106C97.1215 261.106 96.021 260.005 96.021 258.658C96.021 257.312 97.1215 256.211 98.4682 256.211C99.8149 256.211 100.915 257.312 100.915 258.658Z" fill="#512DA8" fill-opacity="0.25"/>
<path d="M122.926 258.658C122.926 260.005 121.826 261.106 120.479 261.106C119.132 261.106 118.032 260.005 118.032 258.658C118.032 257.312 119.132 256.211 120.479 256.211C121.826 256.211 122.926 257.312 122.926 258.658Z" fill="#512DA8" fill-opacity="0.25"/>
<path d="M144.937 258.658C144.937 260.005 143.836 261.106 142.489 261.106C141.143 261.106 140.042 260.005 140.042 258.658C140.042 257.312 141.143 256.211 142.489 256.211C143.836 256.211 144.937 257.312 144.937 258.658Z" fill="#512DA8" fill-opacity="0.25"/>
<path d="M166.947 258.658C166.947 260.005 165.847 261.106 164.5 261.106C163.153 261.106 162.053 260.005 162.053 258.658C162.053 257.312 163.153 256.211 164.5 256.211C165.847 256.211 166.947 257.312 166.947 258.658Z" fill="#512DA8" fill-opacity="0.25"/>
<path d="M188.958 258.658C188.958 260.005 187.857 261.106 186.51 261.106C185.164 261.106 184.063 260.005 184.063 258.658C184.063 257.312 185.164 256.211 186.51 256.211C187.857 256.211 188.958 257.312 188.958 258.658Z" fill="#512DA8" fill-opacity="0.25"/>
<path d="M210.968 258.658C210.968 260.005 209.868 261.106 208.521 261.106C207.174 261.106 206.074 260.005 206.074 258.658C206.074 257.312 207.174 256.211 208.521 256.211C209.868 256.211 210.968 257.312 210.968 258.658Z" fill="#512DA8" fill-opacity="0.25"/>
<path d="M232.979 258.658C232.979 260.005 231.878 261.106 230.532 261.106C229.185 261.106 228.084 260.005 228.084 258.658C228.084 257.312 229.185 256.211 230.532 256.211C231.878 256.211 232.979 257.312 232.979 258.658Z" fill="#512DA8" fill-opacity="0.25"/>
<path d="M254.989 258.658C254.989 260.005 253.889 261.106 252.542 261.106C251.196 261.106 250.095 260.005 250.095 258.658C250.095 257.312 251.196 256.211 252.542 256.211C253.889 256.211 254.989 257.312 254.989 258.658Z" fill="#512DA8" fill-opacity="0.25"/>
<path d="M277 258.658C277 260.005 275.899 261.106 274.553 261.106C273.206 261.106 272.105 260.005 272.105 258.658C272.105 257.312 273.206 256.211 274.553 256.211C275.899 256.211 277 257.312 277 258.658Z" fill="#512DA8" fill-opacity="0.25"/>
<path d="M509.447 282.894C510.799 282.894 511.894 281.799 511.894 280.447C511.894 279.096 510.799 278 509.447 278C508.096 278 507 279.096 507 280.447C507 281.799 508.096 282.894 509.447 282.894Z" fill="#512DA8" fill-opacity="0.25"/>
<path d="M531.458 282.894C532.809 282.894 533.905 281.799 533.905 280.447C533.905 279.096 532.809 278 531.458 278C530.106 278 529.01 279.096 529.01 280.447C529.01 281.799 530.106 282.894 531.458 282.894Z" fill="#512DA8" fill-opacity="0.25"/>
<path d="M553.468 282.894C554.82 282.894 555.915 281.799 555.915 280.447C555.915 279.096 554.82 278 553.468 278C552.117 278 551.021 279.096 551.021 280.447C551.021 281.799 552.117 282.894 553.468 282.894Z" fill="#512DA8" fill-opacity="0.25"/>
<path d="M577.926 280.447C577.926 281.794 576.826 282.894 575.479 282.894C574.132 282.894 573.032 281.794 573.032 280.447C573.032 279.101 574.132 278 575.479 278C576.826 278 577.926 279.101 577.926 280.447Z" fill="#512DA8" fill-opacity="0.25"/>
<path d="M599.937 280.447C599.937 281.794 598.836 282.894 597.489 282.894C596.143 282.894 595.042 281.794 595.042 280.447C595.042 279.101 596.143 278 597.489 278C598.836 278 599.937 279.101 599.937 280.447Z" fill="#512DA8" fill-opacity="0.25"/>
<path d="M619.5 282.894C620.852 282.894 621.947 281.799 621.947 280.447C621.947 279.096 620.852 278 619.5 278C618.148 278 617.053 279.096 617.053 280.447C617.053 281.799 618.148 282.894 619.5 282.894Z" fill="#512DA8" fill-opacity="0.25"/>
<path d="M641.51 282.894C642.862 282.894 643.958 281.799 643.958 280.447C643.958 279.096 642.862 278 641.51 278C640.159 278 639.063 279.096 639.063 280.447C639.063 281.799 640.159 282.894 641.51 282.894Z" fill="#512DA8" fill-opacity="0.25"/>
<path d="M663.521 282.894C664.873 282.894 665.968 281.799 665.968 280.447C665.968 279.096 664.873 278 663.521 278C662.17 278 661.074 279.096 661.074 280.447C661.074 281.799 662.17 282.894 663.521 282.894Z" fill="#512DA8" fill-opacity="0.25"/>
<path d="M685.532 282.894C686.883 282.894 687.979 281.799 687.979 280.447C687.979 279.096 686.883 278 685.532 278C684.18 278 683.084 279.096 683.084 280.447C683.084 281.799 684.18 282.894 685.532 282.894Z" fill="#512DA8" fill-opacity="0.25"/>
<path d="M707.542 282.894C708.894 282.894 709.989 281.799 709.989 280.447C709.989 279.096 708.894 278 707.542 278C706.191 278 705.095 279.096 705.095 280.447C705.095 281.799 706.191 282.894 707.542 282.894Z" fill="#512DA8" fill-opacity="0.25"/>
<path d="M729.553 282.894C730.904 282.894 732 281.799 732 280.447C732 279.096 730.904 278 729.553 278C728.201 278 727.105 279.096 727.105 280.447C727.105 281.799 728.201 282.894 729.553 282.894Z" fill="#512DA8" fill-opacity="0.25"/>
<path d="M509.447 302.458C510.799 302.458 511.894 301.362 511.894 300.011C511.894 298.659 510.799 297.563 509.447 297.563C508.096 297.563 507 298.659 507 300.011C507 301.362 508.096 302.458 509.447 302.458Z" fill="#512DA8" fill-opacity="0.25"/>
<path d="M531.458 302.458C532.809 302.458 533.905 301.362 533.905 300.011C533.905 298.659 532.809 297.563 531.458 297.563C530.106 297.563 529.01 298.659 529.01 300.011C529.01 301.362 530.106 302.458 531.458 302.458Z" fill="#512DA8" fill-opacity="0.25"/>
<path d="M553.468 302.458C554.82 302.458 555.915 301.362 555.915 300.011C555.915 298.659 554.82 297.563 553.468 297.563C552.117 297.563 551.021 298.659 551.021 300.011C551.021 301.362 552.117 302.458 553.468 302.458Z" fill="#512DA8" fill-opacity="0.25"/>
<path d="M577.926 300.011C577.926 301.357 576.826 302.458 575.479 302.458C574.132 302.458 573.032 301.357 573.032 300.011C573.032 298.664 574.132 297.563 575.479 297.563C576.826 297.563 577.926 298.664 577.926 300.011Z" fill="#512DA8" fill-opacity="0.25"/>
<path d="M599.937 300.011C599.937 301.357 598.836 302.458 597.489 302.458C596.143 302.458 595.042 301.357 595.042 300.011C595.042 298.664 596.143 297.563 597.489 297.563C598.836 297.563 599.937 298.664 599.937 300.011Z" fill="#512DA8" fill-opacity="0.25"/>
<path d="M619.5 302.458C620.852 302.458 621.947 301.362 621.947 300.011C621.947 298.659 620.852 297.563 619.5 297.563C618.148 297.563 617.053 298.659 617.053 300.011C617.053 301.362 618.148 302.458 619.5 302.458Z" fill="#512DA8" fill-opacity="0.25"/>
<path d="M641.51 302.458C642.862 302.458 643.958 301.362 643.958 300.011C643.958 298.659 642.862 297.563 641.51 297.563C640.159 297.563 639.063 298.659 639.063 300.011C639.063 301.362 640.159 302.458 641.51 302.458Z" fill="#512DA8" fill-opacity="0.25"/>
<path d="M663.521 302.458C664.873 302.458 665.968 301.362 665.968 300.011C665.968 298.659 664.873 297.563 663.521 297.563C662.17 297.563 661.074 298.659 661.074 300.011C661.074 301.362 662.17 302.458 663.521 302.458Z" fill="#512DA8" fill-opacity="0.25"/>
<path d="M685.532 302.458C686.883 302.458 687.979 301.362 687.979 300.011C687.979 298.659 686.883 297.563 685.532 297.563C684.18 297.563 683.084 298.659 683.084 300.011C683.084 301.362 684.18 302.458 685.532 302.458Z" fill="#512DA8" fill-opacity="0.25"/>
<path d="M707.542 302.458C708.894 302.458 709.989 301.362 709.989 300.011C709.989 298.659 708.894 297.563 707.542 297.563C706.191 297.563 705.095 298.659 705.095 300.011C705.095 301.362 706.191 302.458 707.542 302.458Z" fill="#512DA8" fill-opacity="0.25"/>
<path d="M729.553 302.458C730.904 302.458 732 301.362 732 300.011C732 298.659 730.904 297.563 729.553 297.563C728.201 297.563 727.105 298.659 727.105 300.011C727.105 301.362 728.201 302.458 729.553 302.458Z" fill="#512DA8" fill-opacity="0.25"/>
<path d="M509.447 322.021C510.799 322.021 511.894 320.926 511.894 319.574C511.894 318.222 510.799 317.127 509.447 317.127C508.096 317.127 507 318.222 507 319.574C507 320.926 508.096 322.021 509.447 322.021Z" fill="#512DA8" fill-opacity="0.25"/>
<path d="M531.458 322.021C532.809 322.021 533.905 320.926 533.905 319.574C533.905 318.222 532.809 317.127 531.458 317.127C530.106 317.127 529.01 318.222 529.01 319.574C529.01 320.926 530.106 322.021 531.458 322.021Z" fill="#512DA8" fill-opacity="0.25"/>
<path d="M553.468 322.021C554.82 322.021 555.915 320.926 555.915 319.574C555.915 318.222 554.82 317.127 553.468 317.127C552.117 317.127 551.021 318.222 551.021 319.574C551.021 320.926 552.117 322.021 553.468 322.021Z" fill="#512DA8" fill-opacity="0.25"/>
<path d="M577.926 319.574C577.926 320.921 576.826 322.021 575.479 322.021C574.132 322.021 573.032 320.921 573.032 319.574C573.032 318.227 574.132 317.127 575.479 317.127C576.826 317.127 577.926 318.227 577.926 319.574Z" fill="#512DA8" fill-opacity="0.25"/>
<path d="M599.937 319.574C599.937 320.921 598.836 322.021 597.489 322.021C596.143 322.021 595.042 320.921 595.042 319.574C595.042 318.227 596.143 317.127 597.489 317.127C598.836 317.127 599.937 318.227 599.937 319.574Z" fill="#512DA8" fill-opacity="0.25"/>
<path d="M619.5 322.021C620.852 322.021 621.947 320.926 621.947 319.574C621.947 318.222 620.852 317.127 619.5 317.127C618.148 317.127 617.053 318.222 617.053 319.574C617.053 320.926 618.148 322.021 619.5 322.021Z" fill="#512DA8" fill-opacity="0.25"/>
<path d="M641.51 322.021C642.862 322.021 643.958 320.926 643.958 319.574C643.958 318.222 642.862 317.127 641.51 317.127C640.159 317.127 639.063 318.222 639.063 319.574C639.063 320.926 640.159 322.021 641.51 322.021Z" fill="#512DA8" fill-opacity="0.25"/>
<path d="M663.521 322.021C664.873 322.021 665.968 320.926 665.968 319.574C665.968 318.222 664.873 317.127 663.521 317.127C662.17 317.127 661.074 318.222 661.074 319.574C661.074 320.926 662.17 322.021 663.521 322.021Z" fill="#512DA8" fill-opacity="0.25"/>
<path d="M685.532 322.021C686.883 322.021 687.979 320.926 687.979 319.574C687.979 318.222 686.883 317.127 685.532 317.127C684.18 317.127 683.084 318.222 683.084 319.574C683.084 320.926 684.18 322.021 685.532 322.021Z" fill="#512DA8" fill-opacity="0.25"/>
<path d="M707.542 322.021C708.894 322.021 709.989 320.926 709.989 319.574C709.989 318.222 708.894 317.127 707.542 317.127C706.191 317.127 705.095 318.222 705.095 319.574C705.095 320.926 706.191 322.021 707.542 322.021Z" fill="#512DA8" fill-opacity="0.25"/>
<path d="M729.553 322.021C730.904 322.021 732 320.926 732 319.574C732 318.222 730.904 317.127 729.553 317.127C728.201 317.127 727.105 318.222 727.105 319.574C727.105 320.926 728.201 322.021 729.553 322.021Z" fill="#512DA8" fill-opacity="0.25"/>
<path d="M511.894 339.137C511.894 340.484 510.794 341.584 509.447 341.584C508.101 341.584 507 340.484 507 339.137C507 337.791 508.101 336.69 509.447 336.69C510.794 336.69 511.894 337.791 511.894 339.137Z" fill="#512DA8" fill-opacity="0.25"/>
<path d="M533.905 339.137C533.905 340.484 532.804 341.584 531.458 341.584C530.111 341.584 529.01 340.484 529.01 339.137C529.01 337.791 530.111 336.69 531.458 336.69C532.804 336.69 533.905 337.791 533.905 339.137Z" fill="#512DA8" fill-opacity="0.25"/>
<path d="M555.915 339.137C555.915 340.484 554.815 341.584 553.468 341.584C552.122 341.584 551.021 340.484 551.021 339.137C551.021 337.791 552.122 336.69 553.468 336.69C554.815 336.69 555.915 337.791 555.915 339.137Z" fill="#512DA8" fill-opacity="0.25"/>
<path d="M577.926 339.137C577.926 340.484 576.826 341.584 575.479 341.584C574.132 341.584 573.032 340.484 573.032 339.137C573.032 337.791 574.132 336.69 575.479 336.69C576.826 336.69 577.926 337.791 577.926 339.137Z" fill="#512DA8" fill-opacity="0.25"/>
<path d="M599.937 339.137C599.937 340.484 598.836 341.584 597.489 341.584C596.143 341.584 595.042 340.484 595.042 339.137C595.042 337.791 596.143 336.69 597.489 336.69C598.836 336.69 599.937 337.791 599.937 339.137Z" fill="#512DA8" fill-opacity="0.25"/>
<path d="M621.947 339.137C621.947 340.484 620.847 341.584 619.5 341.584C618.153 341.584 617.053 340.484 617.053 339.137C617.053 337.791 618.153 336.69 619.5 336.69C620.847 336.69 621.947 337.791 621.947 339.137Z" fill="#512DA8" fill-opacity="0.25"/>
<path d="M643.958 339.137C643.958 340.484 642.857 341.584 641.51 341.584C640.164 341.584 639.063 340.484 639.063 339.137C639.063 337.791 640.164 336.69 641.51 336.69C642.857 336.69 643.958 337.791 643.958 339.137Z" fill="#512DA8" fill-opacity="0.25"/>
<path d="M665.968 339.137C665.968 340.484 664.868 341.584 663.521 341.584C662.174 341.584 661.074 340.484 661.074 339.137C661.074 337.791 662.174 336.69 663.521 336.69C664.868 336.69 665.968 337.791 665.968 339.137Z" fill="#512DA8" fill-opacity="0.25"/>
<path d="M687.979 339.137C687.979 340.484 686.878 341.584 685.532 341.584C684.185 341.584 683.084 340.484 683.084 339.137C683.084 337.791 684.185 336.69 685.532 336.69C686.878 336.69 687.979 337.791 687.979 339.137Z" fill="#512DA8" fill-opacity="0.25"/>
<path d="M709.989 339.137C709.989 340.484 708.889 341.584 707.542 341.584C706.196 341.584 705.095 340.484 705.095 339.137C705.095 337.791 706.196 336.69 707.542 336.69C708.889 336.69 709.989 337.791 709.989 339.137Z" fill="#512DA8" fill-opacity="0.25"/>
<path d="M732 339.137C732 340.484 730.899 341.584 729.553 341.584C728.206 341.584 727.105 340.484 727.105 339.137C727.105 337.791 728.206 336.69 729.553 336.69C730.899 336.69 732 337.791 732 339.137Z" fill="#512DA8" fill-opacity="0.25"/>
<path d="M511.894 358.701C511.894 360.047 510.794 361.148 509.447 361.148C508.101 361.148 507 360.047 507 358.701C507 357.354 508.101 356.253 509.447 356.253C510.794 356.253 511.894 357.354 511.894 358.701Z" fill="#512DA8" fill-opacity="0.25"/>
<path d="M533.905 358.701C533.905 360.047 532.804 361.148 531.458 361.148C530.111 361.148 529.01 360.047 529.01 358.701C529.01 357.354 530.111 356.253 531.458 356.253C532.804 356.253 533.905 357.354 533.905 358.701Z" fill="#512DA8" fill-opacity="0.25"/>
<path d="M555.915 358.701C555.915 360.047 554.815 361.148 553.468 361.148C552.122 361.148 551.021 360.047 551.021 358.701C551.021 357.354 552.122 356.253 553.468 356.253C554.815 356.253 555.915 357.354 555.915 358.701Z" fill="#512DA8" fill-opacity="0.25"/>
<path d="M577.926 358.701C577.926 360.047 576.826 361.148 575.479 361.148C574.132 361.148 573.032 360.047 573.032 358.701C573.032 357.354 574.132 356.253 575.479 356.253C576.826 356.253 577.926 357.354 577.926 358.701Z" fill="#512DA8" fill-opacity="0.25"/>
<path d="M599.937 358.701C599.937 360.047 598.836 361.148 597.489 361.148C596.143 361.148 595.042 360.047 595.042 358.701C595.042 357.354 596.143 356.253 597.489 356.253C598.836 356.253 599.937 357.354 599.937 358.701Z" fill="#512DA8" fill-opacity="0.25"/>
<path d="M621.947 358.701C621.947 360.047 620.847 361.148 619.5 361.148C618.153 361.148 617.053 360.047 617.053 358.701C617.053 357.354 618.153 356.253 619.5 356.253C620.847 356.253 621.947 357.354 621.947 358.701Z" fill="#512DA8" fill-opacity="0.25"/>
<path d="M643.958 358.701C643.958 360.047 642.857 361.148 641.51 361.148C640.164 361.148 639.063 360.047 639.063 358.701C639.063 357.354 640.164 356.253 641.51 356.253C642.857 356.253 643.958 357.354 643.958 358.701Z" fill="#512DA8" fill-opacity="0.25"/>
<path d="M665.968 358.701C665.968 360.047 664.868 361.148 663.521 361.148C662.174 361.148 661.074 360.047 661.074 358.701C661.074 357.354 662.174 356.253 663.521 356.253C664.868 356.253 665.968 357.354 665.968 358.701Z" fill="#512DA8" fill-opacity="0.25"/>
<path d="M687.979 358.701C687.979 360.047 686.878 361.148 685.532 361.148C684.185 361.148 683.084 360.047 683.084 358.701C683.084 357.354 684.185 356.253 685.532 356.253C686.878 356.253 687.979 357.354 687.979 358.701Z" fill="#512DA8" fill-opacity="0.25"/>
<path d="M709.989 358.701C709.989 360.047 708.889 361.148 707.542 361.148C706.196 361.148 705.095 360.047 705.095 358.701C705.095 357.354 706.196 356.253 707.542 356.253C708.889 356.253 709.989 357.354 709.989 358.701Z" fill="#512DA8" fill-opacity="0.25"/>
<path d="M732 358.701C732 360.047 730.899 361.148 729.553 361.148C728.206 361.148 727.105 360.047 727.105 358.701C727.105 357.354 728.206 356.253 729.553 356.253C730.899 356.253 732 357.354 732 358.701Z" fill="#512DA8" fill-opacity="0.25"/>
<path d="M511.894 378.264C511.894 379.611 510.794 380.711 509.447 380.711C508.101 380.711 507 379.611 507 378.264C507 376.917 508.101 375.817 509.447 375.817C510.794 375.817 511.894 376.917 511.894 378.264Z" fill="#512DA8" fill-opacity="0.25"/>
<path d="M533.905 378.264C533.905 379.611 532.804 380.711 531.458 380.711C530.111 380.711 529.01 379.611 529.01 378.264C529.01 376.917 530.111 375.817 531.458 375.817C532.804 375.817 533.905 376.917 533.905 378.264Z" fill="#512DA8" fill-opacity="0.25"/>
<path d="M555.915 378.264C555.915 379.611 554.815 380.711 553.468 380.711C552.122 380.711 551.021 379.611 551.021 378.264C551.021 376.917 552.122 375.817 553.468 375.817C554.815 375.817 555.915 376.917 555.915 378.264Z" fill="#512DA8" fill-opacity="0.25"/>
<path d="M577.926 378.264C577.926 379.611 576.826 380.711 575.479 380.711C574.132 380.711 573.032 379.611 573.032 378.264C573.032 376.917 574.132 375.817 575.479 375.817C576.826 375.817 577.926 376.917 577.926 378.264Z" fill="#512DA8" fill-opacity="0.25"/>
<path d="M599.937 378.264C599.937 379.611 598.836 380.711 597.489 380.711C596.143 380.711 595.042 379.611 595.042 378.264C595.042 376.917 596.143 375.817 597.489 375.817C598.836 375.817 599.937 376.917 599.937 378.264Z" fill="#512DA8" fill-opacity="0.25"/>
<path d="M621.947 378.264C621.947 379.611 620.847 380.711 619.5 380.711C618.153 380.711 617.053 379.611 617.053 378.264C617.053 376.917 618.153 375.817 619.5 375.817C620.847 375.817 621.947 376.917 621.947 378.264Z" fill="#512DA8" fill-opacity="0.25"/>
<path d="M643.958 378.264C643.958 379.611 642.857 380.711 641.51 380.711C640.164 380.711 639.063 379.611 639.063 378.264C639.063 376.917 640.164 375.817 641.51 375.817C642.857 375.817 643.958 376.917 643.958 378.264Z" fill="#512DA8" fill-opacity="0.25"/>
<path d="M665.968 378.264C665.968 379.611 664.868 380.711 663.521 380.711C662.174 380.711 661.074 379.611 661.074 378.264C661.074 376.917 662.174 375.817 663.521 375.817C664.868 375.817 665.968 376.917 665.968 378.264Z" fill="#512DA8" fill-opacity="0.25"/>
<path d="M687.979 378.264C687.979 379.611 686.878 380.711 685.532 380.711C684.185 380.711 683.084 379.611 683.084 378.264C683.084 376.917 684.185 375.817 685.532 375.817C686.878 375.817 687.979 376.917 687.979 378.264Z" fill="#512DA8" fill-opacity="0.25"/>
<path d="M709.989 378.264C709.989 379.611 708.889 380.711 707.542 380.711C706.196 380.711 705.095 379.611 705.095 378.264C705.095 376.917 706.196 375.817 707.542 375.817C708.889 375.817 709.989 376.917 709.989 378.264Z" fill="#512DA8" fill-opacity="0.25"/>
<path d="M732 378.264C732 379.611 730.899 380.711 729.553 380.711C728.206 380.711 727.105 379.611 727.105 378.264C727.105 376.917 728.206 375.817 729.553 375.817C730.899 375.817 732 376.917 732 378.264Z" fill="#512DA8" fill-opacity="0.25"/>
<path d="M509.447 400.274C510.799 400.274 511.894 399.179 511.894 397.827C511.894 396.476 510.799 395.38 509.447 395.38C508.096 395.38 507 396.476 507 397.827C507 399.179 508.096 400.274 509.447 400.274Z" fill="#512DA8" fill-opacity="0.25"/>
<path d="M531.458 400.274C532.809 400.274 533.905 399.179 533.905 397.827C533.905 396.476 532.809 395.38 531.458 395.38C530.106 395.38 529.01 396.476 529.01 397.827C529.01 399.179 530.106 400.274 531.458 400.274Z" fill="#512DA8" fill-opacity="0.25"/>
<path d="M553.468 400.274C554.82 400.274 555.915 399.179 555.915 397.827C555.915 396.476 554.82 395.38 553.468 395.38C552.117 395.38 551.021 396.476 551.021 397.827C551.021 399.179 552.117 400.274 553.468 400.274Z" fill="#512DA8" fill-opacity="0.25"/>
<path d="M577.926 397.827C577.926 399.174 576.826 400.274 575.479 400.274C574.132 400.274 573.032 399.174 573.032 397.827C573.032 396.48 574.132 395.38 575.479 395.38C576.826 395.394 577.926 396.48 577.926 397.827Z" fill="#512DA8" fill-opacity="0.25"/>
<path d="M599.937 397.827C599.937 399.174 598.836 400.274 597.489 400.274C596.143 400.274 595.042 399.174 595.042 397.827C595.042 396.48 596.143 395.38 597.489 395.38C598.836 395.394 599.937 396.48 599.937 397.827Z" fill="#512DA8" fill-opacity="0.25"/>
<path d="M619.5 400.274C620.852 400.274 621.947 399.179 621.947 397.827C621.947 396.476 620.852 395.38 619.5 395.38C618.148 395.38 617.053 396.476 617.053 397.827C617.053 399.179 618.148 400.274 619.5 400.274Z" fill="#512DA8" fill-opacity="0.25"/>
<path d="M641.51 400.274C642.862 400.274 643.958 399.179 643.958 397.827C643.958 396.476 642.862 395.38 641.51 395.38C640.159 395.38 639.063 396.476 639.063 397.827C639.063 399.179 640.159 400.274 641.51 400.274Z" fill="#512DA8" fill-opacity="0.25"/>
<path d="M663.521 400.274C664.873 400.274 665.968 399.179 665.968 397.827C665.968 396.476 664.873 395.38 663.521 395.38C662.17 395.38 661.074 396.476 661.074 397.827C661.074 399.179 662.17 400.274 663.521 400.274Z" fill="#512DA8" fill-opacity="0.25"/>
<path d="M685.532 400.274C686.883 400.274 687.979 399.179 687.979 397.827C687.979 396.476 686.883 395.38 685.532 395.38C684.18 395.38 683.084 396.476 683.084 397.827C683.084 399.179 684.18 400.274 685.532 400.274Z" fill="#512DA8" fill-opacity="0.25"/>
<path d="M707.542 400.274C708.894 400.274 709.989 399.179 709.989 397.827C709.989 396.476 708.894 395.38 707.542 395.38C706.191 395.38 705.095 396.476 705.095 397.827C705.095 399.179 706.191 400.274 707.542 400.274Z" fill="#512DA8" fill-opacity="0.25"/>
<path d="M729.553 400.274C730.904 400.274 732 399.179 732 397.827C732 396.476 730.904 395.38 729.553 395.38C728.201 395.38 727.105 396.476 727.105 397.827C727.105 399.179 728.201 400.274 729.553 400.274Z" fill="#512DA8" fill-opacity="0.25"/>
<path d="M511.894 417.405C511.894 418.752 510.794 419.852 509.447 419.852C508.101 419.852 507 418.752 507 417.405C507 416.058 508.101 414.958 509.447 414.958C510.794 414.958 511.894 416.044 511.894 417.405Z" fill="#512DA8" fill-opacity="0.25"/>
<path d="M533.905 417.405C533.905 418.752 532.804 419.852 531.458 419.852C530.111 419.852 529.01 418.752 529.01 417.405C529.01 416.058 530.111 414.958 531.458 414.958C532.804 414.958 533.905 416.044 533.905 417.405Z" fill="#512DA8" fill-opacity="0.25"/>
<path d="M555.915 417.405C555.915 418.752 554.815 419.852 553.468 419.852C552.122 419.852 551.021 418.752 551.021 417.405C551.021 416.058 552.122 414.958 553.468 414.958C554.815 414.958 555.915 416.044 555.915 417.405Z" fill="#512DA8" fill-opacity="0.25"/>
<path d="M577.926 417.405C577.926 418.752 576.826 419.852 575.479 419.852C574.132 419.852 573.032 418.752 573.032 417.405C573.032 416.058 574.132 414.958 575.479 414.958C576.826 414.958 577.926 416.044 577.926 417.405Z" fill="#512DA8" fill-opacity="0.25"/>
<path d="M599.937 417.405C599.937 418.752 598.836 419.852 597.489 419.852C596.143 419.852 595.042 418.752 595.042 417.405C595.042 416.058 596.143 414.958 597.489 414.958C598.836 414.958 599.937 416.044 599.937 417.405Z" fill="#512DA8" fill-opacity="0.25"/>
<path d="M621.947 417.405C621.947 418.752 620.847 419.852 619.5 419.852C618.153 419.852 617.053 418.752 617.053 417.405C617.053 416.058 618.153 414.958 619.5 414.958C620.847 414.958 621.947 416.044 621.947 417.405Z" fill="#512DA8" fill-opacity="0.25"/>
<path d="M643.958 417.405C643.958 418.752 642.857 419.852 641.51 419.852C640.164 419.852 639.063 418.752 639.063 417.405C639.063 416.058 640.164 414.958 641.51 414.958C642.857 414.958 643.958 416.044 643.958 417.405Z" fill="#512DA8" fill-opacity="0.25"/>
<path d="M665.968 417.405C665.968 418.752 664.868 419.852 663.521 419.852C662.174 419.852 661.074 418.752 661.074 417.405C661.074 416.058 662.174 414.958 663.521 414.958C664.868 414.958 665.968 416.044 665.968 417.405Z" fill="#512DA8" fill-opacity="0.25"/>
<path d="M687.979 417.405C687.979 418.752 686.878 419.852 685.532 419.852C684.185 419.852 683.084 418.752 683.084 417.405C683.084 416.058 684.185 414.958 685.532 414.958C686.878 414.958 687.979 416.044 687.979 417.405Z" fill="#512DA8" fill-opacity="0.25"/>
<path d="M709.989 417.405C709.989 418.752 708.889 419.852 707.542 419.852C706.196 419.852 705.095 418.752 705.095 417.405C705.095 416.058 706.196 414.958 707.542 414.958C708.889 414.958 709.989 416.044 709.989 417.405Z" fill="#512DA8" fill-opacity="0.25"/>
<path d="M732 417.405C732 418.752 730.899 419.852 729.553 419.852C728.206 419.852 727.105 418.752 727.105 417.405C727.105 416.058 728.206 414.958 729.553 414.958C730.899 414.958 732 416.044 732 417.405Z" fill="#512DA8" fill-opacity="0.25"/>
<path d="M511.894 436.968C511.894 438.315 510.794 439.416 509.447 439.416C508.101 439.416 507 438.315 507 436.968C507 435.622 508.101 434.521 509.447 434.521C510.794 434.521 511.894 435.607 511.894 436.968Z" fill="#512DA8" fill-opacity="0.25"/>
<path d="M533.905 436.968C533.905 438.315 532.804 439.416 531.458 439.416C530.111 439.416 529.01 438.315 529.01 436.968C529.01 435.622 530.111 434.521 531.458 434.521C532.804 434.521 533.905 435.607 533.905 436.968Z" fill="#512DA8" fill-opacity="0.25"/>
<path d="M555.915 436.968C555.915 438.315 554.815 439.416 553.468 439.416C552.122 439.416 551.021 438.315 551.021 436.968C551.021 435.622 552.122 434.521 553.468 434.521C554.815 434.521 555.915 435.607 555.915 436.968Z" fill="#512DA8" fill-opacity="0.25"/>
<path d="M577.926 436.968C577.926 438.315 576.826 439.416 575.479 439.416C574.132 439.416 573.032 438.315 573.032 436.968C573.032 435.622 574.132 434.521 575.479 434.521C576.826 434.521 577.926 435.607 577.926 436.968Z" fill="#512DA8" fill-opacity="0.25"/>
<path d="M599.937 436.968C599.937 438.315 598.836 439.416 597.489 439.416C596.143 439.416 595.042 438.315 595.042 436.968C595.042 435.622 596.143 434.521 597.489 434.521C598.836 434.521 599.937 435.607 599.937 436.968Z" fill="#512DA8" fill-opacity="0.25"/>
<path d="M621.947 436.968C621.947 438.315 620.847 439.416 619.5 439.416C618.153 439.416 617.053 438.315 617.053 436.968C617.053 435.622 618.153 434.521 619.5 434.521C620.847 434.521 621.947 435.607 621.947 436.968Z" fill="#512DA8" fill-opacity="0.25"/>
<path d="M643.958 436.968C643.958 438.315 642.857 439.416 641.51 439.416C640.164 439.416 639.063 438.315 639.063 436.968C639.063 435.622 640.164 434.521 641.51 434.521C642.857 434.521 643.958 435.607 643.958 436.968Z" fill="#512DA8" fill-opacity="0.25"/>
<path d="M665.968 436.968C665.968 438.315 664.868 439.416 663.521 439.416C662.174 439.416 661.074 438.315 661.074 436.968C661.074 435.622 662.174 434.521 663.521 434.521C664.868 434.521 665.968 435.607 665.968 436.968Z" fill="#512DA8" fill-opacity="0.25"/>
<path d="M687.979 436.968C687.979 438.315 686.878 439.416 685.532 439.416C684.185 439.416 683.084 438.315 683.084 436.968C683.084 435.622 684.185 434.521 685.532 434.521C686.878 434.521 687.979 435.607 687.979 436.968Z" fill="#512DA8" fill-opacity="0.25"/>
<path d="M709.989 436.968C709.989 438.315 708.889 439.416 707.542 439.416C706.196 439.416 705.095 438.315 705.095 436.968C705.095 435.622 706.196 434.521 707.542 434.521C708.889 434.521 709.989 435.607 709.989 436.968Z" fill="#512DA8" fill-opacity="0.25"/>
<path d="M732 436.968C732 438.315 730.899 439.416 729.553 439.416C728.206 439.416 727.105 438.315 727.105 436.968C727.105 435.622 728.206 434.521 729.553 434.521C730.899 434.521 732 435.607 732 436.968Z" fill="#512DA8" fill-opacity="0.25"/>
<path d="M511.894 456.532C511.894 457.878 510.794 458.979 509.447 458.979C508.101 458.979 507 457.878 507 456.532C507 455.185 508.101 454.084 509.447 454.084C510.794 454.084 511.894 455.185 511.894 456.532Z" fill="#512DA8" fill-opacity="0.25"/>
<path d="M533.905 456.532C533.905 457.878 532.804 458.979 531.458 458.979C530.111 458.979 529.01 457.878 529.01 456.532C529.01 455.185 530.111 454.084 531.458 454.084C532.804 454.084 533.905 455.185 533.905 456.532Z" fill="#512DA8" fill-opacity="0.25"/>
<path d="M555.915 456.532C555.915 457.878 554.815 458.979 553.468 458.979C552.122 458.979 551.021 457.878 551.021 456.532C551.021 455.185 552.122 454.084 553.468 454.084C554.815 454.084 555.915 455.185 555.915 456.532Z" fill="#512DA8" fill-opacity="0.25"/>
<path d="M577.926 456.532C577.926 457.878 576.826 458.979 575.479 458.979C574.132 458.979 573.032 457.878 573.032 456.532C573.032 455.185 574.132 454.084 575.479 454.084C576.826 454.084 577.926 455.185 577.926 456.532Z" fill="#512DA8" fill-opacity="0.25"/>
<path d="M599.937 456.532C599.937 457.878 598.836 458.979 597.489 458.979C596.143 458.979 595.042 457.878 595.042 456.532C595.042 455.185 596.143 454.084 597.489 454.084C598.836 454.084 599.937 455.185 599.937 456.532Z" fill="#512DA8" fill-opacity="0.25"/>
<path d="M621.947 456.532C621.947 457.878 620.847 458.979 619.5 458.979C618.153 458.979 617.053 457.878 617.053 456.532C617.053 455.185 618.153 454.084 619.5 454.084C620.847 454.084 621.947 455.185 621.947 456.532Z" fill="#512DA8" fill-opacity="0.25"/>
<path d="M643.958 456.532C643.958 457.878 642.857 458.979 641.51 458.979C640.164 458.979 639.063 457.878 639.063 456.532C639.063 455.185 640.164 454.084 641.51 454.084C642.857 454.084 643.958 455.185 643.958 456.532Z" fill="#512DA8" fill-opacity="0.25"/>
<path d="M665.968 456.532C665.968 457.878 664.868 458.979 663.521 458.979C662.174 458.979 661.074 457.878 661.074 456.532C661.074 455.185 662.174 454.084 663.521 454.084C664.868 454.084 665.968 455.185 665.968 456.532Z" fill="#512DA8" fill-opacity="0.25"/>
<path d="M687.979 456.532C687.979 457.878 686.878 458.979 685.532 458.979C684.185 458.979 683.084 457.878 683.084 456.532C683.084 455.185 684.185 454.084 685.532 454.084C686.878 454.084 687.979 455.185 687.979 456.532Z" fill="#512DA8" fill-opacity="0.25"/>
<path d="M709.989 456.532C709.989 457.878 708.889 458.979 707.542 458.979C706.196 458.979 705.095 457.878 705.095 456.532C705.095 455.185 706.196 454.084 707.542 454.084C708.889 454.084 709.989 455.185 709.989 456.532Z" fill="#512DA8" fill-opacity="0.25"/>
<path d="M732 456.532C732 457.878 730.899 458.979 729.553 458.979C728.206 458.979 727.105 457.878 727.105 456.532C727.105 455.185 728.206 454.084 729.553 454.084C730.899 454.084 732 455.185 732 456.532Z" fill="#512DA8" fill-opacity="0.25"/>
<path d="M509.447 478.542C510.799 478.542 511.894 477.447 511.894 476.095C511.894 474.743 510.799 473.648 509.447 473.648C508.096 473.648 507 474.743 507 476.095C507 477.447 508.096 478.542 509.447 478.542Z" fill="#512DA8" fill-opacity="0.25"/>
<path d="M531.458 478.542C532.809 478.542 533.905 477.447 533.905 476.095C533.905 474.743 532.809 473.648 531.458 473.648C530.106 473.648 529.01 474.743 529.01 476.095C529.01 477.447 530.106 478.542 531.458 478.542Z" fill="#512DA8" fill-opacity="0.25"/>
<path d="M553.468 478.542C554.82 478.542 555.915 477.447 555.915 476.095C555.915 474.743 554.82 473.648 553.468 473.648C552.117 473.648 551.021 474.743 551.021 476.095C551.021 477.447 552.117 478.542 553.468 478.542Z" fill="#512DA8" fill-opacity="0.25"/>
<path d="M577.926 476.095C577.926 477.442 576.826 478.542 575.479 478.542C574.132 478.542 573.032 477.442 573.032 476.095C573.032 474.748 574.132 473.648 575.479 473.648C576.826 473.648 577.926 474.748 577.926 476.095Z" fill="#512DA8" fill-opacity="0.25"/>
<path d="M599.937 476.095C599.937 477.442 598.836 478.542 597.489 478.542C596.143 478.542 595.042 477.442 595.042 476.095C595.042 474.748 596.143 473.648 597.489 473.648C598.836 473.648 599.937 474.748 599.937 476.095Z" fill="#512DA8" fill-opacity="0.25"/>
<path d="M619.5 478.542C620.852 478.542 621.947 477.447 621.947 476.095C621.947 474.743 620.852 473.648 619.5 473.648C618.148 473.648 617.053 474.743 617.053 476.095C617.053 477.447 618.148 478.542 619.5 478.542Z" fill="#512DA8" fill-opacity="0.25"/>
<path d="M641.51 478.542C642.862 478.542 643.958 477.447 643.958 476.095C643.958 474.743 642.862 473.648 641.51 473.648C640.159 473.648 639.063 474.743 639.063 476.095C639.063 477.447 640.159 478.542 641.51 478.542Z" fill="#512DA8" fill-opacity="0.25"/>
<path d="M663.521 478.542C664.873 478.542 665.968 477.447 665.968 476.095C665.968 474.743 664.873 473.648 663.521 473.648C662.17 473.648 661.074 474.743 661.074 476.095C661.074 477.447 662.17 478.542 663.521 478.542Z" fill="#512DA8" fill-opacity="0.25"/>
<path d="M685.532 478.542C686.883 478.542 687.979 477.447 687.979 476.095C687.979 474.743 686.883 473.648 685.532 473.648C684.18 473.648 683.084 474.743 683.084 476.095C683.084 477.447 684.18 478.542 685.532 478.542Z" fill="#512DA8" fill-opacity="0.25"/>
<path d="M707.542 478.542C708.894 478.542 709.989 477.447 709.989 476.095C709.989 474.743 708.894 473.648 707.542 473.648C706.191 473.648 705.095 474.743 705.095 476.095C705.095 477.447 706.191 478.542 707.542 478.542Z" fill="#512DA8" fill-opacity="0.25"/>
<path d="M729.553 478.542C730.904 478.542 732 477.447 732 476.095C732 474.743 730.904 473.648 729.553 473.648C728.201 473.648 727.105 474.743 727.105 476.095C727.105 477.447 728.201 478.542 729.553 478.542Z" fill="#512DA8" fill-opacity="0.25"/>
<path d="M511.894 495.658C511.894 497.005 510.794 498.106 509.447 498.106C508.101 498.106 507 497.005 507 495.658C507 494.312 508.101 493.211 509.447 493.211C510.794 493.211 511.894 494.312 511.894 495.658Z" fill="#512DA8" fill-opacity="0.25"/>
<path d="M533.905 495.658C533.905 497.005 532.804 498.106 531.458 498.106C530.111 498.106 529.01 497.005 529.01 495.658C529.01 494.312 530.111 493.211 531.458 493.211C532.804 493.211 533.905 494.312 533.905 495.658Z" fill="#512DA8" fill-opacity="0.25"/>
<path d="M555.915 495.658C555.915 497.005 554.815 498.106 553.468 498.106C552.122 498.106 551.021 497.005 551.021 495.658C551.021 494.312 552.122 493.211 553.468 493.211C554.815 493.211 555.915 494.312 555.915 495.658Z" fill="#512DA8" fill-opacity="0.25"/>
<path d="M577.926 495.658C577.926 497.005 576.826 498.106 575.479 498.106C574.132 498.106 573.032 497.005 573.032 495.658C573.032 494.312 574.132 493.211 575.479 493.211C576.826 493.211 577.926 494.312 577.926 495.658Z" fill="#512DA8" fill-opacity="0.25"/>
<path d="M599.937 495.658C599.937 497.005 598.836 498.106 597.489 498.106C596.143 498.106 595.042 497.005 595.042 495.658C595.042 494.312 596.143 493.211 597.489 493.211C598.836 493.211 599.937 494.312 599.937 495.658Z" fill="#512DA8" fill-opacity="0.25"/>
<path d="M621.947 495.658C621.947 497.005 620.847 498.106 619.5 498.106C618.153 498.106 617.053 497.005 617.053 495.658C617.053 494.312 618.153 493.211 619.5 493.211C620.847 493.211 621.947 494.312 621.947 495.658Z" fill="#512DA8" fill-opacity="0.25"/>
<path d="M643.958 495.658C643.958 497.005 642.857 498.106 641.51 498.106C640.164 498.106 639.063 497.005 639.063 495.658C639.063 494.312 640.164 493.211 641.51 493.211C642.857 493.211 643.958 494.312 643.958 495.658Z" fill="#512DA8" fill-opacity="0.25"/>
<path d="M665.968 495.658C665.968 497.005 664.868 498.106 663.521 498.106C662.174 498.106 661.074 497.005 661.074 495.658C661.074 494.312 662.174 493.211 663.521 493.211C664.868 493.211 665.968 494.312 665.968 495.658Z" fill="#512DA8" fill-opacity="0.25"/>
<path d="M687.979 495.658C687.979 497.005 686.878 498.106 685.532 498.106C684.185 498.106 683.084 497.005 683.084 495.658C683.084 494.312 684.185 493.211 685.532 493.211C686.878 493.211 687.979 494.312 687.979 495.658Z" fill="#512DA8" fill-opacity="0.25"/>
<path d="M709.989 495.658C709.989 497.005 708.889 498.106 707.542 498.106C706.196 498.106 705.095 497.005 705.095 495.658C705.095 494.312 706.196 493.211 707.542 493.211C708.889 493.211 709.989 494.312 709.989 495.658Z" fill="#512DA8" fill-opacity="0.25"/>
<path d="M732 495.658C732 497.005 730.899 498.106 729.553 498.106C728.206 498.106 727.105 497.005 727.105 495.658C727.105 494.312 728.206 493.211 729.553 493.211C730.899 493.211 732 494.312 732 495.658Z" fill="#512DA8" fill-opacity="0.25"/>
<path d="M337.657 490C459.522 490 558.313 484.197 558.313 477.039C558.313 469.881 459.522 464.078 337.657 464.078C215.791 464.078 117 469.881 117 477.039C117 484.197 215.791 490 337.657 490Z" fill="#E6E6E6"/>
<path d="M367.142 147.669H364.769V82.638C364.769 72.6558 360.803 63.0824 353.745 56.0239C346.686 48.9654 337.113 45 327.131 45H189.354C179.372 45 169.798 48.9654 162.74 56.0239C155.681 63.0824 151.716 72.6558 151.716 82.638V439.402C151.716 449.384 155.681 458.957 162.74 466.016C169.798 473.074 179.372 477.04 189.354 477.04H327.131C337.113 477.04 346.686 473.074 353.745 466.016C360.803 458.957 364.769 449.384 364.769 439.402V193.959H367.142V147.669Z" fill="#3F3D56"/>
<path d="M356.757 82.9011V439.139C356.757 446.594 353.796 453.744 348.524 459.015C343.253 464.286 336.104 467.248 328.649 467.248H190.211C182.757 467.248 175.607 464.286 170.336 459.015C165.065 453.744 162.104 446.595 162.103 439.14V82.9011C162.103 75.4463 165.065 68.2968 170.336 63.0255C175.608 57.7541 182.757 54.7927 190.212 54.7925H207.006C206.181 56.8203 205.867 59.0199 206.091 61.1977C206.315 63.3756 207.071 65.4649 208.293 67.282C209.514 69.0991 211.163 70.5882 213.095 71.6183C215.027 72.6484 217.182 73.188 219.372 73.1896H298.303C300.492 73.1881 302.647 72.6486 304.579 71.6185C306.511 70.5884 308.161 69.0994 309.382 67.2823C310.603 65.4652 311.359 63.3758 311.584 61.1979C311.808 59.02 311.494 56.8204 310.668 54.7925H328.649C336.104 54.7927 343.253 57.7541 348.524 63.0255C353.796 68.2968 356.757 75.4463 356.757 82.9011Z" fill="white"/>
<path d="M226.056 352.619H223.144L224.116 295.75H225.088L226.056 352.619Z" fill="#E6E6E6"/>
<path d="M228.481 259.946L233.181 252.683C231.787 248.833 230.177 245.065 228.359 241.397L225.321 243.852L227.727 240.133C225.433 235.62 223.629 232.775 223.629 232.775C223.629 232.775 214.206 247.626 211.055 263.353L217.086 272.673L210.411 267.281C210.174 269.112 210.051 270.957 210.045 272.805C210.045 291.428 216.128 306.526 223.631 306.526C231.134 306.526 237.216 291.427 237.216 272.805C237.216 267.031 235.91 260.991 234.106 255.403L228.481 259.946Z" fill="#CCCCCC"/>
<path d="M301.849 352.619H298.938L299.91 295.75H300.882L301.849 352.619Z" fill="#E6E6E6"/>
<path d="M304.275 259.946L308.975 252.683C307.581 248.833 305.971 245.065 304.153 241.397L301.115 243.852L303.521 240.133C301.227 235.62 299.423 232.775 299.423 232.775C299.423 232.775 289.998 247.628 286.851 263.353L292.877 272.672L286.203 267.279C285.965 269.111 285.843 270.956 285.836 272.803C285.836 291.427 291.919 306.524 299.422 306.524C306.925 306.524 313.007 291.425 313.007 272.803C313.007 267.03 311.701 260.989 309.897 255.401L304.275 259.946Z" fill="#CCCCCC"/>
<path d="M223.84 164.108C238.614 164.108 250.591 152.131 250.591 137.357C250.591 122.583 238.614 110.606 223.84 110.606C209.066 110.606 197.089 122.583 197.089 137.357C197.089 152.131 209.066 164.108 223.84 164.108Z" fill="#E6E6E6"/>
<path d="M260.892 344.339H254.889L256.891 227.08H258.891L260.892 344.339Z" fill="#E6E6E6"/>
<path d="M265.894 153.255L275.584 138.282C272.711 130.344 269.392 122.574 265.643 115.01L259.377 120.071L264.338 112.403C259.608 103.096 255.89 97.2318 255.89 97.2318C255.89 97.2318 236.456 127.855 229.964 160.279L242.395 179.497L228.629 168.378C228.139 172.155 227.887 175.96 227.875 179.768C227.875 218.169 240.416 249.299 255.887 249.299C271.357 249.299 283.899 218.169 283.899 179.768C283.899 167.864 281.205 155.409 277.49 143.888L265.894 153.255Z" fill="#CCCCCC"/>
<path d="M356.757 361.241V440.955C356.757 457.122 344.173 470.229 328.649 470.23H190.211C174.688 470.23 162.103 457.123 162.102 440.955V369.012C186.104 339.668 220.807 322.13 257.793 320.653C294.778 319.176 330.669 333.896 356.757 361.241Z" fill="#E6E6E6"/>
<path opacity="0.2" d="M259.581 439.874C282.203 439.874 300.542 421.535 300.542 398.913C300.542 376.29 282.203 357.951 259.581 357.951C236.959 357.951 218.62 376.29 218.62 398.913C218.62 421.535 236.959 439.874 259.581 439.874Z" fill="#0288D1"/>
<path d="M259.581 431.894C277.797 431.894 292.563 417.128 292.563 398.913C292.563 380.697 277.797 365.931 259.581 365.931C241.366 365.931 226.599 380.697 226.599 398.913C226.599 417.128 241.366 431.894 259.581 431.894Z" fill="#0288D1"/>
<path d="M255.734 413.014L244.111 398.069L250.87 392.812L256.373 399.888L274.965 380.263L281.182 386.152L255.734 413.014Z" fill="white"/>
<path d="M434.853 347.613C446.664 347.613 456.238 338.039 456.238 326.228C456.238 314.417 446.664 304.843 434.853 304.843C423.042 304.843 413.468 314.417 413.468 326.228C413.468 338.039 423.042 347.613 434.853 347.613Z" fill="#2F2E41"/>
<path d="M443.519 446.281L445.167 454.053L475.929 451.396L473.498 439.926L443.519 446.281Z" fill="#FFB8B8"/>
<path d="M441.124 470.57L435.947 446.143L445.385 444.143L448.562 459.133C448.824 460.372 448.84 461.651 448.609 462.896C448.377 464.142 447.902 465.33 447.212 466.392C446.521 467.454 445.628 468.37 444.583 469.087C443.539 469.803 442.363 470.308 441.124 470.57Z" fill="#2F2E41"/>
<path d="M424.247 445.867L420.785 453.018L391.558 443.066L396.669 432.513L424.247 445.867Z" fill="#FFB8B8"/>
<path d="M416.272 457.142L422.949 443.351L431.632 447.556L420.751 470.029C418.448 468.914 416.682 466.93 415.842 464.513C415.002 462.096 415.157 459.445 416.272 457.142Z" fill="#2F2E41"/>
<path d="M366.662 431.744C367.663 431.93 368.692 431.895 369.677 431.64C370.663 431.386 371.58 430.918 372.366 430.271C373.151 429.623 373.784 428.812 374.222 427.893C374.66 426.974 374.89 425.97 374.898 424.953L423.095 380.516L411.126 371.246L367.489 417.867C365.778 417.966 364.163 418.69 362.95 419.902C361.737 421.113 361.011 422.727 360.909 424.438C360.807 426.149 361.337 427.838 362.397 429.184C363.458 430.531 364.976 431.442 366.663 431.743L366.662 431.744Z" fill="#FFB8B8"/>
<path d="M432.169 348.579C440.959 348.579 448.085 341.453 448.085 332.662C448.085 323.872 440.959 316.746 432.169 316.746C423.378 316.746 416.252 323.872 416.252 332.662C416.252 341.453 423.378 348.579 432.169 348.579Z" fill="#FFB8B8"/>
<path d="M446.453 426.222C435.288 426.222 421.842 423.871 413.546 414.248L413.36 414.032L413.554 413.819C413.619 413.75 419.72 406.776 413.626 394.339L405.247 396.916L396.907 385.906L401.527 372.046L420.435 356.817C423.144 354.646 426.442 353.338 429.902 353.063C436.165 352.458 442.266 350.72 447.908 347.935C450.49 346.681 453.333 346.059 456.203 346.121L456.575 346.131C457.448 346.156 458.306 346.357 459.099 346.724C459.891 347.09 460.601 347.613 461.185 348.262C461.77 348.911 462.216 349.672 462.497 350.498C462.779 351.325 462.889 352.2 462.822 353.07C461.54 369.68 459.276 409.801 465.928 423.616L466.1 423.973L465.716 424.071C459.394 425.493 452.934 426.214 446.454 426.221L446.453 426.222Z" fill="#0288D1"/>
<path d="M415.736 414.037C415.736 414.037 373.614 410.149 369.077 422.462C364.541 434.774 369.725 440.607 377.502 443.199C385.278 445.791 404.071 449.031 404.071 449.031L412.496 438.663L434.529 439.959C434.529 439.959 459.08 454.198 465.868 469.427C467.325 472.723 469.647 475.562 472.588 477.643C475.53 479.724 478.98 480.969 482.573 481.245C488.016 481.623 492.852 479.569 492.852 471.063C492.852 451.622 465.635 423.756 465.635 423.756L415.736 414.037Z" fill="#2F2E41"/>
<path d="M383.658 433.154C383.658 433.154 394.675 429.914 412.172 438.338Z" fill="#2F2E41"/>
<path d="M416.291 322.512C422.507 326.306 429.515 328.615 436.769 329.259L434.611 326.673C436.182 327.253 437.836 327.581 439.51 327.645C440.349 327.669 441.181 327.496 441.941 327.141C442.701 326.785 443.366 326.257 443.885 325.597C444.308 324.913 444.56 324.136 444.618 323.333C444.676 322.53 444.539 321.725 444.219 320.987C443.561 319.514 442.538 318.233 441.245 317.268C438.954 315.455 436.251 314.238 433.375 313.724C430.5 313.21 427.542 313.416 424.765 314.322C422.859 314.891 421.152 315.985 419.84 317.48C419.195 318.232 418.747 319.133 418.537 320.101C418.326 321.069 418.359 322.075 418.633 323.027" fill="#2F2E41"/>
<path d="M434.738 309.79C437.566 303.223 441.799 297.356 447.14 292.601C450.569 289.556 454.575 286.936 459.093 286.145C463.612 285.354 468.706 286.709 471.478 290.364C473.746 293.354 474.169 297.359 473.919 301.102C473.67 304.845 472.833 308.554 472.913 312.302C472.995 316.129 474.031 319.875 475.928 323.2C477.824 326.525 480.521 329.324 483.774 331.342C487.027 333.36 490.732 334.534 494.553 334.757C498.374 334.98 502.191 334.245 505.656 332.619C501.754 334.776 498.713 338.192 495.093 340.789C491.473 343.387 486.693 345.17 482.578 343.453C478.225 341.638 476.228 336.701 474.668 332.248L467.714 312.392C466.532 309.017 465.291 305.541 462.878 302.902C460.465 300.262 456.55 298.653 453.229 299.98C450.712 300.986 449.074 303.387 447.637 305.683C446.2 307.978 444.684 310.426 442.258 311.631C439.833 312.836 436.231 312.094 435.439 309.502" fill="#2F2E41"/>
<path d="M440.199 426.278C439.925 426.278 439.65 426.263 439.378 426.232C437.566 426.029 435.902 425.139 434.727 423.746C433.551 422.353 432.954 420.562 433.058 418.743C433.162 416.923 433.958 415.212 435.285 413.962C436.611 412.712 438.366 412.017 440.188 412.02C440.506 412.022 440.824 412.045 441.138 412.091L462.898 388.927L460.627 381.355L472.032 376.24L475.229 384.056C476.302 386.703 476.491 389.625 475.771 392.389C475.05 395.153 473.458 397.611 471.23 399.398L447.278 418.45C447.303 418.682 447.316 418.916 447.317 419.149C447.316 420.152 447.105 421.144 446.695 422.059C446.286 422.975 445.689 423.794 444.942 424.463C443.642 425.637 441.951 426.284 440.199 426.278Z" fill="#FFB8B8"/>
<path d="M457.21 349.233C457.965 348.898 458.779 348.719 459.605 348.706C460.43 348.693 461.25 348.848 462.014 349.16C462.778 349.472 463.472 349.935 464.053 350.522C464.633 351.109 465.089 351.807 465.394 352.575L476.651 380.987L459.154 392.652L457.21 349.233Z" fill="#0288D1"/>
</svg>
